<svg width="281" height="207" viewBox="0 0 281 207" fill="none" xmlns="http://www.w3.org/2000/svg">
<g clip-path="url(#clip0)">
<path d="M20.2648 206.689H19.7749V198.35H20.2648V206.689ZM20.2648 197.861H19.7749V188.418L20.2648 188.435V197.861ZM19.7749 185.925V171.935C19.9292 172.058 20.0921 172.18 20.2648 172.303V185.909L19.7749 185.92V185.925ZM19.7749 168.371V143.927H20.2648V167.864C20.0958 168.04 19.9317 168.211 19.7749 168.376V168.371ZM20.2648 143.437H19.7749V116.715H20.2648V143.437ZM20.2648 116.225H19.7749V101.414L20.2648 101.666V116.233V116.225ZM20.2648 90.481L19.7749 90.2276V89.5103H20.2648V90.481ZM20.2648 89.0207H19.7749V62.2899H20.2648V89.0133V89.0207ZM20.2648 61.8002H19.7749V35.0792H20.2648V61.8002ZM20.2648 34.5896H19.7749V7.86611H20.2648V34.5896ZM20.2648 7.37646H19.7749V0H20.2648V7.37646Z" fill="#E1D1B9"/>
<path d="M47.4923 206.996H47.0024V198.347H47.4923V206.996ZM47.4923 197.857H47.0024V189.132L47.4923 189.142V197.857ZM47.0024 185.478V171.139H47.4923V185.475H47.0024V185.478ZM47.4923 170.643H47.0024V143.921H47.4923V170.643ZM47.4923 143.431H47.0024V132.227C47.1592 131.409 47.3209 130.604 47.4923 129.813V143.431ZM47.0024 83.1609V62.2899H47.4923V82.7067C47.3233 82.8573 47.1604 83.0115 47.0024 83.167V83.1609ZM47.4923 61.8002H47.0024V35.0792H47.4923V61.8002ZM47.4923 34.5896H47.0024V7.86611H47.4923V34.5896ZM47.4923 7.37646H47.0024V0H47.4923V7.37646Z" fill="#E1D1B9"/>
<path d="M74.7174 206.996H74.2275V198.347H74.7174V206.996ZM74.7174 197.857H74.2275V189.576H74.7174V197.851V197.857ZM74.2275 185.235V171.139H74.7174V185.242H74.2275V185.235ZM74.7174 170.645H74.2275V143.923H74.7174V170.645ZM74.7174 143.433H74.2275V123.757C74.3324 123.587 74.4272 123.411 74.5117 123.23C74.5893 123.061 74.658 122.888 74.7174 122.712V143.442V143.433ZM74.2275 109.349V91.8765C74.3908 91.7516 74.5541 91.6215 74.7174 91.486V108.851L74.2275 109.341V109.349ZM74.2275 79.4286V62.2911H74.7174V79.3845L74.2275 79.4323V79.4286ZM74.7174 61.8051H74.2275V35.0792H74.7174V61.8002V61.8051ZM74.7174 34.5896H74.2275V7.86611H74.7174V34.5896ZM74.7174 7.37646H74.2275V0H74.7174V7.37646Z" fill="#E1D1B9"/>
<path d="M101.945 206.996H101.455V198.347H101.945V206.996ZM101.945 197.857H101.455V189.859H101.945V197.861V197.857ZM101.455 185.114V171.139H101.945V185.113H101.455V185.114ZM101.945 170.648H101.455V143.926H101.945V170.648ZM101.945 143.436H101.455V116.715H101.945V143.437V143.436ZM101.945 116.225H101.455V95.9626C101.618 95.8071 101.782 95.6517 101.945 95.4986V116.225ZM101.945 58.489C101.78 58.2944 101.616 58.1059 101.455 57.9247V35.0792H101.945V58.489ZM101.945 34.5896H101.455V7.86611H101.945V34.5896ZM101.945 7.37646H101.455V0H101.945V7.37646Z" fill="#E1D1B9"/>
<path d="M129.172 206.996H128.682V198.347H129.172V206.996ZM129.172 197.857H128.682V189.984H129.172V197.856V197.857ZM128.682 185.052V171.134H129.172V185.052H128.682ZM129.172 170.644H128.682V148.218C128.835 148.344 128.999 148.455 129.172 148.553V170.644ZM128.682 147.322V143.922H129.172V146.704C129.011 146.909 128.848 147.116 128.682 147.316V147.322ZM129.172 143.426H128.682V116.715H129.172V143.437V143.426ZM129.172 116.225H128.682V90.1395L129.172 90.2301V116.225ZM129.172 80.1141L128.682 80.0259V62.2899H129.172V80.1177V80.1141ZM129.172 61.8002H128.682V35.0792H129.172V61.8002ZM129.172 34.5896H128.682V7.86611H129.172V34.5896ZM129.172 7.37646H128.682V0H129.172V7.37646Z" fill="#E1D1B9"/>
<path d="M156.402 206.996H155.912V198.347H156.402V206.996ZM156.402 197.857H155.912V189.987H156.402V197.858V197.857ZM156.402 185.062H155.912V171.139H156.402V185.064V185.062ZM156.402 170.649H155.912V155.508C156.077 156.5 156.241 157.478 156.402 158.429V170.649ZM155.912 81.4214V62.2899H156.402V81.3957C156.237 81.4067 156.075 81.4153 155.912 81.4214ZM156.402 61.8002H155.912V35.0792H156.402V61.8002ZM156.402 34.5896H155.912V7.86611H156.402V34.5896ZM156.402 7.37646H155.912V0H156.402V7.37646Z" fill="#E1D1B9"/>
<path d="M183.624 206.996H183.134V198.347H183.624V206.996ZM183.624 197.857H183.134V189.886H183.624V197.86V197.857ZM183.624 185.166H183.134V171.139H183.624V185.167V185.166ZM183.624 170.649H183.134V143.927H183.624V170.649ZM183.624 143.437H183.134V116.715H183.624V143.437ZM183.624 116.225H183.134V89.503H183.624V116.225ZM183.624 89.0133H183.134V62.2899H183.624V89.0133ZM183.624 61.8002H183.134V35.0792H183.624V61.8002ZM183.624 34.5896H183.134V7.86611H183.624V34.5896ZM183.624 7.37646H183.134V0H183.624V7.37646Z" fill="#E1D1B9"/>
<path d="M210.851 206.996H210.361V198.347H210.851V206.996ZM210.851 197.857H210.361V189.67H210.851V197.862V197.857ZM210.851 185.386H210.361V171.139H210.851V185.385V185.386ZM210.851 170.649H210.361V143.927H210.851V170.649ZM210.851 143.437H210.361V116.715H210.851V143.437ZM210.851 116.225H210.361V95.8818C210.524 96.025 210.688 96.1633 210.851 96.2943V116.225ZM210.851 85.7707C210.687 85.5258 210.524 85.2871 210.361 85.0435V62.2899H210.851V85.7707ZM210.851 61.8002H210.361V35.0792H210.851V61.8002ZM210.851 34.5896H210.361V7.86611H210.851V34.5896ZM210.851 7.37646H210.361V0H210.851V7.37646Z" fill="#E1D1B9"/>
<path d="M238.077 206.996H237.587V198.347H238.077V206.996ZM238.077 197.857H237.587V189.299L238.077 189.291V197.86V197.857ZM238.077 185.758L237.587 185.75V171.139H238.077V185.759V185.758ZM238.077 170.649H237.587V143.927H238.077V170.649ZM238.077 143.437H237.587V142.503C237.75 142.202 237.913 141.9 238.077 141.6V143.436V143.437ZM237.587 79.1434V62.2899H238.077V78.6072C237.928 78.7991 237.765 78.9788 237.587 79.1446V79.1434ZM238.077 61.8002H237.587V58.5123C237.752 58.5992 237.917 58.6861 238.077 58.773V61.8051V61.8002ZM238.077 52.1445L237.587 51.8997V35.0792H238.077V52.1396V52.1445ZM238.077 34.5896H237.587V7.86611H238.077V34.5896ZM238.077 7.37646H237.587V0H238.077V7.37646Z" fill="#E1D1B9"/>
<path d="M265.303 206.996H264.813V198.347H265.303V206.996ZM265.303 197.857H264.813V188.635L265.303 188.618V197.862V197.857ZM265.303 186.439L264.813 186.422V171.139H265.303V186.44V186.439ZM265.076 170.649H264.813V170.486L265.076 170.649ZM265.303 160.489L264.813 160.102V143.927H265.303V160.493V160.489ZM265.303 143.437H264.813V116.715H265.303V143.437ZM265.303 116.225H264.813V89.503H265.303V116.225ZM265.303 89.0133H264.813V62.2899H265.303V89.0133ZM265.303 61.8002H264.813V35.0792H265.303V61.8002ZM265.303 34.5896H264.813V7.86611H265.303V34.5896ZM265.303 7.37646H264.813V0H265.303V7.37646Z" fill="#E1D1B9"/>
<path d="M279.98 198.35H279.93H265.304H265.059H264.814H238.077H237.832H237.587H210.851H210.606H210.361H183.624H183.379H183.134H156.397H156.152H155.907H129.172H128.927H128.682H101.945H101.7H101.455H74.7176H74.4727H74.2277H47.4925H47.2475H47.0026H20.2649H20.0199H19.775H4.19727V197.861H19.775H20.0199H20.2649H47.0026H47.2475H47.4925H74.2277H74.4727H74.7176H101.455H101.7H101.945H128.682H128.927H129.172H155.907H156.152H156.397H183.134H183.379H183.624H210.361H210.606H210.851H237.587H237.832H238.077H264.814H265.059H265.304H279.93H279.98V198.35Z" fill="#E1D1B9"/>
<path d="M279.98 171.139H272.966C273.048 170.973 273.124 170.809 273.197 170.649H279.98V171.139ZM265.878 171.139H228.932C228.953 170.976 228.972 170.814 228.993 170.649H265.076C265.349 170.818 265.617 170.981 265.878 171.139ZM221.472 171.139H164.218C164.205 170.977 164.192 170.813 164.179 170.649H221.527C221.509 170.814 221.49 170.976 221.472 171.139ZM158.84 171.139H146.47C146.507 170.977 146.545 170.813 146.583 170.649H158.729C158.764 170.808 158.801 170.971 158.838 171.139H158.84ZM141.986 171.139H68.5755C68.5534 170.977 68.5314 170.813 68.5081 170.649H142.072C142.046 170.812 142.021 170.976 141.994 171.139H141.986ZM61.1485 171.139H27.7861L28.3287 170.649H61.0787C61.1008 170.813 61.1216 170.977 61.1437 171.139H61.1485ZM18.827 171.139H3.15869V170.649H18.3457C18.4943 170.822 18.6539 170.986 18.8234 171.139" fill="#E1D1B9"/>
<path d="M279.98 143.927H255.753C255.77 143.765 255.788 143.602 255.807 143.437H279.98V143.927ZM245.074 143.927H236.817C236.906 143.764 236.994 143.6 237.083 143.437H245.018C245.036 143.6 245.055 143.761 245.074 143.927ZM226.241 143.927H166.2C166.191 143.764 166.181 143.601 166.172 143.437H226.387C226.337 143.601 226.288 143.765 226.239 143.927H226.241ZM131.162 143.927H64.0757C64.0328 143.765 63.9888 143.601 63.9434 143.437H131.477C131.374 143.6 131.269 143.763 131.162 143.927ZM53.7571 143.927H44.8262L44.9291 143.437H53.5416L53.7547 143.927H53.7571ZM34.6656 143.927H4.19727V143.437H34.6607C34.6607 143.602 34.6607 143.764 34.6607 143.927" fill="#E1D1B9"/>
<path d="M279.98 116.715H258.179C258.179 116.64 258.179 116.564 258.179 116.488C258.424 116.409 258.669 116.321 258.889 116.225H279.98V116.715ZM233.787 116.715H162.145C162.105 116.551 162.066 116.387 162.022 116.225H233.746C233.756 116.394 233.767 116.558 233.782 116.715H233.787ZM139.108 116.715H80.9321L81.422 116.225H139.265C139.215 116.388 139.164 116.552 139.115 116.715H139.108ZM31.9576 116.715H4.19727V116.225H31.4261C31.5935 116.397 31.7697 116.561 31.954 116.715" fill="#E1D1B9"/>
<path d="M279.98 89.5029H249.322C249.268 89.3389 249.215 89.1761 249.161 89.0133H279.98V89.5029ZM219.599 89.5029H213.692C213.551 89.3487 213.407 89.1847 213.261 89.0133H220.579C220.245 89.1847 219.921 89.3487 219.608 89.5029H219.599ZM205.364 89.5029H168.021C167.998 89.443 167.975 89.3805 167.95 89.323C167.906 89.2177 167.858 89.1137 167.808 89.0133H205.061C205.158 89.1765 205.257 89.3397 205.358 89.5029H205.364ZM125.12 89.5029H118.985C119.105 89.3397 119.22 89.1765 119.331 89.0133H122.244C123.174 89.1663 124.136 89.3303 125.12 89.5029ZM93.8105 89.5029H76.8709C77.0301 89.3426 77.1905 89.1786 77.351 89.0133H94.3224C94.1526 89.1765 93.982 89.3397 93.8105 89.5029ZM42.9892 89.5029H18.3813L17.4321 89.0133H43.1961C43.1263 89.1749 43.0565 89.3377 42.9892 89.5029Z" fill="#E1D1B9"/>
<path d="M279.98 62.2898H248.112C248.119 62.1221 248.124 61.9593 248.126 61.8002H279.98V62.2898ZM241.391 62.2898H105.008L104.621 61.8002H241.413C241.413 61.9434 241.4 62.1074 241.391 62.2898ZM89.7662 62.2898H4.19727V61.8002H90.1753C90.0296 61.9679 89.8936 62.1319 89.7687 62.2898" fill="#E1D1B9"/>
<path d="M279.98 35.0792H279.93H265.304H265.059H264.814H238.077H237.832H237.587H210.851H210.606H210.361H183.624H183.379H183.134H156.397H156.152H155.907H129.172H128.927H128.682H101.945H101.7H101.455H74.7176H74.4727H74.2277H47.4925H47.2475H47.0026H20.2649H20.0199H19.775H4.19727V34.5895H19.775H20.0199H20.2649H47.0026H47.2475H47.4925H74.2277H74.4727H74.7176H101.455H101.7H101.945H128.682H128.927H129.172H155.907H156.152H156.397H183.134H183.379H183.624H210.361H210.606H210.851H237.587H237.832H238.077H264.814H265.059H265.304H279.93H279.98V35.0792Z" fill="#E1D1B9"/>
<path d="M279.98 7.86611H279.93H265.304H265.059H264.814H238.077H237.832H237.587H210.851H210.606H210.361H183.624H183.379H183.134H156.397H156.152H155.907H129.172H128.927H128.682H101.945H101.7H101.455H74.7176H74.4727H74.2277H47.4925H47.2475H47.0026H20.2649H20.0199H19.775H4.19727V7.37646H19.775H20.0199H20.2649H47.0026H47.2475H47.4925H74.2277H74.4727H74.7176H101.455H101.7H101.945H128.682H128.927H129.172H155.907H156.152H156.397H183.134H183.379H183.624H210.361H210.606H210.851H237.587H237.832H238.077H264.814H265.059H265.304H279.93H279.98V7.86611Z" fill="#E1D1B9"/>
<path d="M234.712 86.3705L238.532 83.4608C237.736 81.7127 236.247 77.2068 235.232 75.7881C234.118 74.231 234.007 74.395 234.007 74.395L232.149 77.2105L231.276 78.5374C231.276 78.5374 231.751 79.1568 232.02 80.4519C232.207 81.3577 232.293 82.5941 232.043 84.1818C231.855 85.3704 234.709 86.3668 234.709 86.3668" fill="#EFAEA6"/>
<path d="M232.06 80.6527C231.916 79.9112 231.652 79.198 231.279 78.5411C231.279 78.5411 231.754 79.1605 232.022 80.4556C232.035 80.5192 232.048 80.5853 232.06 80.6527Z" fill="#D0C1B0"/>
<path d="M232.06 80.6527C232.048 80.5854 232.035 80.5193 232.022 80.4556C231.754 79.1605 231.279 78.5411 231.279 78.5411L232.152 77.2142C232.152 77.2142 233.961 77.5349 234.528 77.7736C235.437 78.1531 234.911 80.6013 232.06 80.6527Z" fill="#D29A97"/>
<path d="M230.325 71.751C229.742 73.1624 227.286 75.4404 228.268 75.7489C229.25 76.0574 227.034 78.732 228.066 79.098C230.57 79.9843 233.989 79.3086 234.704 78.1934C235.42 77.0783 236.33 73.6128 236.33 73.6128L230.328 71.751H230.325Z" fill="#EFAEA6"/>
<path d="M232.285 74.1698C231.703 73.5578 231.574 73.9923 231.101 73.5443C230.628 73.0963 231.836 72.6336 230.856 72.1304C229.876 71.6273 229.351 71.2038 229.733 70.0078C229.978 69.2477 230.835 68.6418 231.71 69.1412C232.277 69.4631 232.52 68.3418 233.749 68.6515C234.72 68.8964 234.78 69.6614 235.568 70.2514C236 70.5758 237.379 70.424 237.983 71.2944C239.102 72.9102 237.35 73.3435 238.195 74.9557C239.174 76.8371 234.9 78.5998 234.34 78.5729C234.132 78.5631 233.771 77.9866 234.454 77.377C234.808 77.0611 235.254 76.2459 235.081 75.9998C234.776 75.5665 234.317 74.5175 233.745 75.5628C233.338 76.3071 232.818 79.1642 232.506 79.3135C231.705 79.6979 227.563 79.6526 227.806 78.6427C228.108 77.3917 230.991 79.4677 231.221 78.153C231.395 77.1542 228.381 77.2656 228.371 76.4197C228.36 75.4404 231.61 77.6977 232.088 76.9412C232.671 76.017 232.622 74.5113 232.289 74.1637L232.285 74.1698Z" fill="#1F1E38"/>
<path d="M221.681 182.127C221.771 180.159 222.602 175.255 222.602 175.255L227.66 175.777L226.345 183.126L222.687 185.009L221.679 182.124L221.681 182.127Z" fill="#EFAEA6"/>
<path d="M221.4 181.255C220.883 181.073 221.052 181.613 220.774 182.414C220.274 183.851 216.065 183.793 213.778 183.736C213.148 183.72 212.665 183.705 212.444 183.72C211.916 183.757 210.804 186.434 213.387 186.675C215.621 186.883 222.774 187.576 225.22 187.788C225.471 187.808 225.723 187.744 225.934 187.605C226.145 187.467 226.305 187.263 226.387 187.024C227.008 185.254 227.168 182.43 226.492 182.304C225.495 181.865 223.553 182.011 221.4 181.255Z" fill="#1F1E38"/>
<path d="M274.614 173.723C272.777 173.081 268.383 170.89 268.383 170.89L270.263 166.089L276.841 169.441L277.612 173.548L274.614 173.723Z" fill="#EFAEA6"/>
<path d="M273.714 173.751C273.4 174.206 273.959 174.192 274.636 174.689C276.19 175.826 273.795 182.183 273.582 183.202C273.471 183.729 275.692 185.57 276.628 183.11C277.437 180.984 280.057 174.183 280.927 171.849C281.015 171.61 281.024 171.348 280.952 171.104C280.88 170.859 280.73 170.645 280.526 170.492C279.027 169.391 276.406 168.436 276.101 169.061C275.414 169.918 275.018 171.852 273.714 173.748V173.751Z" fill="#1F1E38"/>
<path d="M237.43 111.957C233.389 119.73 225.596 145.927 224.404 150.115C223.212 154.302 220.646 178.165 220.627 179.616C225.351 180.575 227.512 180.455 227.512 180.455C228.601 176.978 230.169 156.149 232.34 152.165C235.493 146.381 244.18 130.331 244.18 130.331C244.622 138.394 244.572 143.159 246.385 151.836C249.504 163.22 271.117 174.081 271.117 174.081C273.8 170.693 274.57 166.813 273.969 166.827C269.972 164.012 255.193 153.881 255.302 149.171C255.411 144.46 258.179 127.054 258.19 115.556C258.19 114.366 241.508 112.128 241.508 112.128L237.43 111.959" fill="#3B3B4C"/>
<path d="M240.979 136.243C242.816 132.846 244.18 130.331 244.18 130.331C243.247 132.371 242.177 134.345 240.979 136.242" fill="#787175"/>
<path d="M240.979 136.243C241.862 132.262 244.182 125.104 244.182 125.104C244.182 125.104 244.094 127.909 244.182 130.327C244.182 130.327 242.822 132.842 240.981 136.239" fill="#2B2B41"/>
<path d="M199.332 77.7429C199.699 78.0196 200.116 78.2815 200.374 78.6096C200.722 79.0503 201.211 79.2829 201.519 79.8949C201.596 80.0455 201.674 80.2034 201.754 80.3686C201.835 80.5339 201.93 80.7175 202.012 80.873C202.559 81.8926 203.005 82.4019 203.561 83.2318C203.561 83.2318 207.446 82.9454 207.283 82.3015C207.183 81.9049 206.945 81.4055 206.406 80.7102C206.182 80.4164 205.75 79.8704 205.535 79.5411C205.429 79.3783 204.359 77.9498 204.285 77.5091C204.056 76.1626 204.909 75.1356 204.336 74.4599C203.576 73.5626 203.006 76.2324 202.851 75.684C202.444 74.2628 199.656 72.5638 198.34 75.1099C198.143 75.4894 198.472 77.0856 199.332 77.7442V77.7429Z" fill="#EFAEA6"/>
<path d="M226.87 47.3925C227.183 47.7267 227.483 48.1208 227.836 48.3461C228.307 48.6496 228.586 49.1124 229.224 49.3609C229.384 49.4221 229.548 49.4833 229.72 49.5481C229.893 49.613 230.088 49.6889 230.247 49.7562C231.315 50.2018 231.866 50.596 232.746 51.0697C232.746 51.0697 232.836 54.9611 232.179 54.8644C231.774 54.8032 231.253 54.6196 230.507 54.1459C230.193 53.9513 229.608 53.5742 229.259 53.3931C229.086 53.3013 227.564 52.3758 227.114 52.344C225.756 52.2461 224.672 52.0319 223.943 51.5275C222.977 50.8567 225.964 50.8653 225.403 50.7625C223.949 50.4956 221.742 48.2188 224.153 46.6617C224.512 46.4303 226.133 46.6029 226.87 47.3962V47.3925Z" fill="#EFAEA6"/>
<path d="M236.896 79.6183C235.25 79.5632 235.832 82.3799 234.324 82.9234C233.531 83.2086 233.608 82.7704 233.116 82.4594C232.812 82.2685 232.515 82.042 232.258 82.5623C226.919 93.1398 239.424 112.904 238.855 114.669C238.389 116.111 246.628 116.903 250.381 114.757C259.824 109.357 254.252 107.278 252.953 104.061C252.463 102.837 243.236 82.2893 243.236 82.2893C241.031 81.6358 238.905 80.7417 236.896 79.6232" fill="white"/>
<path d="M201.521 81.8584C201.625 82.692 207.628 95.9711 213.252 97.6396C216.902 98.7217 221.603 97.2932 224.465 95.6174C226.264 94.5646 227.97 94.5548 228.842 95.0788C229.488 95.468 230.222 96.3702 230.844 97.4535C231.593 98.7597 232.181 100.33 232.257 101.579C232.337 102.925 233.482 108.467 233.623 109.413C233.99 111.758 233.325 117.081 234.191 118.322C235.057 119.563 235.749 120.281 236.498 120.609C237.248 120.937 242.483 121.366 243.225 120.085C243.629 119.386 244.028 117.698 243.675 116.072C243.667 116.032 243.657 115.991 243.647 115.95C243.222 114.207 241.261 111.889 240.522 109.474C239.799 107.113 239.07 104.523 238.612 101.885C237.548 95.7643 234.092 92.9072 233.369 87.8076C233.287 87.2543 233.21 86.7508 233.135 86.297C233.1 86.0877 233.063 85.887 233.029 85.6972C232.84 84.6702 232.661 83.9296 232.527 83.4289C232.452 83.1351 232.362 82.8454 232.257 82.5611L232.179 82.6039C225.882 86.0314 217.811 90.9694 215.704 90.9278C213.248 90.8825 206.526 78.524 206.006 78.4199C205.485 78.3159 201.416 81.026 201.521 81.8596" fill="#006AA9"/>
<path d="M249.188 114.655C250.553 118.36 257.962 121.375 257.962 121.375C257.962 121.375 258.382 115.427 258.152 114.371C257.922 113.314 249.188 114.655 249.188 114.655Z" fill="#32323F"/>
<path d="M236.899 79.6256C240.964 77.6034 241.308 63.8763 241.431 61.4722C241.528 59.5393 228.909 54.6882 228.46 54.283C228.012 53.8778 230.028 48.4636 230.775 48.7855C231.522 49.1075 247.44 55.5071 248.079 60.3227C248.502 64.3109 246.218 73.8234 247.156 81.7446C247.542 84.9995 251.276 94.8119 251.785 97.2491C252.233 99.6324 253.404 101.835 254.404 103.671C255.405 105.507 262.329 114.219 259.728 115.8C257.421 117.203 252.87 117.597 249.996 115.831C248.282 114.778 248.989 111.825 246.424 107.391C245.33 105.501 243.674 102.434 242.464 99.6459C240.207 94.5304 237.664 83.5636 236.901 79.6232" fill="#006AA9"/>
<path d="M234.066 82.9944C234.022 82.9055 233.988 82.8124 233.963 82.7165C233.892 82.4374 233.923 82.1571 234.208 82.1571C234.233 82.1575 234.258 82.1595 234.283 82.1632C234.555 82.2036 234.691 82.3848 234.811 82.6149C234.674 82.7506 234.51 82.8546 234.329 82.9197C234.244 82.951 234.156 82.976 234.067 82.9944" fill="#BD8C8C"/>
<path d="M239.045 88.9068C238.751 88.7753 238.468 88.621 238.198 88.4453C235.974 87.0131 234.589 83.2624 234.373 83.2624H234.365C234.354 83.2687 234.341 83.272 234.328 83.2722C234.248 83.2722 234.147 83.1498 234.066 82.9907C234.155 82.9723 234.243 82.9473 234.328 82.916C234.509 82.8509 234.673 82.7469 234.809 82.6112C234.918 82.8732 235.061 83.12 235.233 83.3457C236.016 84.227 237.056 85.2541 238.319 86.0191C238.546 86.9531 238.789 87.9263 239.045 88.9105" fill="#C9C9D1"/>
<path d="M248.748 89.9963C246.017 89.9963 242.203 89.5948 240.239 89.2716C239.829 89.2006 239.429 89.0772 239.051 88.9044C238.795 87.9251 238.552 86.9458 238.326 86.013L238.425 86.073C239.132 86.4988 239.901 86.8102 240.705 86.996C240.889 87.0311 241.075 87.0467 241.261 87.0425C242.821 87.0425 246.16 86.368 247.93 85.9739C248.61 87.7415 248.065 85.7523 249.444 89.984C249.222 89.9914 248.99 89.9938 248.748 89.9938" fill="#07588F"/>
<path d="M233.352 82.4056C233.41 82.0469 233.707 81.4912 234.421 81.5952C234.96 81.6748 234.981 81.9123 235.39 82.3737C236.615 83.7607 238.486 85.5038 240.856 86.0314C243.226 86.559 249.031 83.7998 252.491 84.9872C255.951 86.1746 256.697 89.6559 261.731 91.0563C266.765 92.4567 272.501 90.7442 273.985 91.1787C275.468 91.6133 276.347 92.0589 276.246 92.6881C276.144 93.3172 275.287 94.2855 274.179 94.6234C273.072 94.9612 263.657 94.654 261.224 94.0431C257.252 93.0467 254.175 88.8346 251.603 88.318C249.031 87.8014 243.41 88.8076 240.385 88.3058C237.01 87.75 234.67 83.2759 234.43 83.4093C234.19 83.5428 233.967 83.6762 233.543 83.5146C233.252 83.4032 233.288 82.7642 233.347 82.4129L233.352 82.4056Z" fill="#F4AD02"/>
<path d="M230.844 97.4535C230.221 96.3702 229.488 95.468 228.842 95.0788C228.4 94.8388 227.901 94.7213 227.397 94.7385C226.553 94.7385 225.526 94.9967 224.465 95.6174C225.126 94.6381 227.184 92.9819 228.765 92.9819C229.431 92.9819 230.013 93.2757 230.371 94.037C230.976 95.326 230.779 96.664 230.844 97.4535Z" fill="#07588F"/>
<path d="M232.534 35.5603C236.779 39.4064 235.274 47.1318 239.322 52.0857C242.35 55.7899 246.303 24.5739 243.705 22.7573C241.107 20.9408 208.779 30.0555 214.811 32.9089C220.961 35.8198 229.808 33.0937 232.534 35.5639V35.5603Z" fill="#EF6A00"/>
<path d="M190.892 89.0464C191.086 88.8493 191.302 88.6253 191.548 88.3682C192.024 87.8688 192.608 87.2457 193.295 86.5064C194.582 85.1195 196.234 83.3237 198.129 81.2427C201.456 77.5937 205.562 73.0571 209.854 68.299C222.727 54.0296 237.263 37.7857 237.265 37.7833C238.126 36.797 238.563 35.5116 238.482 34.2055C238.401 32.8993 237.808 31.6777 236.832 30.8054C235.856 29.933 234.575 29.4801 233.268 29.5448C231.96 29.6095 230.73 30.1866 229.845 31.1511C229.845 31.1511 229.806 31.1964 229.723 31.2821C228.521 32.6286 218.284 44.0617 207.708 55.8082C202.421 61.6839 197.053 67.6331 192.685 72.434C190.503 74.8345 188.572 76.9473 187.035 78.6146C186.267 79.4469 185.597 80.1692 185.047 80.7555C184.772 81.0481 184.527 81.3076 184.313 81.5292C184.098 81.7507 183.926 81.9319 183.792 82.0665C182.879 83.0089 182.375 84.2737 182.39 85.5856C182.405 86.8975 182.938 88.1504 183.873 89.0713C184.808 89.9922 186.069 90.5067 187.382 90.5027C188.695 90.4987 189.953 89.9766 190.882 89.0501L190.892 89.0464Z" fill="#EF6A00"/>
<path d="M226.725 51.0036C224.813 50.5874 223.724 50.2691 223.527 50.7587C223.249 51.454 224.361 52.0098 224.951 52.0453C225.542 52.0808 227.142 52.0796 227.142 51.7674C227.142 51.4553 226.725 51.0023 226.725 51.0023V51.0036Z" fill="#EFAEA6"/>
<path d="M203.345 76.3156C203.081 74.3779 202.848 73.2676 203.355 73.1097C204.07 72.8881 204.537 74.04 204.525 74.6313C204.513 75.2225 204.388 76.8163 204.075 76.7918C203.763 76.7673 203.341 76.3156 203.341 76.3156H203.345Z" fill="#EFAEA6"/>
<path d="M70.6795 125.733C71.3908 125.295 72.0758 124.815 72.7309 124.297C73.3715 123.796 74.0292 123.244 74.7163 122.642C76.0023 121.512 77.3899 120.202 78.8804 118.751C81.4794 116.21 84.3723 113.236 87.3937 110.121C89.6595 107.784 91.9939 105.371 94.3148 103.021C96.0552 101.254 97.787 99.521 99.4723 97.8795C101.999 95.4178 104.424 93.1618 106.588 91.3293C107.668 90.4125 108.682 89.6033 109.596 88.9313C110.355 88.3622 111.147 87.8389 111.969 87.3645L110.096 84.03L111.487 87.5934C111.653 87.5285 111.814 87.452 111.97 87.3645L110.096 84.03L111.487 87.5934L110.453 84.953L111.049 87.7219C111.197 87.689 111.342 87.6444 111.482 87.5885L110.453 84.953L111.049 87.7219L110.75 86.3301L110.995 87.7341L111.054 87.7219L110.755 86.3301L111 87.7341L110.914 87.2335L110.984 87.7366H111L110.914 87.2359L110.984 87.739C110.984 87.739 111.041 87.7317 111.138 87.7256C111.235 87.7194 111.373 87.717 111.54 87.717C111.953 87.717 112.542 87.7415 113.245 87.7978C114.569 87.9006 116.299 88.1087 118.275 88.3951C121.737 88.8946 125.966 89.6327 130.4 90.4578C133.725 91.0698 137.169 91.7419 140.514 92.3955C145.535 93.3748 150.319 94.3223 154.185 95.0323C156.12 95.3885 157.821 95.6847 159.239 95.8989C159.951 96.0066 160.587 96.0935 161.174 96.1584C161.468 96.1915 161.748 96.2172 162.026 96.2368C162.304 96.2564 162.579 96.2698 162.883 96.271C163.005 96.271 163.128 96.271 163.271 96.2625C163.522 96.2507 163.772 96.2254 164.02 96.1866C164.173 96.1609 164.344 96.129 164.547 96.0764C164.795 96.0124 165.039 95.9305 165.275 95.8316C165.886 95.5858 166.443 95.221 166.912 94.7584C167.382 94.2959 167.754 93.7448 168.009 93.1372C168.263 92.5295 168.395 91.8774 168.395 91.2186C168.395 90.5599 168.265 89.9076 168.011 89.2997C167.757 88.6918 167.385 88.1404 166.916 87.6774C166.447 87.2144 165.891 86.8491 165.279 86.6026C164.668 86.3562 164.014 86.2336 163.355 86.2418C162.696 86.2501 162.045 86.3891 161.44 86.6508L163.177 90.8066L162.197 86.4097C161.936 86.4683 161.681 86.5502 161.435 86.6545L163.172 90.8103L162.192 86.4133L163.063 90.3439L162.525 86.3484C162.44 86.3595 162.334 86.3766 162.197 86.4072L163.068 90.3378L162.525 86.3484L162.959 89.5372L162.787 86.3227C162.732 86.3227 162.651 86.3313 162.525 86.3484L162.959 89.5372L162.787 86.3227L162.878 88.0193V86.3203H162.787L162.878 88.0169V86.6177V86.3203V86.6177V86.3203C162.878 86.3203 162.781 86.3203 162.633 86.3056C162.355 86.2836 161.898 86.2309 161.321 86.1501C160.242 85.9984 158.764 85.7511 157.026 85.4389C153.979 84.8905 150.126 84.1389 145.954 83.3237C142.825 82.7116 139.515 82.0616 136.216 81.4312C131.267 80.4862 126.351 79.584 122.08 78.9096C119.943 78.5729 117.969 78.2975 116.201 78.0919C115.319 77.9915 114.491 77.9127 113.715 77.8556C112.937 77.7993 112.213 77.7662 111.51 77.7662C111.193 77.7662 110.881 77.7724 110.566 77.7895C110.33 77.803 110.092 77.8213 109.846 77.8495C109.444 77.8933 109.045 77.9645 108.652 78.0625C108.408 78.1242 108.168 78.199 107.933 78.2865C107.638 78.3974 107.351 78.5304 107.076 78.6843C106.177 79.1943 105.306 79.7491 104.463 80.3467C102.818 81.5034 101.115 82.8757 99.3388 84.4144C97.7858 85.7609 96.1814 87.2298 94.5427 88.7881C91.6767 91.5105 88.7055 94.4949 85.7734 97.489C83.5688 99.7353 81.3998 101.988 79.3152 104.135C77.772 105.744 76.257 107.295 74.8326 108.74C72.6905 110.903 70.7309 112.828 69.0922 114.324C68.2753 115.071 67.5392 115.71 66.9219 116.208C66.6133 116.453 66.3352 116.67 66.0989 116.84C65.8625 117.01 65.6665 117.14 65.5343 117.219C64.9662 117.553 64.4701 117.996 64.0746 118.523C63.6792 119.049 63.3924 119.649 63.2307 120.288C63.0691 120.926 63.0359 121.59 63.133 122.242C63.2301 122.893 63.4557 123.519 63.7966 124.082C64.1375 124.646 64.587 125.136 65.1189 125.524C65.6508 125.913 66.2547 126.192 66.8954 126.346C67.5361 126.499 68.201 126.524 68.8514 126.419C69.5018 126.314 70.1248 126.081 70.6844 125.733" fill="#EF6A00"/>
<path d="M72.0894 116.619C70.4911 115.885 68.2828 114.814 65.6692 113.53C61.0935 111.28 55.2649 108.352 49.1068 105.229C39.8672 100.546 29.8781 95.4239 22.2087 91.4737C18.3715 89.4993 15.1124 87.8173 12.8135 86.6287L10.1313 85.243L9.41973 84.8758L9.23724 84.7803L9.176 84.7485C8.59503 84.4404 7.95873 84.2505 7.30388 84.1896C6.64903 84.1288 5.9886 84.1982 5.36077 84.394C4.73293 84.5898 4.15014 84.908 3.64607 85.3302C3.142 85.7524 2.72664 86.2703 2.42401 86.8539C2.12137 87.4375 1.93745 88.0752 1.88289 88.7303C1.82832 89.3853 1.90418 90.0447 2.10609 90.6703C2.30799 91.2959 2.63194 91.8753 3.05921 92.375C3.48648 92.8747 4.00861 93.2848 4.5954 93.5816C4.5954 93.5816 17.0634 100.04 31.1947 107.271C38.2603 110.884 45.7436 114.699 52.2973 117.987C55.5747 119.634 58.6219 121.152 61.2735 122.456C63.9251 123.759 66.1799 124.848 67.9007 125.646C69.0962 126.186 70.4568 126.233 71.6865 125.776C72.9162 125.319 73.9157 124.395 74.4674 123.205C75.0192 122.015 75.0787 120.656 74.6329 119.423C74.1871 118.189 73.2721 117.182 72.0869 116.619" fill="#EF6A00"/>
<path d="M184.348 94.1987C184.348 96.2907 183.728 98.3358 182.565 100.075C181.402 101.815 179.749 103.171 177.815 103.971C175.881 104.772 173.753 104.981 171.7 104.573C169.647 104.165 167.761 103.157 166.281 101.678C164.801 100.198 163.793 98.3134 163.385 96.2615C162.977 94.2096 163.187 92.0827 163.988 90.15C164.789 88.2172 166.146 86.5653 167.886 85.4032C169.627 84.2411 171.673 83.6209 173.766 83.6212C175.156 83.6212 176.532 83.8948 177.816 84.4263C179.1 84.9579 180.267 85.7371 181.249 86.7193C182.232 87.7015 183.011 88.8676 183.543 90.1509C184.075 91.4342 184.348 92.8097 184.348 94.1987Z" fill="#4D4E5C"/>
<path d="M183.622 93.3466C183.622 95.3803 183.018 97.3683 181.888 99.0593C180.758 100.75 179.151 102.068 177.271 102.846C175.391 103.625 173.322 103.828 171.327 103.432C169.331 103.035 167.498 102.055 166.059 100.617C164.62 99.1794 163.641 97.3472 163.244 95.3526C162.847 93.358 163.05 91.2906 163.829 89.4117C164.608 87.5328 165.926 85.9269 167.618 84.7971C169.31 83.6672 171.299 83.0641 173.334 83.0641C176.062 83.0641 178.679 84.1475 180.609 86.0758C182.538 88.0042 183.622 90.6195 183.622 93.3466Z" fill="#EF6A00"/>
<path d="M179.828 93.3466C179.828 94.6298 179.447 95.8841 178.734 96.951C178.02 98.0179 177.007 98.8495 175.82 99.3405C174.634 99.8316 173.329 99.9601 172.07 99.7097C170.811 99.4594 169.654 98.8415 168.746 97.9342C167.839 97.0268 167.22 95.8708 166.97 94.6123C166.719 93.3538 166.848 92.0494 167.339 90.8639C167.831 89.6784 168.663 88.6652 169.73 87.9523C170.798 87.2394 172.053 86.8589 173.336 86.8589C175.058 86.8589 176.709 87.5424 177.926 88.7591C179.144 89.9758 179.828 91.626 179.828 93.3466Z" fill="white"/>
<path d="M121.089 83.1719C121.088 85.2637 120.467 87.3083 119.303 89.0471C118.14 90.7859 116.487 92.1409 114.553 92.9407C112.619 93.7405 110.491 93.9493 108.439 93.5406C106.386 93.1319 104.501 92.1241 103.021 90.6447C101.542 89.1652 100.534 87.2804 100.126 85.2287C99.7181 83.177 99.928 81.0505 100.729 79.118C101.53 77.1855 102.887 75.5338 104.627 74.3718C106.367 73.2097 108.413 72.5895 110.506 72.5895C113.313 72.5895 116.005 73.7039 117.99 75.6876C119.974 77.6712 121.089 80.3616 121.089 83.167" fill="#4D4E5C"/>
<path d="M120.362 82.3199C120.362 84.3536 119.758 86.3416 118.628 88.0326C117.498 89.7235 115.891 91.0414 114.011 91.8197C112.131 92.5979 110.062 92.8016 108.067 92.4048C106.071 92.0081 104.238 91.0288 102.799 89.5907C101.36 88.1527 100.381 86.3205 99.9836 84.3259C99.5866 82.3313 99.7903 80.2639 100.569 78.385C101.348 76.5061 102.666 74.9002 104.358 73.7703C106.05 72.6405 108.039 72.0374 110.074 72.0374C111.425 72.0365 112.763 72.3018 114.012 72.8182C115.261 73.3346 116.395 74.0919 117.351 75.0469C118.306 76.0019 119.064 77.1359 119.581 78.3838C120.097 79.6318 120.363 80.9693 120.362 82.3199Z" fill="#EF6A00"/>
<path d="M116.569 82.3199C116.569 83.6031 116.188 84.8574 115.475 85.9243C114.762 86.9912 113.748 87.8228 112.562 88.3138C111.376 88.8049 110.07 88.9334 108.811 88.683C107.552 88.4327 106.395 87.8148 105.488 86.9075C104.58 86.0001 103.962 84.8441 103.711 83.5856C103.461 82.3271 103.589 81.0226 104.081 79.8372C104.572 78.6517 105.404 77.6384 106.471 76.9255C107.539 76.2127 108.794 75.8322 110.078 75.8322C111.799 75.8322 113.45 76.5157 114.668 77.7324C115.885 78.9491 116.569 80.5993 116.569 82.3199Z" fill="white"/>
<path d="M167.514 106.143C169.087 107.645 172.108 107.612 173.38 106.787C174.812 105.851 176.217 104.706 174.314 104.761C169.756 104.891 172.354 103.103 171.777 103.048C170.823 102.949 169.276 104.701 168.78 104.419C168.47 104.242 167.514 106.148 167.514 106.148V106.143Z" fill="#EFAEA6"/>
<path d="M80.8794 121.985C80.8794 124.077 80.2586 126.122 79.0955 127.862C77.9324 129.601 76.2792 130.957 74.3451 131.757C72.411 132.558 70.2829 132.767 68.2298 132.359C66.1767 131.95 64.291 130.942 62.8111 129.462C61.3313 127.983 60.3237 126.097 59.9159 124.045C59.5081 121.993 59.7184 119.866 60.5201 117.933C61.3219 116.001 62.6791 114.349 64.4202 113.187C66.1612 112.026 68.2078 111.406 70.3012 111.407C73.108 111.407 75.7999 112.522 77.7846 114.505C79.7693 116.489 80.8843 119.179 80.8843 121.985H80.8794Z" fill="#4D4E5C"/>
<path d="M80.1518 121.133C80.1518 123.165 79.5488 125.152 78.419 126.842C77.2892 128.532 75.6834 129.849 73.8047 130.627C71.9259 131.405 69.8586 131.608 67.8641 131.212C65.8696 130.815 64.0376 129.836 62.5996 128.399C61.1617 126.962 60.1824 125.131 59.7857 123.137C59.389 121.144 59.5926 119.078 60.3708 117.2C61.149 115.322 62.4669 113.717 64.1577 112.588C65.8485 111.459 67.8364 110.856 69.87 110.856C72.5969 110.856 75.2121 111.939 77.1404 113.866C79.0686 115.793 80.1518 118.407 80.1518 121.133Z" fill="#EF6A00"/>
<path d="M76.3589 121.133C76.3589 122.416 75.9782 123.67 75.2649 124.737C74.5517 125.804 73.5379 126.635 72.3518 127.127C71.1657 127.618 69.8605 127.746 68.6013 127.496C67.3421 127.245 66.1855 126.627 65.2777 125.72C64.3699 124.813 63.7517 123.657 63.5012 122.398C63.2507 121.14 63.3793 119.835 63.8706 118.65C64.3619 117.464 65.1939 116.451 66.2614 115.738C67.3288 115.025 68.5838 114.645 69.8677 114.645C71.5893 114.645 73.2403 115.328 74.4577 116.545C75.675 117.762 76.3589 119.412 76.3589 121.133Z" fill="white"/>
<path d="M141.811 190.003C137.565 190.003 133.352 189.998 129.172 189.989V185.057C133.348 185.057 137.561 185.057 141.811 185.057C146.57 185.057 151.268 185.061 155.907 185.07V189.997C151.272 190.006 146.574 190.01 141.811 190.009V190.003ZM156.397 189.996V185.07C165.611 185.088 174.555 185.122 183.134 185.17V189.896C174.561 189.944 165.611 189.979 156.397 189.996ZM128.682 189.996C119.539 189.975 110.586 189.93 101.945 189.873V185.128C110.586 185.099 119.539 185.081 128.682 185.071V190.002V189.996ZM183.624 189.902V185.182C193.016 185.235 201.968 185.304 210.361 185.394V189.689C201.968 189.776 193.016 189.848 183.624 189.902ZM101.455 189.87C92.1472 189.801 83.1905 189.709 74.7176 189.6V185.256C83.1905 185.202 92.1423 185.161 101.455 185.134V189.859V189.87ZM210.851 189.673V185.388L211.762 185.398C211.839 186.01 212.263 186.573 213.387 186.679C215.621 186.887 222.774 187.58 225.22 187.791C225.251 187.791 225.285 187.791 225.316 187.791C225.552 187.79 225.782 187.715 225.974 187.578C226.166 187.44 226.31 187.247 226.387 187.024C226.547 186.553 226.669 186.07 226.754 185.579C230.525 185.633 234.147 185.691 237.585 185.751V189.301C229.559 189.441 220.58 189.565 210.848 189.668L210.851 189.673ZM74.2253 189.578C64.6244 189.456 55.6457 189.307 47.49 189.144V185.472C55.6457 185.38 64.6244 185.303 74.2253 185.241V189.576V189.578ZM238.075 189.291V185.756C248.889 185.947 257.96 186.169 264.811 186.417V188.635C257.96 188.88 248.889 189.105 238.075 189.296V189.291ZM47.0001 189.137C36.6117 188.926 27.5693 188.689 20.2624 188.436V185.915C27.5693 185.745 36.6117 185.601 47.0001 185.483V189.137ZM265.301 188.618V186.439C274.249 186.768 279.274 187.138 279.274 187.528C279.274 187.919 274.253 188.288 265.301 188.618ZM19.7725 188.419C7.27507 187.981 0 187.502 0 187.043C0 186.584 7.27507 186.216 19.775 185.92V188.413" fill="#DCCDB7"/>
<path d="M20.2648 188.435L19.7749 188.418V185.925L20.2648 185.914V188.435Z" fill="#D1C3AE"/>
<path d="M47.4923 189.145L47.0024 189.135V185.481H47.4923V189.154" fill="#D1C3AE"/>
<path d="M74.7174 189.586H74.2275V185.251H74.7174V189.596" fill="#D1C3AE"/>
<path d="M101.945 189.859H101.455V185.118H101.945V189.859Z" fill="#D1C3AE"/>
<path d="M129.172 189.989H128.682V185.058H129.172V189.99" fill="#D1C3AE"/>
<path d="M155.912 189.991V185.064H156.402V189.99H155.912" fill="#D1C3AE"/>
<path d="M183.134 189.889V185.164H183.624V189.885H183.134" fill="#D1C3AE"/>
<path d="M210.361 189.674V185.38H210.851V189.664H210.361" fill="#D1C3AE"/>
<path d="M237.587 189.303V185.753L238.077 185.762V189.297L237.587 189.306" fill="#D1C3AE"/>
<path d="M264.813 188.635V186.422L265.303 186.439V188.618L264.813 188.635Z" fill="#D1C3AE"/>
<path d="M225.316 187.791C225.285 187.791 225.251 187.791 225.22 187.791C222.77 187.58 215.621 186.887 213.387 186.679C212.263 186.573 211.839 186.008 211.762 185.398C216.996 185.455 221.994 185.516 226.757 185.583C226.672 186.073 226.549 186.556 226.389 187.027C226.312 187.25 226.168 187.444 225.976 187.582C225.785 187.719 225.555 187.794 225.319 187.795" fill="#212039"/>
<path d="M79.6276 78.8838C82.4899 78.508 95.3608 71.2295 96.0785 70.9271C96.6174 70.6982 98.6407 74.5995 97.6548 75.9215C96.8428 77.0097 88.5806 83.014 80.7103 85.3557C76.9503 86.4745 66.8938 86.335 63.9311 92.2107C63.0627 93.9342 60.8018 90.2668 59.5464 86.5982C58.4613 83.4241 58.1282 80.2512 60.1037 80.5682C61.0909 80.7274 78.2228 79.0675 79.6288 78.8826" fill="#0067A5"/>
<path d="M80.5744 85.3912C83.7086 81.6332 86.67 77.4688 88.2732 75.0769C89.8924 74.2383 91.4797 73.3913 92.7975 72.6813C93.2666 73.2284 93.7406 73.7695 94.1986 74.2995C95.465 75.7623 95.9635 76.3707 96.0872 76.7943V76.8016C96.0957 76.8294 96.1027 76.8576 96.108 76.8861C96.1085 76.8906 96.1085 76.8951 96.108 76.8995C96.108 76.9216 96.108 76.9424 96.1166 76.9644C96.1217 77.0526 96.1126 77.1411 96.0896 77.2264C96.0896 77.2472 96.0774 77.268 96.0713 77.2888C93.1576 79.5093 86.8146 83.5317 80.7067 85.3483L80.5707 85.3875L80.5744 85.3912ZM69.5479 85.0974C68.8865 85.0974 67.0224 84.8073 64.7187 84.3947C64.5925 84.0405 64.444 83.6946 64.2741 83.3591C63.7465 82.2955 62.9644 81.3785 61.9973 80.6894C61.946 80.6121 61.875 80.5499 61.7915 80.5094C65.0984 80.294 72.3171 79.6207 76.5143 79.2045C73.5982 82.326 70.8633 84.937 69.7022 85.0888C69.651 85.0947 69.5995 85.0976 69.5479 85.0974Z" fill="#055A92"/>
<path d="M69.0848 182.688C69.184 180.816 68.8154 176.101 68.8154 176.101L63.5979 176.148L64.2213 183.225L67.7731 185.331L69.0861 182.688H69.0848Z" fill="white"/>
<path d="M69.4548 181.886C70.0011 181.764 69.7745 182.253 69.9803 183.039C70.4518 184.83 77.3288 184.852 78.3601 185.01C78.8953 185.091 79.7698 187.724 77.1071 187.724C74.8058 187.724 67.4315 187.75 64.9147 187.734C64.6638 187.737 64.4187 187.659 64.2169 187.51C64.0152 187.361 63.8679 187.149 63.7977 186.909C63.336 185.178 63.4486 182.49 64.1504 182.43C65.2123 182.103 67.1792 182.413 69.4548 181.886Z" fill="#1F1E38"/>
<path d="M19.8754 176.539C21.4406 175.4 24.9838 172.075 24.9838 172.075L21.5643 168.334L16.2979 173.371L16.9102 177.303L19.8803 176.539H19.8754Z" fill="white"/>
<path d="M20.7572 176.288C21.2128 176.602 20.669 176.76 20.1742 177.416C19.0425 178.917 23.481 183.904 24.0248 184.751C24.3065 185.191 22.7609 187.529 21.0364 185.608C19.5447 183.943 14.7448 178.63 13.1245 176.794C12.9592 176.612 12.8626 176.377 12.8514 176.132C12.8403 175.886 12.9152 175.644 13.0632 175.447C14.152 173.993 16.3811 172.332 16.8845 172.801C17.8337 173.355 18.8612 174.979 20.7572 176.284V176.288Z" fill="#1F1E38"/>
<path d="M53.7669 110.023C56.7063 117.89 64.9269 145.852 65.516 149.957C66.1051 154.061 69.6385 177.49 69.4352 178.858C64.3329 179.885 62.2495 179.724 62.2495 179.724C61.6604 176.304 59.9507 158.295 57.4485 152.481C54.9463 146.666 47.5279 129.606 47.5279 129.606C45.8831 137.13 45.0539 146.041 41.9296 153.953C37.0722 164.236 23.7027 174.583 23.7027 174.583C19.9733 172.359 17.6181 170.307 18.2072 170.136C21.1466 166.374 33.9099 155.43 34.4965 150.982C35.0832 146.535 33.7972 124.598 35.4984 113.777C35.6747 112.658 52.0791 110.433 52.0791 110.433L53.7669 110.023Z" fill="#3B3B4C"/>
<path d="M47.5442 129.62L47.5378 129.607L47.5442 129.621" fill="#787175"/>
<path d="M50.2372 135.21C48.7516 132.11 47.6383 129.813 47.5427 129.619L47.5366 129.606C47.9837 127.343 48.3094 124.691 48.3094 124.691C48.3094 124.691 49.931 131.342 50.236 135.209" fill="#2B2B41"/>
<path d="M34.6387 126.541C34.6962 123.589 34.8101 120.718 35.0159 118.141C34.8101 120.712 34.6962 123.589 34.6387 126.541Z" fill="#B3A69D"/>
<path d="M34.603 129.021C34.6104 128.191 34.6226 127.362 34.6386 126.54C34.6961 123.588 34.81 120.716 35.0158 118.14C35.5046 118.23 36.0007 118.274 36.4977 118.273C38.9754 118.273 41.4139 117.252 42.8836 116.426C43.2587 116.23 43.6012 115.977 43.8989 115.677C42.0447 121.659 36.6067 127.437 34.6006 129.02" fill="#333346"/>
<path d="M56.2862 85.2627L61.7878 85.565C61.7878 85.565 64.1773 82.6272 63.0407 81.9001C62.1761 81.3443 61.6335 80.3724 61.3053 79.3955C61.0104 78.5194 60.8602 77.6012 60.8607 76.6768C60.8766 76.2814 60.9599 76.11 61.0187 76.0378C61.0336 76.016 61.0538 75.9983 61.0775 75.9864L61.0125 75.9766L58.6488 75.5788L58.5006 75.3841L57.2599 73.7451C56.5309 74.8096 56.1019 76.0505 56.018 77.3378C55.9016 79.2694 55.9861 83.1658 56.2862 85.2627Z" fill="#EFAEA6"/>
<path d="M61.0127 75.9766L58.6489 75.5787L58.5007 75.3841C58.6881 75.1944 58.8351 75.0707 58.8351 75.0707C59.1538 74.9342 59.4953 74.8586 59.8418 74.848C60.3611 74.848 60.9086 75.0732 61.0127 75.9766Z" fill="#CFC0B0"/>
<path d="M59.9006 79.7799C58.1994 79.7799 57.358 77.8641 57.7401 76.4956C57.8516 76.099 58.2214 75.6669 58.5007 75.3841L58.6489 75.5787L61.0127 75.9766C61.0127 75.9961 61.0127 76.017 61.0127 76.0378C60.9539 76.11 60.8706 76.2826 60.8547 76.6768C60.8547 76.7208 60.8547 76.7686 60.8547 76.82C60.8742 77.6944 61.0249 78.5609 61.3017 79.3906C60.8712 79.6298 60.3893 79.7616 59.8969 79.775" fill="#D19997"/>
<path d="M63.7119 70.282C63.9054 71.7363 65.6593 74.3926 64.6451 74.4807C63.631 74.5689 65.0554 77.552 63.9789 77.683C61.3689 78.0025 58.2862 76.6596 57.8906 75.4576C57.495 74.2555 57.5158 70.806 57.5158 70.806L63.7119 70.2882V70.282Z" fill="#EFAEA6"/>
<path d="M61.0835 71.9321C61.9126 71.9517 61.9469 72.1402 62.5115 71.8097C63.0761 71.4792 62.0425 70.7986 63.1117 70.5269C64.1809 70.2551 65.3603 70.0862 65.4167 68.8731C65.4975 67.1165 63.9298 67.5266 62.9671 67.8204C62.345 68.0064 62.127 66.6868 60.8728 66.857C59.893 66.9904 60.0314 67.5425 59.1581 67.6992C58.6303 67.7934 57.5549 67.0345 56.7576 67.7322C55.2769 69.0249 56.6229 70.3298 55.4104 71.6775C53.9884 73.2505 57.5807 76.0084 57.9628 75.602C58.4086 75.1271 57.6517 73.6985 58.1073 73.3056C58.7944 72.7156 58.9107 73.3056 59.5329 73.7952C60.198 74.324 61.3762 74.2531 60.5678 73.1832C59.7595 72.1133 60.3437 71.904 61.0933 71.9223L61.0835 71.9321Z" fill="#1C1B39"/>
<path d="M56.1331 78.3085C58.1221 78.3502 58.492 81.6381 59.9556 82.1914C60.8435 82.5256 60.6806 80.8755 61.2318 80.5878C61.5723 80.4091 61.9666 80.3601 62.1687 81.0567C65.5246 92.4568 53.4607 115.859 53.4607 115.859C53.4607 115.859 49.3884 118.198 40.0888 113.574C34.8664 110.975 39.4482 107.998 40.0055 106.781C40.5628 105.564 50.9634 81.7042 50.9634 81.7042C50.9634 81.7042 52.6511 79.9341 56.1331 78.3085Z" fill="white"/>
<path d="M32.3031 113.009L32.0177 113.189C32.1084 113.138 32.2027 113.077 32.3031 113.009ZM33.2315 112.282C34.2958 111.346 35.4642 109.985 36.1513 108.587C38.2334 104.366 36.8629 104.302 38.5175 101.242C43.5697 90.3255 42.4184 82.3015 56.0597 78.3244C55.9152 80.6404 56.3316 86.9409 55.7487 92.1103C55.5037 94.2476 55.0934 96.1914 54.4014 97.582C54.3904 97.6028 54.3806 97.6261 54.3708 97.6469C52.9684 100.757 49.5575 104.088 47.7461 106.482C47.1151 107.334 46.5457 108.229 46.0424 109.162C45.8355 109.546 45.6407 109.923 45.4631 110.291C43.5782 114.208 45.4742 114.967 42.8911 116.421C40.1722 117.955 34.1464 120.141 30.6803 115.334C29.9626 114.338 31.8634 113.039 33.2315 112.282Z" fill="#0067A5"/>
<path d="M64.2924 95.7067C63.5575 97.2846 61.1692 99.466 60.3842 101.617C59.4166 104.278 59.2439 106.023 59.0516 107.102C58.6156 109.55 56.8324 116.835 55.2157 118.866C53.4851 121.037 52.6571 120.218 51.8304 118.866C50.4146 116.551 53.4496 107.999 56.0718 101.922C58.5666 96.1364 61.1619 93.0394 61.9874 87.8847C62.3595 85.4846 62.3438 83.0404 61.9408 80.6453C67.6555 84.5955 64.7014 94.8205 64.2924 95.7018" fill="#0067A5"/>
<path d="M53.3639 120.207C52.7516 120.207 52.2898 119.622 51.8305 118.872C51.5856 118.465 51.4705 117.866 51.4705 117.12C51.4705 113.628 53.9102 106.937 56.0719 101.928C57.7865 97.9627 59.5392 95.2599 60.7407 92.2927C62.203 92.5375 63.6593 92.7823 65.0163 92.9684C64.7432 94.4128 64.4039 95.4533 64.2925 95.7079C63.5919 97.216 61.38 99.2725 60.4957 101.329C60.4553 101.426 60.4161 101.522 60.3806 101.619C59.413 104.28 59.2403 106.026 59.048 107.104C58.612 109.553 56.8288 116.837 55.2121 118.868C54.4429 119.833 53.8514 120.207 53.3603 120.207H53.3639ZM64.7223 84.4009C63.9373 84.2613 63.102 84.1059 62.2447 83.9443C62.2312 82.8402 62.1284 81.739 61.9372 80.6514C62.9347 81.343 63.741 82.2752 64.2814 83.3616C64.4514 83.6971 64.5998 84.043 64.726 84.3972" fill="#055A92"/>
<path d="M46.0374 109.167C44.7184 106.017 47.5806 97.0484 50.0118 90.2191C51.0393 90.4345 52.6695 90.7724 54.5899 91.1506L55.7485 92.1115C55.5036 94.2488 55.0933 96.1927 54.4013 97.5833C54.3903 97.6041 54.3805 97.6274 54.3707 97.6482C52.9683 100.759 49.5574 104.089 47.746 106.484C47.1149 107.335 46.5456 108.231 46.0423 109.163" fill="#055A92"/>
<path d="M101.58 73.8626L102.176 74.7072L102.665 75.4184C103.043 75.957 103.388 76.452 103.7 76.9032C104.19 77.6181 106.113 79.9317 106.472 80.4532C107.72 82.2526 108.212 82.9234 108.455 82.9234C108.853 82.9234 110.816 82.0053 110.974 81.135C111.058 80.6833 108.824 77.8299 107.854 76.5421C107.436 75.9876 106.973 75.4086 106.515 74.8529C106.378 74.6864 106.242 74.5211 106.106 74.3632C105.814 74.0144 105.53 73.6802 105.266 73.3741C104.416 72.3875 103.776 71.6849 103.776 71.6849L101.572 73.8724" fill="#4D4E5C"/>
<path d="M88.6542 65.4897C88.871 68.359 91.7614 71.4792 94.1987 74.3033C95.4651 75.7661 95.9636 76.3744 96.0873 76.798V76.8053C96.0958 76.8331 96.1028 76.8613 96.1081 76.8898C96.1136 76.9156 96.1173 76.9418 96.1191 76.9681C96.1242 77.0563 96.1151 77.1448 96.0922 77.2301C96.0861 77.2533 96.0787 77.2766 96.0726 77.2999C96.0665 77.3231 96.0469 77.3758 96.031 77.4162C96.031 77.4321 96.0187 77.4468 96.0126 77.4627C96.0065 77.4786 95.9869 77.5275 95.9722 77.5618C95.9575 77.5961 95.9416 77.6414 95.9232 77.6842L95.9134 77.7112C95.9036 77.7332 95.895 77.7565 95.8864 77.7809C95.8779 77.8054 95.857 77.8519 95.8436 77.8899C95.8301 77.9278 95.8154 77.967 95.8019 78.0123C95.7961 78.0262 95.7912 78.0406 95.7872 78.0551C95.7627 78.1249 95.7395 78.202 95.7174 78.2816C95.7003 78.3404 95.6831 78.404 95.6684 78.4689C95.5831 78.8225 95.5253 79.1823 95.4957 79.5449C95.4957 79.5853 95.4896 79.6269 95.4859 79.6673C95.4823 79.7077 95.4786 79.7517 95.4761 79.7958C95.4737 79.8399 95.4761 79.8558 95.4761 79.884C95.4761 79.9121 95.4761 79.9439 95.4761 79.9721C95.4772 80.0001 95.4809 80.028 95.4872 80.0553C95.4911 80.0813 95.4964 80.107 95.5031 80.1324C95.5104 80.1557 95.5166 80.1777 95.5251 80.1998V80.2083L95.5472 80.2549C95.5798 80.321 95.6262 80.3794 95.6831 80.4262C95.6956 80.4389 95.7096 80.45 95.7248 80.4593L95.7468 80.4752L95.7872 80.4972C95.7974 80.5042 95.8085 80.5095 95.8203 80.5131C95.8319 80.5201 95.8442 80.5258 95.857 80.5303C95.9075 80.551 95.9601 80.5662 96.0138 80.5756C96.1471 80.6002 96.283 80.6063 96.418 80.5939C96.4682 80.5939 96.5172 80.5866 96.5674 80.578C96.6176 80.5694 96.6727 80.5646 96.7278 80.5535C96.783 80.5425 96.8381 80.5327 96.8969 80.5205C97.012 80.496 97.132 80.4629 97.2643 80.4238C97.328 80.4066 97.3929 80.3858 97.459 80.3638C97.5913 80.321 97.7273 80.272 97.8693 80.2157C97.9404 80.1887 98.0126 80.1606 98.0861 80.13L98.309 80.0357C98.3837 80.0039 98.4609 79.9696 98.538 79.9341C98.5711 79.9219 98.6042 79.906 98.6385 79.8901L98.7744 79.8276L99.0194 79.7126C99.1835 79.633 99.3488 79.5498 99.5191 79.4604L99.775 79.3258L99.9453 79.2352L100.036 79.185C100.124 79.1372 100.212 79.0895 100.302 79.0381L100.571 78.8875C100.752 78.7847 100.934 78.6778 101.119 78.5668C101.958 78.0686 102.833 77.5055 103.708 76.9069C104.038 76.6805 104.369 76.4503 104.695 76.2153L105.266 75.8028C105.693 75.4894 106.114 75.1699 106.522 74.8517L106.628 74.7696C106.77 74.6582 106.909 74.5493 107.046 74.4379C107.091 74.4024 107.135 74.3694 107.177 74.3339L107.309 74.2274C107.42 74.1368 107.531 74.0462 107.64 73.9556C107.694 73.9115 107.748 73.8675 107.801 73.8222L107.939 73.7071C109.378 72.4989 110.546 71.3568 111.147 70.5036C112.066 69.1975 112.241 68.6675 111.915 68.3455C111.86 68.2931 111.799 68.2475 111.734 68.2097L111.677 68.1791C111.621 68.1485 111.555 68.1191 111.489 68.0897C111.443 68.0701 111.394 68.0505 111.343 68.0309L111.185 67.9722L111.013 67.9122L110.827 67.8473L110.631 67.7776C110.427 67.7041 110.209 67.6221 109.974 67.5217C109.84 67.4637 109.711 67.3936 109.59 67.3124C107.534 65.9708 103.922 60.6104 101.105 57.533C100.832 57.2313 100.498 56.9906 100.125 56.8267C96.805 55.3578 90.9862 60.3558 89.3119 62.9081C88.9676 63.4255 88.7487 64.016 88.6726 64.6328C88.637 64.917 88.6304 65.2042 88.653 65.4897" fill="#F7A418"/>
<path d="M96.3958 80.5927H96.4227C96.4729 80.5927 96.5219 80.5853 96.5721 80.5768C96.6223 80.5682 96.6774 80.5633 96.7326 80.5523C96.7877 80.5413 96.8428 80.5315 96.9016 80.5192C96.8428 80.5315 96.7877 80.5437 96.7326 80.5523C96.6774 80.5608 96.6236 80.5706 96.5721 80.5768C96.5207 80.5829 96.4729 80.589 96.4227 80.5927H96.3958Z" fill="#DEB18E"/>
<path d="M95.8447 77.8899C95.868 77.8262 95.8913 77.7675 95.9145 77.7112C95.9047 77.7332 95.8962 77.7564 95.8876 77.7809C95.879 77.8054 95.8582 77.8519 95.8447 77.8899ZM95.9243 77.6842C95.9415 77.6414 95.9586 77.601 95.9733 77.5618C95.9586 77.601 95.9427 77.6414 95.9243 77.6842ZM96.0137 77.4627C96.0137 77.4455 96.0272 77.4321 96.0321 77.4161C96.0321 77.4321 96.0199 77.4467 96.0137 77.4627Z" fill="#DEB18E"/>
<path d="M96.1116 76.9002C96.1121 76.8955 96.1121 76.8908 96.1116 76.8861C96.1121 76.8908 96.1121 76.8955 96.1116 76.9002Z" fill="#3C546B"/>
<path d="M111.914 68.3418C111.859 68.2895 111.798 68.2438 111.732 68.206C111.798 68.2434 111.859 68.2891 111.914 68.3418ZM111.676 68.1754C111.62 68.1448 111.554 68.1154 111.487 68.086C111.552 68.1119 111.615 68.1417 111.676 68.1754ZM111.186 67.9685L111.015 67.9085C111.073 67.9293 111.137 67.9477 111.186 67.9685Z" fill="#DEB18E"/>
<path d="M96.2819 80.5964C96.1936 80.5969 96.1054 80.5887 96.0186 80.5719C95.9649 80.5625 95.9123 80.5473 95.8619 80.5266C95.8491 80.5222 95.8368 80.5164 95.8251 80.5095C95.8134 80.5059 95.8022 80.5005 95.792 80.4936L95.7516 80.4715L95.7296 80.4556C95.7144 80.4464 95.7004 80.4352 95.6879 80.4226C95.631 80.3757 95.5846 80.3173 95.552 80.2512L95.5299 80.2047V80.1961C95.5214 80.1741 95.5152 80.152 95.5079 80.1288C95.5012 80.1034 95.4959 80.0776 95.492 80.0517C95.4857 80.0243 95.4821 79.9964 95.481 79.9684C95.481 79.9399 95.481 79.9105 95.481 79.8803C95.481 79.8521 95.481 79.824 95.481 79.7921C95.481 79.7603 95.481 79.7052 95.4907 79.6636C95.5005 79.622 95.4969 79.5791 95.5005 79.5412C95.5302 79.1786 95.5879 78.8189 95.6732 78.4652C95.6879 78.3991 95.7051 78.3367 95.7222 78.2779C95.7443 78.1984 95.7675 78.1212 95.792 78.0515C95.796 78.0369 95.8009 78.0226 95.8067 78.0086C95.8202 77.9695 95.8337 77.9303 95.8484 77.8862C95.8619 77.8483 95.8766 77.8128 95.8912 77.7773C95.9059 77.7418 95.9084 77.7295 95.9182 77.7075L95.928 77.6806C95.9464 77.6377 95.9623 77.5973 95.977 77.5582C95.9917 77.5239 96.0051 77.4908 96.0174 77.459C96.0174 77.4431 96.0309 77.4284 96.0358 77.4125C96.0517 77.3721 96.0639 77.3329 96.0774 77.2962C96.0909 77.2595 96.0909 77.2497 96.097 77.2264C96.1205 77.1412 96.1296 77.0527 96.124 76.9645C96.1228 76.9426 96.12 76.9209 96.1154 76.8996C96.1159 76.8951 96.1159 76.8906 96.1154 76.8861C96.1115 76.8573 96.1045 76.829 96.0946 76.8017V76.7943C97.737 76.7723 100.217 76.3255 101.867 75.7844C102.148 75.6877 102.42 75.5648 102.679 75.4172C103.053 75.2019 103.413 74.961 103.754 74.6962C104.289 74.2834 104.798 73.8382 105.279 73.3631C107.028 71.6421 108.754 69.3236 109.596 67.3075C109.717 67.3887 109.846 67.4588 109.98 67.5168C110.215 67.6172 110.433 67.6992 110.637 67.7727L110.833 67.8424L111.019 67.9073L111.191 67.9673L111.349 68.026C111.4 68.0456 111.449 68.0652 111.495 68.0848C111.563 68.1142 111.627 68.1436 111.683 68.1742L111.74 68.2048C111.805 68.2426 111.866 68.2882 111.921 68.3406C111.97 68.388 112.009 68.4451 112.035 68.5083C112.061 68.5716 112.073 68.6395 112.072 68.7079C112.072 69.0567 111.791 69.588 111.153 70.4963C110.552 71.3532 109.384 72.4916 107.945 73.6998L107.807 73.8148C107.754 73.8601 107.7 73.9042 107.646 73.9483C107.537 74.0388 107.426 74.1294 107.315 74.22L107.044 74.4342C106.907 74.5456 106.767 74.6546 106.625 74.766L106.52 74.8468C106.112 75.165 105.691 75.4845 105.263 75.7979L104.692 76.2104C104.367 76.4454 104.036 76.6756 103.705 76.902C102.832 77.5006 101.955 78.0637 101.116 78.5619C100.932 78.6709 100.749 78.7786 100.569 78.8826L100.342 79.005L100.299 79.0283C100.21 79.0797 100.122 79.1275 100.033 79.1752L100.02 79.1825L99.9832 79.2021L99.7725 79.316L99.5165 79.4506C99.3463 79.5388 99.1809 79.622 99.0168 79.7028L98.7719 79.8178L98.5355 79.9243C98.4583 79.9598 98.3812 79.9941 98.3065 80.0259L98.0836 80.1202C98.0101 80.1508 97.9378 80.179 97.8668 80.2059C97.7259 80.2597 97.5888 80.3099 97.4565 80.354C97.3903 80.376 97.3254 80.3968 97.2618 80.414C97.1393 80.4519 97.0168 80.4838 96.8943 80.5107C96.8355 80.5229 96.7804 80.5352 96.7253 80.5437C96.6702 80.5523 96.6163 80.5621 96.5649 80.5682C96.5134 80.5743 96.4657 80.5805 96.4154 80.5841H96.3885H96.2746" fill="#E78A13"/>
<path d="M99.999 79.1997L100.021 79.1874L100.035 79.1801L99.999 79.1997Z" fill="#DEB18E"/>
<path d="M109.054 83.1045C108.778 83.1045 108.564 83.0433 108.461 82.9197C108.859 82.9197 110.822 82.0016 110.98 81.1313C111.49 82.4252 109.971 83.1058 109.054 83.1058" fill="#9697A0"/>
<path d="M108.461 82.9185C108.109 82.4607 110.98 81.1301 110.98 81.1301C110.822 82.0004 108.859 82.9185 108.461 82.9185Z" fill="#4D4E5C"/>
<path d="M88.6541 65.4897C88.6455 65.3771 88.6406 65.2645 88.6406 65.1519C88.6404 64.9784 88.651 64.805 88.6725 64.6328C88.7513 64.0196 88.9714 63.4329 89.3155 62.9191C90.7852 60.6839 95.4258 56.5721 98.7877 56.5721C99.2484 56.5658 99.7053 56.6563 100.129 56.8377C99.1417 59.5969 95.7197 63.6927 91.16 65.0576C90.3445 65.3026 89.503 65.4505 88.6529 65.4983" fill="#FAC76D"/>
<path d="M100.57 78.8838C100.75 78.7798 100.937 78.6721 101.117 78.5631C100.933 78.6749 100.75 78.7818 100.57 78.8838Z" fill="#E78A13"/>
<path d="M99.9036 79.2525L99.9847 79.2082L99.9994 79.2009L99.9441 79.2316L99.9036 79.2525Z" fill="#E78A13"/>
<path d="M99.9844 79.2083L100.021 79.1887L99.9991 79.201L99.9844 79.2083Z" fill="#DA770F"/>
<path d="M100.021 79.1889L100.035 79.1813L100.021 79.1889Z" fill="#D49269"/>
<path d="M99.0181 79.7089C99.1822 79.6281 99.3475 79.5449 99.5178 79.4567C99.3475 79.5461 99.1822 79.6293 99.0181 79.7089Z" fill="#E78A13"/>
<path d="M98.5403 79.9346L98.7775 79.8276L98.6411 79.8904C98.6067 79.9064 98.5735 79.9223 98.5403 79.9346Z" fill="#E78A13"/>
<path d="M96.9041 80.5168C97.0192 80.4899 97.1392 80.4581 97.2715 80.4201C97.149 80.4593 97.0265 80.4923 96.9041 80.5168Z" fill="#E78A13"/>
<path d="M96.0871 76.7943C95.9646 76.3708 95.4649 75.7624 94.1985 74.2996C91.7613 71.4841 88.8708 68.359 88.6541 65.486C89.5042 65.4383 90.3457 65.2904 91.1611 65.0453C93.2824 69.5672 96.2157 74.3486 102.175 74.7036C102.403 74.717 102.636 74.7231 102.875 74.7231C103.158 74.7231 103.449 74.7146 103.747 74.6938C103.405 74.9586 103.046 75.1995 102.671 75.4148C102.413 75.5623 102.141 75.6853 101.859 75.782C100.21 76.323 97.7295 76.7698 96.0871 76.7919" fill="#DB780F"/>
<path d="M104.456 63.607C104.097 63.2251 103.714 62.7832 103.245 62.3596C103.001 62.1376 102.74 61.935 102.465 61.7537C102.164 61.5554 101.842 61.3912 101.504 61.2641C100.787 60.9929 99.9992 60.9714 99.268 61.2028C98.8952 61.321 98.5432 61.4965 98.2245 61.7231C98.0752 61.8264 97.9351 61.9423 97.8056 62.0695C97.7165 62.1608 97.6463 62.2688 97.5989 62.3872C97.5516 62.5056 97.528 62.6322 97.5296 62.7598C97.5312 62.8873 97.5579 63.0133 97.6082 63.1305C97.6585 63.2477 97.7314 63.3539 97.8228 63.443C97.9141 63.532 98.0222 63.6022 98.1407 63.6495C98.2592 63.6969 98.3858 63.7204 98.5134 63.7188C98.641 63.7172 98.7671 63.6905 98.8844 63.6403C99.0016 63.59 99.1079 63.5171 99.197 63.4258L98.8381 63.0855L99.1835 63.4393L99.1921 63.4307L98.8381 63.0855L99.1835 63.4393C99.2954 63.3404 99.4187 63.2554 99.5509 63.1859C99.6585 63.1288 99.7718 63.0832 99.889 63.05C100.017 63.0148 100.149 62.9966 100.282 62.9962C100.465 62.9971 100.645 63.0307 100.816 63.0953C101.018 63.1711 101.211 63.2692 101.392 63.3879C101.682 63.5832 101.952 63.8084 102.195 64.0599C102.462 64.3255 102.732 64.6279 103.023 64.94C103.109 65.0365 103.214 65.1147 103.331 65.1701C103.448 65.2255 103.575 65.257 103.705 65.2627C103.834 65.2684 103.963 65.2482 104.085 65.2033C104.206 65.1584 104.318 65.0897 104.412 65.0012C104.507 64.9127 104.583 64.8063 104.635 64.6881C104.688 64.5699 104.717 64.4424 104.72 64.3129C104.723 64.1835 104.7 64.0548 104.652 63.9345C104.604 63.8141 104.533 63.7044 104.443 63.6119L104.456 63.607Z" fill="white"/>
<path d="M106.991 66.9121C106.883 66.75 106.767 66.5935 106.643 66.4433C106.552 66.3294 106.487 66.2511 106.38 66.0969C106.31 65.9876 106.218 65.8937 106.11 65.8206C106.003 65.7475 105.882 65.6967 105.754 65.6712C105.627 65.6458 105.495 65.6462 105.368 65.6725C105.24 65.6987 105.12 65.7503 105.013 65.8241C104.906 65.8979 104.814 65.9924 104.745 66.1021C104.675 66.2117 104.628 66.3343 104.606 66.4625C104.585 66.5907 104.589 66.7219 104.619 66.8483C104.649 66.9748 104.705 67.0939 104.782 67.1986C104.925 67.4079 105.044 67.5535 105.131 67.6613C105.218 67.769 105.275 67.8412 105.376 67.9869C105.519 68.2011 105.741 68.3499 105.994 68.4004C106.246 68.4509 106.509 68.399 106.723 68.2562C106.937 68.1133 107.086 67.8912 107.137 67.6387C107.187 67.3862 107.135 67.1239 106.992 66.9097L106.991 66.9121Z" fill="white"/>
<path d="M86.3969 74.6129C87.3326 73.6018 87.5372 74.6546 88.2194 72.9873C89.1722 70.6615 90.6689 70.8819 91.7712 69.8353C92.7253 68.9343 94.5391 66.7346 93.9402 64.9756C93.3781 63.3206 91.0216 64.8409 90.1165 65.2963C89.3939 65.6635 89.1147 64.2374 87.8789 64.2105C86.6431 64.1836 88.0504 66.6073 86.6541 68.1754C85.4367 69.539 84.8807 72.319 84.5794 73.0424C84.2781 73.7659 86.3969 74.6129 86.3969 74.6129Z" fill="#EFAEA6"/>
<path d="M69.7095 85.0925C72.6281 84.7081 85.5235 68.7519 86.1788 68.288C86.6687 67.9403 90.2413 71.593 89.4856 73.1574C88.8684 74.4403 76.4689 92.7872 71.2073 93.4176C67.0125 93.9244 48.8494 89.9718 48.8494 89.9718C48.8494 89.9718 47.1996 80.5278 51.1335 81.6478C52.4061 82.0151 68.2728 85.2785 69.7095 85.09" fill="#0067A5"/>
<path d="M48.5102 86.3301C47.4948 86.0338 46.4281 85.6788 45.2217 85.2822C46.4464 83.7423 45.8671 84.407 47.4164 82.7753C47.8623 83.0201 48.3093 83.2649 48.7453 83.495C48.5445 84.3384 48.4918 85.3544 48.5102 86.3301Z" fill="#055A92"/>
<path d="M59.3627 83.3836L58.4956 83.211L58.6291 83.1339C59.119 82.8499 59.3187 82.3187 59.7877 82.3187C59.8226 82.3192 59.8574 82.322 59.8918 82.3272C60.5593 82.4301 59.8367 83.3408 59.5612 83.3408C59.5497 83.3413 59.5383 83.3395 59.5276 83.3355C59.5168 83.3315 59.507 83.3254 59.4987 83.3175C59.494 83.3156 59.4887 83.3156 59.484 83.3175C59.4376 83.3299 59.3953 83.3544 59.3615 83.3885" fill="#D7D8DB"/>
<path d="M52.7418 87.1723C52.5169 87.1724 52.2922 87.1573 52.0694 87.127C50.8648 86.9502 49.6751 86.6839 48.5102 86.3301C48.4919 85.3508 48.5445 84.3385 48.7454 83.4951C50.1135 84.2222 51.3835 84.8257 52.258 84.9003C52.4711 84.9175 52.6818 84.926 52.8924 84.926C53.5158 84.9236 54.1371 84.8538 54.7455 84.7179C56.1785 84.4046 57.4743 83.7876 58.4957 83.2111L59.3628 83.3837C58.7921 83.839 56.6059 86.3631 54.2899 86.9617C53.785 87.0977 53.2647 87.1684 52.7418 87.1723Z" fill="#055A92"/>
<path d="M60.77 82.5782C60.7898 82.4548 60.7842 82.3286 60.7534 82.2075C60.7227 82.0863 60.6675 81.9727 60.5912 81.8736C60.5149 81.7746 60.4192 81.6922 60.3099 81.6315C60.2006 81.5707 60.08 81.533 59.9555 81.5206C59.4069 81.4361 59.3199 81.643 58.7896 81.9539C57.1974 82.8708 54.8801 83.9272 52.4208 83.7191C49.9615 83.511 45.0723 79.2743 41.3576 79.3539C37.6429 79.4335 35.9307 82.4142 30.6214 82.233C25.312 82.0518 20.1999 78.7945 18.6297 78.759C17.0596 78.7235 16.0749 78.8814 15.9965 79.4861C15.9181 80.0908 16.4791 81.2366 17.4662 81.8719C18.4534 82.5072 27.726 84.9774 30.2735 85.128C34.4316 85.3728 38.6288 82.3982 41.2841 82.6798C43.9394 82.9613 49.1422 85.5246 52.2359 85.9506C55.686 86.4268 59.2391 82.9956 59.435 83.189C59.631 83.3824 59.8098 83.5697 60.2691 83.5452C60.5851 83.5281 60.7308 82.9332 60.7761 82.5831L60.77 82.5782Z" fill="#F4AD02"/>
<path d="M150.872 136.51C151.921 141.684 152.332 146.155 151.42 150.231C150.509 154.307 144.368 179.035 144.807 179.756C145.245 180.477 146.934 183.534 147.288 184.304C147.642 185.074 139.161 181.956 139.195 180.397C139.229 178.837 139.704 179.645 140.635 177.336C141.566 175.028 142.679 166.716 142.826 164.973C142.973 163.23 142.684 145.973 143.271 144.061C143.858 142.149 150.877 136.505 150.877 136.505" fill="#F6B2B5"/>
<path d="M139.99 177.299C140.087 177.235 140.202 177.203 140.318 177.21C140.435 177.217 140.545 177.261 140.634 177.336C141.492 178.078 141.87 178.943 141.956 179.295C142.117 179.959 142.121 181.069 143.658 182.267C145.195 183.465 146.888 183.43 147.395 183.994C147.902 184.558 150.785 186.704 149.777 187.666C148.715 188.478 145.165 187.45 144.021 186.363C142.877 185.276 139.995 182.429 139.919 182.61C139.56 183.015 139.361 182.855 139.361 182.855C138.47 181.998 137.156 180.968 137.076 180.591C136.997 180.214 137.61 179.046 138.237 178.536C138.678 178.177 139.522 177.607 139.986 177.299H139.99Z" fill="#1F1D38"/>
<path d="M153.376 139.163C153.414 139.926 154.022 143.916 154.794 148.711C155.025 150.153 155.272 151.669 155.528 153.19C156.682 160.19 157.917 167.338 158.159 168.228C158.631 169.954 160.486 178.346 160.388 180.897C160.29 183.448 159.531 182.842 160.054 184.354C160.577 185.866 171.508 184.278 170.884 183.662C170.261 183.047 166.047 182.284 165.362 181.745C164.898 181.378 163.723 164.702 162.846 152.708C162.724 151.099 162.616 149.574 162.511 148.179C162.247 144.676 162.034 142.031 161.907 141.055C161.359 136.81 159.516 137.959 155.989 137.973C155.989 137.973 153.281 137.116 153.381 139.159" fill="#F6B2B5"/>
<path d="M159.609 182.722C159.642 182.605 159.712 182.502 159.808 182.428C159.904 182.353 160.022 182.312 160.143 182.31C161.33 182.289 162.218 182.7 162.523 182.91C163.106 183.31 163.87 184.161 165.901 184.031C167.932 183.901 169.318 183.11 170.104 183.197C170.891 183.284 174.277 183.915 174.146 185.346C173.863 186.692 170.76 187.48 169.116 187.427C167.472 187.373 163.131 186.663 163.194 186.854C163.194 187.411 162.922 187.427 162.922 187.427C161.63 187.373 159.895 187.483 159.571 187.25C159.248 187.018 158.934 185.694 159.081 184.873C159.183 184.295 159.459 183.282 159.614 182.725L159.609 182.722Z" fill="#1F1D38"/>
<path d="M150.759 153.048C150.852 152.657 150.939 152.292 151.018 151.959C150.948 152.253 150.863 152.606 150.757 153.048" fill="#EDDCC3"/>
<path d="M150.713 153.242C148.927 152.964 145.296 153.109 142.895 152.155C142.895 151.703 142.904 151.257 142.91 150.821C145.305 151.413 148.602 151.941 151.018 151.959C150.939 152.292 150.852 152.657 150.759 153.047L150.713 153.242Z" fill="#F6B2B5"/>
<path d="M155.444 152.708C155.346 152.11 155.256 151.565 155.169 151.033L155.444 152.708Z" fill="#EDDCC3"/>
<path d="M155.467 152.846C155.458 152.799 155.451 152.754 155.444 152.708L155.169 151.033C156.415 150.512 157.801 149.959 159.606 149.959C160.647 149.968 161.682 150.133 162.675 150.449C162.729 151.178 162.784 151.93 162.841 152.705C161.617 152.517 160.16 152.308 158.732 152.308C157.577 152.308 156.441 152.445 155.467 152.842" fill="#F6B2B5"/>
<path d="M128.279 147.818C129.58 149.41 132.498 149.389 135.229 149.363C137.202 149.345 139.079 149.325 140.177 149.917C140.596 150.144 141.326 150.396 142.241 150.652C145.452 151.527 150.937 152.355 153.199 151.767C156.102 151.011 158.955 148.07 165.911 151.855C167.646 145.481 163.297 117.441 160.154 110.086C160.013 109.745 159.849 109.413 159.665 109.094C159.665 109.094 151.918 104.53 145.172 107.983C143.954 108.613 142.853 109.445 141.915 110.445C141.899 110.471 141.882 110.496 141.868 110.522C134.948 121.586 140.441 133.183 128.281 147.824" fill="#0067A6"/>
<path d="M168.725 103C169.131 103.442 168.093 107.226 167.521 107.254C167.185 107.271 164.019 106.251 158.933 104.608C159.679 106.901 160.3 109.091 160.158 110.08C160.146 110.234 160.088 110.381 159.993 110.502C159.324 111.247 152.625 111.856 147.554 111.784C144.115 111.734 141.43 111.369 141.869 110.516C141.885 110.49 141.902 110.465 141.918 110.438C143.265 108.571 144.16 105.945 144.446 103.02C144.592 101.745 144.67 100.464 144.68 99.182C143.659 98.614 143.004 98.0999 142.874 97.6714C141.386 92.7836 140.087 86.8161 141.269 85.2982C142.328 83.9357 146.367 80.8706 147.882 80.7433C149.397 80.616 152.536 81.0775 152.536 81.0775C156.483 82.2893 163.989 80.1459 165.126 78.5068C166.262 76.8678 173.51 68.266 173.637 67.2451C173.763 66.2242 178.097 68.7948 178.097 68.7948C178.097 68.7948 168.99 81.8927 167.35 83.2747C165.71 84.6567 159.439 86.2395 156.86 86.9274C156.843 86.9311 156.827 86.9396 156.815 86.9519C156.57 87.1735 157.472 88.6069 158.393 90.1346C159.304 91.6439 159.925 92.9819 159.802 93.5927C159.549 94.8548 156.843 95.8732 156.775 97.5098C156.761 97.8501 156.942 98.5564 157.224 99.4684C159.573 100.216 161.887 100.83 162.927 101.182C163.54 101.39 168.306 102.535 168.725 102.991" fill="white"/>
<path d="M151.361 77.7381C150.787 80.3699 150.927 81.7348 151.361 82.4766C151.794 83.2184 152.268 84.9995 151.422 84.9676C151.004 84.9505 148.536 83.8549 147.637 83.2086C146.738 82.5623 146.201 81.3063 146.201 81.3063C146.201 81.3063 148.132 77.9621 149.46 75.165C150.787 72.3679 151.361 77.7356 151.361 77.7356" fill="#F6B2B5"/>
<path d="M151.004 80.2205L150.993 80.2144C151.05 79.3805 151.173 78.5525 151.361 77.738C151.331 77.9021 151.15 78.9009 151.128 79.0515C151.063 79.4848 151.023 79.8717 151.005 80.2205" fill="#B3A69D"/>
<path d="M150.993 80.2144C150.164 79.7689 149.424 78.7945 149.319 78.5399C149.084 77.9719 149.51 77.0636 149.838 77.0636C149.867 77.0643 149.896 77.0719 149.922 77.0857C149.948 77.0995 149.971 77.1192 149.987 77.1432C150.18 77.377 150.6 77.3305 150.808 77.3672C150.958 77.3953 151.213 77.5985 151.36 77.7344C151.173 78.5489 151.05 79.3769 150.993 80.2108" fill="#B98892"/>
<path d="M154.832 98.6972C152.663 97.7314 148.435 95.577 148.109 95.0396C147.783 94.5022 147.212 93.6845 147.902 90.7626C148.186 94.3051 148.981 95.0335 154.832 98.6972Z" fill="#C2C2C9"/>
<path d="M144.662 100.11C144.662 99.8503 144.662 99.5516 144.676 99.2052C144.676 99.5137 144.676 99.8173 144.662 100.11Z" fill="#B3A69D"/>
<path d="M157.709 104.294C157.443 104.294 154.343 103.357 151.228 102.421C148.114 101.485 144.982 100.548 144.661 100.548H144.644C144.654 100.417 144.659 100.273 144.662 100.114C144.672 99.8197 144.677 99.5174 144.676 99.2089C144.675 99.2032 144.675 99.1975 144.676 99.1918C144.688 99.4366 157.796 104.262 157.724 104.294H157.709Z" fill="#C2C2C9"/>
<path d="M158.407 90.1664C157.032 88.5751 156.517 88.6767 154.688 85.9971C155.19 86.0277 156.525 86.7842 156.814 86.9544C156.799 86.9707 156.788 86.9901 156.781 87.0112C156.774 87.0324 156.772 87.0548 156.775 87.0768C156.775 87.5003 157.575 88.7905 158.393 90.1371L158.407 90.1664Z" fill="#C2C2C9"/>
<path d="M143.926 105.95C144.173 104.988 144.345 104.009 144.439 103.021C144.344 104.009 144.172 104.988 143.925 105.949" fill="#CCBEAD"/>
<path d="M142.241 150.647C141.326 150.396 140.596 150.144 140.177 149.913C139.271 149.423 137.838 149.352 136.258 149.352C135.921 149.352 135.577 149.352 135.231 149.352C134.884 149.352 134.534 149.352 134.185 149.352C132.3 149.352 130.437 149.255 129.173 148.54C129 148.443 128.836 148.331 128.683 148.206C128.536 148.085 128.401 147.949 128.28 147.801C140.437 133.162 134.949 121.566 141.863 110.505C141.518 111.184 143.169 111.553 145.599 111.698C146.801 123.479 147.069 139.906 142.242 150.625" fill="#065B95"/>
<path d="M145.598 111.716C143.168 111.57 141.517 111.201 141.861 110.522C141.876 110.496 141.893 110.471 141.909 110.445C142.785 109.228 143.472 107.689 143.923 105.956C144.169 104.995 144.341 104.016 144.437 103.028C144.682 104.469 144.927 106.139 145.172 107.983C145.323 109.162 145.467 110.413 145.601 111.722" fill="#DBDBDF"/>
<path d="M151.063 70.7961C152.544 72.6396 154.026 73.1538 153.34 73.6459C152.821 74.0131 155.789 77.8592 153.402 78.1346C151.015 78.4101 148.802 77.9902 147.757 75.7403C146.713 73.4904 146.043 72.1904 146.043 72.1904L151.064 70.7925L151.063 70.7961Z" fill="#F6B2B5"/>
<path d="M151.579 71.0814C151.23 72.4083 150.304 73.2468 150.021 73.8038C149.859 74.1196 149.196 74.2273 148.942 73.9813C148.655 73.7071 148.116 73.7952 147.697 74.2261C147.195 74.7525 148 75.2923 148.432 75.6951C148.758 75.9913 148.839 76.5825 148.703 77.0012C148.184 78.5925 150.976 81.5047 142.927 85.5063C140.899 86.499 139.947 85.1941 137.854 85.5063C135.016 85.9359 134.242 89.0305 131.878 87.22C131.144 86.6643 130.041 84.0667 131.061 83.0103C132.093 81.9355 133.049 82.6737 133.985 82.0212C135.055 81.2745 132.995 79.8313 135.963 77.7675C137.94 76.3928 139.445 77.8532 140.535 76.8212C141.454 75.9509 141.423 69.468 145.641 68.5769C148.563 67.9648 150.173 68.9368 150.882 69.5966C151.181 69.8732 151.678 70.6774 151.575 71.0655L151.579 71.0814Z" fill="#3B3B4C"/>
</g>
<defs>
<clipPath id="clip0">
<rect width="281" height="207" fill="white"/>
</clipPath>
</defs>
</svg>
