<svg width="328" height="295" viewBox="0 0 328 295" fill="none" xmlns="http://www.w3.org/2000/svg">
<path d="M81.1995 84.7144C82.4431 76.8706 81.0162 72.1576 82.0328 67.0901C83.0805 61.8578 85.238 56.069 89.8765 52.8078C94.515 49.5466 103.024 44.1526 99.6042 47.961C96.1845 51.7694 84.3706 63.7262 84.5478 67.8113C84.7841 73.0063 84.1965 88.5881 84.1965 88.5881C84.1965 88.5881 80.6928 87.9134 81.1995 84.7144Z" fill="#449F81"/>
<path d="M82.9188 66.3811C81.3644 51.0138 73.8439 43.4686 64.9525 39.6446C56.0611 35.8207 58.2124 36.8466 58.2124 36.8466C58.5824 44.395 58.3492 56.4513 82.5333 68.1128L82.9188 66.3811Z" fill="#449F81"/>
<path opacity="0.17" d="M78.0193 65.7811C58.3773 54.8689 58.5576 43.8976 58.2125 36.8497C58.1344 36.8152 58.0586 36.7758 57.9856 36.7316C58.1824 36.7885 58.3747 36.8602 58.5608 36.9461C68.7548 43.3722 75.5944 58.1456 78.0193 65.7811Z" fill="#1F1F39"/>
<path d="M100.117 80.4395C99.6664 90.1921 94.9067 100.57 87.6319 102.416C86.9564 102.587 86.264 102.683 85.5675 102.702C84.7087 102.727 83.8493 102.687 82.9964 102.584C80.1921 102.251 77.5389 101.132 75.3424 99.3571C69.7464 94.8959 67.2997 86.9215 66.7805 81.5027C66.7245 80.9338 66.6934 80.396 66.6779 79.8923C68.3722 77.4829 74.7175 76.2829 81.7312 76.0933C82.6638 76.0653 83.5965 76.056 84.554 76.0684C88.392 76.0885 92.2218 76.4265 96.0041 77.0788C97.4033 77.3248 98.7846 77.6633 100.139 78.0923C100.161 78.8695 100.151 79.6529 100.117 80.4395Z" fill="#8D4F30"/>
<path opacity="0.28" d="M100.117 80.4395C99.6663 90.1921 94.9066 100.57 87.6318 102.416C86.0773 102.485 84.5228 102.541 82.9963 102.584C80.192 102.251 77.5388 101.132 75.3423 99.3571C85.3902 96.1394 92.8205 94.1435 95.5501 79.7898C95.7138 78.9317 95.861 78.028 95.9915 77.0788C97.3907 77.3248 98.7721 77.6633 100.126 78.0923C100.161 78.8695 100.151 79.653 100.117 80.4395Z" fill="#1F1F39"/>
<path d="M101.239 80.7659C96.4642 78.9845 76.1817 78.8539 66.0405 81.6986C63.771 82.339 63.9949 78.0954 65.9286 77.5855C74.8481 75.2383 98.8207 75.7917 101.131 76.6528C103.441 77.514 103.549 81.6364 101.239 80.7659Z" fill="#6E3622"/>
<path d="M103.779 112.104C103.779 112.104 97.1729 117.805 96.2029 115.775C92.1831 107.381 89.1022 108.373 85.2379 107.453C81.3735 106.533 75.3423 100.542 78.9269 100.349C83.0834 100.131 84.4265 102.165 87.3644 102.286C89.1116 102.581 91.4059 100.629 91.9469 100.153C93.2775 101.614 94.9003 103.52 96.7657 104.294C98.1522 104.854 103.779 112.104 103.779 112.104Z" fill="#EFAEA6"/>
<path opacity="0.15" d="M275.375 290.57C275.375 292.619 214.332 295 143.996 295C73.6602 295 16.64 293.337 16.64 291.288C16.64 289.239 73.6571 287.576 143.996 287.576C214.335 287.576 275.375 288.518 275.375 290.57Z" fill="#333340"/>
<path opacity="0.18" d="M92.6 100.828C91.1544 102.053 89.9357 102.28 88.1481 102.267C89.5552 101.808 90.8579 101.076 91.9814 100.113L92.6 100.828Z" fill="#1F1F39"/>
<path d="M60.3978 261.641C62.2071 258.784 67.6353 252.193 67.6353 252.193L74.8915 257.42L66.6373 267.237L59.4651 266.821L60.3978 261.641Z" fill="#EFAEA6"/>
<path d="M223.783 256.185C223.783 256.332 219.691 256.655 213.645 256.521C212.846 256.503 212.012 256.478 211.158 256.44C200.637 256.011 170.984 257.143 165.23 246.601C158.627 232.847 155.682 211.523 151.663 198.245C151.411 198.388 142.899 203.272 133.758 209.126C125.312 214.548 116.324 220.803 112.832 224.929C104.311 235.001 77.2792 260.224 72.8925 264.685C72.8925 264.685 69.5629 263.532 63.485 256.972C64.6322 254.762 95.0807 216.454 100.17 210.979C105.259 205.504 133.23 181.277 141.938 168.157L147.633 169.09C147.633 169.09 176.189 170.548 176.478 172.575C176.636 173.672 176.789 174.826 176.897 176.019C177.65 183.297 177.774 192.186 177.743 200.891C177.687 215.378 178.464 231.224 179.63 236.59C180.693 241.483 199.838 241.944 210.75 244.201C212.522 244.564 214.257 244.916 215.902 245.245C220.494 246.178 224.411 246.971 226.683 247.645C227.672 247.282 226.478 249.134 223.783 256.185Z" fill="#3B3B4C"/>
<path opacity="0.28" d="M177.737 200.894C173.695 197.713 164.944 187.643 161.064 177.636L176.894 176.022C177.644 183.297 177.771 192.179 177.737 200.894Z" fill="#1F1F39"/>
<path d="M159.755 116.049L167.095 111.877C166.281 108.227 166.352 99.2142 164.987 96.1022C163.489 92.6824 163.218 92.9591 163.218 92.9591L158.555 97.5851L156.36 99.7614C156.36 99.7614 157.019 101.129 157.01 103.703C156.959 106.143 156.468 108.554 155.561 110.82C154.725 113.011 159.755 116.049 159.755 116.049Z" fill="#EFAEA6"/>
<path opacity="0.14" d="M156.357 99.7644C156.806 101.164 157.024 102.628 157 104.098C162.447 105.14 164.428 100.678 162.851 99.6028C161.866 98.9219 158.552 97.5851 158.552 97.5851L156.357 99.7644Z" fill="#1F1F39"/>
<path d="M152.334 87.8544C152.285 90.6741 149.602 96.2484 151.495 96.1085C153.388 95.9686 151.383 102.065 153.404 102C158.297 101.838 163.716 98.378 164.195 95.9779C164.674 93.5778 163.902 87.015 163.902 87.015L152.334 87.8544Z" fill="#EFAEA6"/>
<path d="M157.541 90.22C156.015 90.5029 155.987 90.8698 154.877 90.419C153.767 89.9682 155.533 88.3578 153.497 88.1557C151.46 87.9537 149.247 87.9785 148.886 85.6904C148.364 82.3763 151.352 82.7027 153.201 82.967C154.392 83.138 154.516 80.5669 156.87 80.5234C158.735 80.4861 158.574 81.5773 160.221 81.6177C161.219 81.6426 163.047 79.883 164.67 80.9742C167.679 82.995 165.466 85.8707 168.003 88.0749C170.963 90.6428 164.894 96.9446 164.11 96.2824C163.178 95.5114 164.285 92.5735 163.358 91.961C161.962 91.0283 161.869 92.1849 160.824 93.3103C159.705 94.5103 157.513 94.7217 158.782 92.4616C160.05 90.2014 158.925 89.9651 157.541 90.22Z" fill="#1F1F39"/>
<path d="M167.409 105.886C164.375 104.801 162.693 108.513 160.165 108.426C158.633 108.373 158.81 106.999 158.179 106.187C157.79 105.687 156.935 105.951 155.71 105.932C152.505 105.886 143.614 169.307 143.614 169.307C143.614 169.307 150.721 174.484 157.162 174.934C163.604 175.385 174.883 171.807 174.839 169.537C174.796 167.268 173.102 109.707 173.102 109.707C173.102 109.707 170.453 106.974 167.409 105.886Z" fill="white"/>
<path d="M155.813 106.016C134.545 111.454 125.592 125.233 117.555 125.002C112.761 124.866 103.372 105.777 100.335 106.747C97.4653 107.68 91.347 110.291 91.8382 111.569C92.9885 114.554 107.97 137.152 116.398 137.516C124.435 137.858 140.16 126.946 143.719 130.054C146.359 132.352 145.296 145.111 144.341 149.243C143.387 153.374 134.393 172.161 136.939 174.369C139.902 176.955 144.285 178.158 148.647 173.336C151.302 170.399 154.243 154.509 154.961 143.833C155.679 133.157 151.51 129.576 153.463 117.79L155.813 106.016Z" fill="#0068A5"/>
<path d="M165.395 137.115C161.925 146.5 161.387 154.997 161.064 159.9C160.753 164.74 156.329 173.625 158.996 178.04C165.059 188.06 179.938 192.151 181.269 190.553C182.991 188.486 181.026 178.36 179.776 173.638C178.763 169.808 181.738 158.65 181.642 151.546C181.591 150.227 181.67 148.907 181.878 147.604C182.037 146.833 182.223 146.05 182.422 145.26C183.324 141.722 184.499 138.24 184.701 136.695C184.726 136.532 184.734 136.368 184.726 136.204C184.726 136.185 184.726 136.169 184.726 136.157C186.059 137.09 201.579 147.629 203.877 151.419C206.634 155.973 212.939 176.262 213.256 178.096C216.185 178.012 221.65 175.074 222.623 174.428C222.365 169.09 217.372 154.154 213.747 146.367C209.155 136.493 196.508 125.577 187.919 116.978C182.211 111.267 167.928 106.032 167.928 106.032C167.251 109.489 169.744 125.357 165.395 137.115Z" fill="#0068A5"/>
<path opacity="0.28" d="M184.754 136.191L184.707 136.841C184.449 138.455 183.321 141.815 182.447 145.254C182.248 146.04 182.061 146.827 181.903 147.598C181.694 148.901 181.615 150.221 181.667 151.54C181.685 152.92 181.356 154.459 181.418 156.104C181.253 155.83 181.443 155.538 181.284 155.187C180.436 153.321 178.698 136.061 179.369 132.557C179.354 132.563 183.087 134.416 184.754 136.191Z" fill="#1F1F39"/>
<path opacity="0.18" d="M160.613 111.143C160.924 110.935 164.468 116.332 168.65 118.293C169.798 118.851 171.044 119.177 172.318 119.254C176.086 119.428 183.976 118.402 188.705 117.752C187.151 116.369 185.425 114.333 183.541 112.809C180.121 113.928 174.662 115.645 172.694 115.452C171.273 115.3 169.882 114.935 168.569 114.37C166.371 113.394 164.336 112.089 162.531 110.499C161.735 109.822 161.599 108.777 160.666 108.749C159.413 108.702 160.224 111.407 160.613 111.143Z" fill="#1F1F39"/>
<path d="M158.437 109.144C158.442 108.921 158.492 108.701 158.585 108.498C158.678 108.295 158.812 108.114 158.978 107.965C159.144 107.816 159.339 107.703 159.551 107.632C159.763 107.562 159.987 107.536 160.209 107.555C161.194 107.583 161.281 107.984 162.111 108.69C164.599 110.817 168.329 113.422 172.707 113.854C177.084 114.286 187.023 108.441 193.514 109.787C200.006 111.134 202.033 116.922 211.4 118.321C220.767 119.72 230.784 115.669 233.548 116.117C236.312 116.565 237.987 117.152 237.928 118.247C237.869 119.341 236.514 121.16 234.583 121.956C232.652 122.752 215.591 124.073 211.077 123.51C203.709 122.577 197.317 116.011 192.572 115.638C187.828 115.265 177.874 118.076 172.315 117.815C166.113 117.529 160.999 110.353 160.591 110.636C160.379 110.823 160.123 110.954 159.847 111.015C159.571 111.077 159.284 111.069 159.012 110.991C158.465 110.86 158.403 109.766 158.437 109.144Z" fill="#F3AD06"/>
<path d="M73.5112 243.871C72.5786 243.585 61.4052 258.243 60.2518 259.133C57.6186 261.175 48.3416 253.916 46.7685 253.039C45.9571 252.588 41.8378 255.393 45.4224 258.219C48.5313 260.659 58.4207 268.515 61.828 271.167C62.54 271.72 64.968 272.644 65.683 272.1C68.2354 270.135 84.7468 255.834 83.8701 255.001C82.8068 253.409 77.0212 244.956 73.5112 243.871Z" fill="#ED6A0C"/>
<path opacity="0.57" d="M215.379 245.248L215.348 245.618L217.898 252.548L213.129 256.521C212.33 256.502 211.493 256.474 210.642 256.44C210.236 252.374 210.102 248.285 210.24 244.201C212 244.567 213.732 244.916 215.379 245.248Z" fill="#1F1F39"/>
<path d="M229.687 256.686C226.09 256.652 217.096 255.442 217.096 255.442L217.758 245.957L231.247 247.906L234.891 254.606L229.687 256.686Z" fill="#EFAEA6"/>
<path d="M211.801 257.79C212.037 258.784 227.078 258.122 228.555 258.585C231.934 259.649 231.225 272.15 231.415 274.055C231.511 275.038 236.458 276.931 236.75 272.087C237.002 267.903 237.393 256.646 237.978 252.094C238.516 247.925 235.677 247.549 234.763 247.26C231.499 246.221 213.598 242.139 213.408 243.411C212.653 245.301 210.778 253.558 211.801 257.79Z" fill="#ED6A0C"/>
<path d="M240.092 186.142C234.235 179.741 223.335 180.145 215.799 187.043C211.366 191.1 208.77 196.261 208.674 201.195C208.602 205.007 209.852 208.492 212.619 211.224C213.083 211.639 213.484 212.118 213.81 212.648C213.558 213.099 213.67 213.049 213.834 213.242C221.442 222.112 228.826 233.929 231.67 232.732C234.515 231.535 255.475 216.565 252.584 213.59C251.101 212.064 246.677 206.772 242.595 202.087C244.662 196.435 243.929 190.339 240.092 186.142ZM214.332 209.642C213.204 208.559 212.313 207.254 211.716 205.809C211.118 204.364 210.828 202.811 210.862 201.248C210.946 196.895 213.284 192.322 217.279 188.666C223.923 182.585 233.445 182.119 238.479 187.628C241.497 190.93 241.637 194.949 240.322 199.501C237.136 195.891 235.09 193.768 234.751 194.113C234.098 194.772 220.121 205.305 215.336 210.54C214.983 210.26 214.646 209.96 214.326 209.642H214.332Z" fill="#0068A5"/>
<path d="M232.031 224.285C205.807 229.98 202.126 231.843 200.606 230.652C199.086 229.461 195.632 224.021 195.756 228.414C195.88 232.806 196.002 240.678 198.106 240.153C200.211 239.627 199.499 235.325 201.999 234.759C204.498 234.193 225.937 227.817 234.546 228.445C243.154 229.073 232.031 224.285 232.031 224.285Z" fill="#0068A5"/>
<g opacity="0.1">
<path opacity="0.1" d="M240.092 186.142C234.235 179.741 223.335 180.145 215.799 187.043C211.366 191.1 208.77 196.261 208.674 201.195C208.602 205.007 209.852 208.492 212.619 211.224C213.083 211.639 213.484 212.118 213.81 212.648C213.558 213.099 213.67 213.049 213.834 213.242C221.442 222.112 228.826 233.929 231.67 232.732C234.515 231.535 255.475 216.565 252.584 213.59C251.101 212.064 246.677 206.772 242.595 202.087C244.662 196.435 243.929 190.339 240.092 186.142ZM214.332 209.642C213.204 208.559 212.313 207.254 211.716 205.809C211.118 204.364 210.828 202.811 210.862 201.248C210.946 196.895 213.284 192.322 217.279 188.666C223.923 182.585 233.445 182.119 238.479 187.628C241.497 190.93 241.637 194.949 240.322 199.501C237.136 195.891 236.473 194.216 234.751 194.113C233.818 194.057 220.121 205.305 215.336 210.54C214.983 210.26 214.646 209.96 214.326 209.642H214.332Z" fill="white"/>
<path opacity="0.1" d="M232.031 224.285C205.807 229.98 202.126 231.843 200.606 230.652C199.086 229.461 195.632 224.021 195.756 228.413C195.88 232.806 196.002 240.678 198.106 240.153C200.211 239.627 199.499 235.325 201.999 234.759C204.498 234.193 225.937 227.817 234.546 228.445C243.154 229.073 232.031 224.285 232.031 224.285Z" fill="white"/>
</g>
<path d="M215.575 177.673C215.902 179.508 215.575 178.65 215.656 181.118C215.737 183.586 214.052 187.109 215.345 187.087C216.638 187.065 217.326 185.934 217.811 185.474C218.296 185.013 217.969 186.496 219.014 187.373C220.058 188.25 223.208 187.942 224.274 186.652C225.34 185.362 225.713 183.316 225.054 181.031C224.395 178.746 222.536 174.306 221.6 174.813C219.642 175.869 217.631 176.824 215.575 177.673Z" fill="#EEADA5"/>
<path opacity="0.61" d="M151.654 198.245C151.402 198.388 142.89 203.272 133.749 209.126C136.547 203.508 150.202 193.302 150.202 193.302L151.654 198.245Z" fill="#1F1F39"/>
<path d="M258.105 134.749C252.565 134.749 241.18 144.573 257.449 146.149C273.718 147.725 298.085 146.998 307.944 147.032C324.038 147.085 328.03 146.41 327.903 139.851C327.828 136.045 325.773 133.58 317.289 132.582C308.463 131.544 312.974 121.729 302.198 122.012C293.021 122.267 292.085 135.116 283.691 131.96C275.297 128.805 277.051 137.391 270.911 138.968C264.161 140.705 263.642 134.749 258.105 134.749Z" fill="white"/>
<path d="M43.7529 206.334C52.1065 206.874 60.4941 206.18 68.6458 204.276C69.9205 203.987 71.2759 203.601 72.1402 202.532C73.4491 200.909 73.0542 198.18 71.6428 196.666C70.2313 195.152 68.1017 194.698 66.14 194.909C64.8965 195.043 63.5939 195.416 62.3783 195.03C60.8643 194.548 59.8601 193.025 58.8435 191.698C57.8268 190.37 56.4496 189.058 54.8827 189.266C53.7076 189.422 52.7842 190.395 51.7396 191.001C50.695 191.607 49.1748 191.676 48.5779 190.553C47.2939 188.157 49.0939 181.584 42.4906 181.584C32.9619 181.584 34.5195 188.2 33.3723 189.605C31.6313 191.732 28.5348 191.262 26.0166 190.538C23.4984 189.814 20.4983 189.133 18.5553 191.035C16.8671 192.686 16.6899 195.699 14.9023 197.222C12.9966 198.826 10.2856 197.968 7.97568 197.25C5.66577 196.532 2.69061 196.261 1.34135 198.453C0.215927 200.291 1.05532 202.958 2.6564 204.304C4.25748 205.65 6.36528 205.98 8.37363 206.113C21.431 206.987 33.2821 205.638 43.7529 206.334Z" fill="white"/>
<path d="M81.9924 64.5377C82.6142 59.2929 82.3592 54.7819 82.6142 51.244C82.8007 48.5673 80.7862 45.3371 80.5437 42.5857C80.3602 40.5059 80.7862 37.2198 80.7862 37.2198C80.7862 37.2198 82.6142 36.856 82.493 37.9535C82.3717 39.0509 82.2442 43.3972 82.8038 44.6594C83.3634 45.9216 84.2681 47.647 84.5323 50.5663C84.7468 52.9259 84.4515 64.062 84.5728 65.1594C84.694 66.2569 82.9375 66.403 82.9375 66.403L81.9924 64.5377Z" fill="#449F81"/>
<path d="M101.261 24.1997C101.26 29.0206 99.4294 33.6615 96.14 37.1858C92.8506 40.7102 88.3468 42.8557 83.5374 43.1895C78.7281 43.5232 73.9711 42.0204 70.2265 38.9841C66.4818 35.9479 64.0282 31.6043 63.3606 26.8298C63.2407 25.9582 63.1805 25.0795 63.1803 24.1997C63.177 20.1441 64.4695 16.1936 66.8692 12.9242C69.269 9.65478 72.6505 7.23758 76.5206 6.02508C77.0201 5.86964 77.5279 5.73388 78.0439 5.61782C80.8298 4.99412 83.7203 5.00439 86.5016 5.64787C89.283 6.29135 91.8842 7.5516 94.1131 9.33548C96.342 11.1194 98.1416 13.3813 99.3788 15.9541C100.616 18.5269 101.259 21.3448 101.261 24.1997Z" fill="#F3AD06"/>
<path opacity="0.78" d="M78.0439 5.61768C77.7885 7.30936 77.4061 8.97942 76.8999 10.6137C74.7876 11.4066 72.8935 12.689 71.3728 14.3556C69.852 16.0223 68.748 18.0257 68.1514 20.2015C66.6398 20.5887 65.0751 20.7263 63.5192 20.6088C64.1694 17.2312 65.7211 14.0925 68.0099 11.525C70.2988 8.95758 73.2395 7.0571 76.5206 6.02494C77.0201 5.86121 77.5278 5.72545 78.0439 5.61768Z" fill="#F4C83D"/>
<path opacity="0.19" d="M95.9818 26.2472C97.2421 18.4832 91.9698 11.1677 84.2059 9.9074C76.442 8.64714 69.1264 13.9194 67.8661 21.6834C66.6059 29.4473 71.8781 36.7628 79.6421 38.0231C87.406 39.2833 94.7216 34.0111 95.9818 26.2472Z" fill="#D39432"/>
<path d="M92.3945 14.3724C89.7013 11.9244 86.169 10.6073 82.5306 10.6945C78.8921 10.7816 75.4268 12.2663 72.8539 14.8404C70.281 17.4145 68.798 20.8805 68.7125 24.519C68.6271 28.1575 69.9458 31.6892 72.3951 34.3813C70.9673 33.095 69.8162 31.5316 69.012 29.7862C68.2077 28.0408 67.7671 26.15 67.7171 24.2289C67.667 22.3078 68.0085 20.3966 68.7207 18.6117C69.433 16.8268 70.5011 15.2055 71.86 13.8466C73.2189 12.4878 74.84 11.4197 76.625 10.7074C78.4099 9.9952 80.3211 9.65372 82.2422 9.70378C84.1633 9.75384 86.0541 10.1944 87.7995 10.9986C89.5449 11.8029 91.1083 12.9539 92.3945 14.3817V14.3724Z" fill="#CB830F"/>
<path d="M97.1543 25.0264C97.1539 27.8875 96.2869 30.6812 94.6675 33.0398C93.0481 35.3984 90.7523 37.2112 88.0825 38.2393C85.4126 39.2675 82.4938 39.4629 79.7108 38.7997C76.9277 38.1365 74.4107 36.6459 72.4915 34.5241C75.187 36.9524 78.7118 38.2536 82.3386 38.159C85.9654 38.0645 89.4177 36.5816 91.9831 34.0162C94.5485 31.4508 96.0315 27.9986 96.126 24.3717C96.2205 20.7449 94.9193 17.2202 92.491 14.5246C93.961 15.8504 95.1359 17.4705 95.9393 19.2797C96.7426 21.0889 97.1566 23.0469 97.1543 25.0264Z" fill="#F4C83D"/>
<path d="M89.0214 28.6203C89.023 29.5903 88.7374 30.539 88.2006 31.3468C87.6245 32.1814 86.8174 32.8296 85.8783 33.2122C84.7388 33.6802 83.5122 33.8986 82.2812 33.8526C80.6232 33.8298 79.2594 33.4992 78.19 32.8609C77.4388 32.4066 76.8076 31.7786 76.3495 31.0297C75.9143 30.3759 75.6758 29.6109 75.6625 28.8255C75.6635 28.6251 75.705 28.427 75.7844 28.243C75.8639 28.0591 75.9796 27.893 76.1248 27.7549C76.2699 27.6167 76.4415 27.5092 76.6291 27.4389C76.8168 27.3686 77.0167 27.3369 77.2169 27.3457C77.5542 27.3409 77.8799 27.4681 78.1247 27.7001C78.4062 27.9924 78.6187 28.344 78.7465 28.7292C78.9207 29.2025 79.1469 29.655 79.4211 30.0784C79.6868 30.4606 80.0437 30.7705 80.4595 30.98C81.0123 31.2428 81.6196 31.3707 82.2315 31.3531C83.105 31.4038 83.9709 31.1668 84.6969 30.6784C84.9901 30.4898 85.2321 30.2315 85.4014 29.9267C85.5706 29.6218 85.6618 29.2799 85.6669 28.9312C85.6799 28.6822 85.6428 28.4332 85.5579 28.1988C85.473 27.9644 85.342 27.7493 85.1725 27.5664C84.8074 27.1967 84.36 26.9186 83.8668 26.755C83.3279 26.5643 82.6108 26.3571 81.7155 26.1332C80.677 25.892 79.6656 25.5462 78.6968 25.1011C77.9335 24.7506 77.273 24.21 76.7785 23.5311C76.2916 22.8111 76.0516 21.9525 76.0946 21.0844C76.091 20.2042 76.3664 19.3455 76.8811 18.6315C77.4447 17.8846 78.214 17.3184 79.0946 17.0024C80.1754 16.6096 81.3216 16.4281 82.4709 16.4677C83.3781 16.4599 84.2804 16.6017 85.1415 16.8874C85.8246 17.1125 86.458 17.4671 87.0068 17.932C87.4527 18.3038 87.8177 18.763 88.0794 19.2812C88.2926 19.7058 88.4044 20.174 88.4058 20.6491C88.3988 21.0546 88.2402 21.4428 87.9612 21.7372C87.8277 21.891 87.6616 22.0132 87.4751 22.095C87.2885 22.1767 87.086 22.2159 86.8824 22.2098C86.5578 22.2259 86.2398 22.1143 85.9964 21.8989C85.7354 21.6095 85.5176 21.2838 85.3498 20.932C85.1015 20.3611 84.7336 19.8501 84.271 19.4336C83.8565 19.0729 83.1704 18.8864 82.2129 18.874C81.4619 18.8292 80.7158 19.0217 80.0802 19.4242C79.8387 19.5682 79.6369 19.7701 79.493 20.0116C79.3492 20.2532 79.2678 20.5268 79.2563 20.8077C79.2429 21.1199 79.3349 21.4276 79.5175 21.6813C79.7185 21.946 79.9739 22.1644 80.2667 22.3217C80.574 22.4976 80.8992 22.6404 81.2367 22.7476C81.5642 22.8513 82.1041 23.0036 82.8564 23.2046C83.7241 23.4146 84.5803 23.6699 85.4213 23.9694C86.1132 24.2115 86.7682 24.5484 87.3674 24.9705C87.8945 25.3506 88.3212 25.8532 88.611 26.4348C88.9204 27.1201 89.0611 27.8695 89.0214 28.6203Z" fill="#CB830F"/>
<path d="M83.0028 35.9109L81.2059 35.886C81.0555 35.8835 80.9123 35.8217 80.8074 35.7139C80.7026 35.6061 80.6446 35.4612 80.6463 35.3109L80.9168 14.4812C80.9176 14.4067 80.9332 14.333 80.9626 14.2645C80.9919 14.1959 81.0346 14.1339 81.088 14.0819C81.1415 14.0298 81.2047 13.9889 81.274 13.9614C81.3433 13.9339 81.4174 13.9204 81.492 13.9216L83.2858 13.9434C83.3605 13.9442 83.4343 13.9597 83.503 13.9891C83.5717 14.0184 83.634 14.061 83.6863 14.1144C83.7385 14.1678 83.7797 14.231 83.8075 14.3004C83.8354 14.3697 83.8493 14.4438 83.8485 14.5186L83.578 35.3482C83.5756 35.4988 83.5138 35.6424 83.4061 35.7477C83.2984 35.8531 83.1535 35.9117 83.0028 35.9109Z" fill="#CB830F"/>
<path d="M88.3778 27.7935C88.3793 28.7644 88.0937 29.714 87.5571 30.5231C86.9818 31.3584 86.1743 32.0069 85.2346 32.3885C84.0954 32.8575 82.8689 33.077 81.6377 33.032C79.9796 33.0113 78.6158 32.6797 77.5464 32.0372C76.7948 31.5844 76.1643 30.9561 75.709 30.206C75.272 29.553 75.0334 28.7875 75.022 28.0018C75.0222 27.8012 75.0631 27.6026 75.1422 27.4183C75.2213 27.2339 75.3371 27.0675 75.4824 26.9291C75.6277 26.7908 75.7996 26.6834 75.9877 26.6134C76.1757 26.5434 76.376 26.5123 76.5764 26.522C76.9135 26.5182 77.2388 26.6452 77.4842 26.8764C77.7657 27.1687 77.9782 27.5203 78.106 27.9054C78.2808 28.3785 78.507 28.831 78.7806 29.2547C79.0471 29.6362 79.4038 29.9459 79.819 30.1563C80.3713 30.4206 80.979 30.5485 81.591 30.5293C82.4649 30.5787 83.3311 30.343 84.0596 29.8578C84.3514 29.668 84.5922 29.4094 84.7608 29.1048C84.9294 28.8001 85.0206 28.4587 85.0264 28.1106C85.0398 27.8619 85.0033 27.6129 84.9189 27.3785C84.8345 27.1441 84.704 26.929 84.5351 26.7458C84.1694 26.3746 83.7209 26.0955 83.2263 25.9313C82.6916 25.7406 81.9745 25.5333 81.075 25.3095C80.0366 25.0692 79.0252 24.7244 78.0563 24.2805C77.2929 23.9287 76.6324 23.3871 76.138 22.7074C75.6536 21.9874 75.4138 21.1306 75.4541 20.2638C75.4512 19.3822 75.7277 18.5224 76.2437 17.8077C76.8054 17.0603 77.574 16.4939 78.4542 16.1787C79.5351 15.7861 80.6812 15.6046 81.8304 15.6439C82.7384 15.6395 83.6412 15.7812 84.5041 16.0636C85.1867 16.2899 85.8198 16.6445 86.3694 17.1082C86.8153 17.4801 87.1803 17.9392 87.442 18.4575C87.6499 18.8833 87.7563 19.3515 87.7529 19.8254C87.748 20.2314 87.5891 20.6203 87.3083 20.9135C87.1755 21.0684 87.0096 21.1915 86.8229 21.2739C86.6363 21.3562 86.4335 21.3956 86.2296 21.3892C85.9049 21.4053 85.5869 21.2937 85.3435 21.0783C85.0819 20.79 84.8649 20.4641 84.6999 20.1114C84.4496 19.5409 84.0808 19.0301 83.618 18.6129C83.1952 18.2523 82.5082 18.0658 81.5631 18.0533C80.8107 18.0091 80.0635 18.2027 79.4273 18.6067C79.1858 18.75 78.984 18.9513 78.8401 19.1923C78.6962 19.4334 78.6149 19.7066 78.6034 19.9871C78.5894 20.2999 78.6826 20.6081 78.8676 20.8607C79.0667 21.126 79.3214 21.3446 79.6138 21.5011C79.9214 21.6764 80.2465 21.8192 80.5838 21.927C80.9112 22.0307 81.4522 22.183 82.2066 22.384C83.0732 22.5954 83.9283 22.8517 84.7683 23.1519C85.4613 23.3924 86.1174 23.7282 86.7176 24.1499C87.2448 24.5311 87.6716 25.0347 87.9612 25.6173C88.2735 26.2985 88.4165 27.0451 88.3778 27.7935Z" fill="#F4C83D"/>
<path d="M82.3497 35.0839L80.5559 35.059C80.4056 35.0573 80.262 34.9963 80.1565 34.8891C80.0511 34.7819 79.9923 34.6373 79.9932 34.487L80.2636 13.6574C80.2661 13.507 80.328 13.3637 80.4358 13.2589C80.5435 13.154 80.6884 13.0961 80.8388 13.0978L82.6357 13.1226C82.7855 13.1251 82.9283 13.1865 83.0331 13.2936C83.1378 13.4007 83.1962 13.5448 83.1954 13.6947L82.9248 34.5243C82.924 34.5988 82.9085 34.6725 82.8791 34.7411C82.8498 34.8096 82.8071 34.8717 82.7536 34.9237C82.7002 34.9757 82.637 35.0166 82.5677 35.0441C82.4983 35.0716 82.4243 35.0851 82.3497 35.0839Z" fill="#F4C83D"/>
<path d="M108.99 32.8269C104.348 32.0932 103.686 29.9822 102.825 23.4411C102.222 29.6589 101.454 31.9999 96.7345 32.7087C100.851 34.4777 102.299 35.1181 103.033 42.2903C104.047 35.0186 104.951 34.3813 108.99 32.8269Z" fill="white"/>
<path d="M63.9296 9.38576C59.2881 8.65206 58.6227 6.54112 57.7616 0C57.1615 6.21779 56.3936 8.55879 51.6743 9.26762C55.7905 11.0366 57.2361 11.677 57.9729 18.8492C58.9864 11.5869 59.8912 10.9433 63.9296 9.38576Z" fill="white"/>
</svg>
