<svg width="303" height="169" viewBox="0 0 303 169" fill="none" xmlns="http://www.w3.org/2000/svg">
<path d="M221.227 39.4869L223.967 37.0842C223.273 35.8012 221.91 32.4675 221.066 31.4453C220.141 30.3235 220.067 30.4528 220.067 30.4528L218.809 32.6859L218.218 33.7462C218.533 34.1657 218.759 34.6458 218.881 35.1565C219.12 36.0778 219.192 37.0345 219.093 37.9812C219.015 38.8931 221.227 39.4869 221.227 39.4869Z" fill="#EFAEA6"/>
<path opacity="0.14" d="M218.218 33.7378C218.534 34.2161 218.771 34.7424 218.919 35.2965C221.076 35.1077 221.346 33.2267 220.637 32.9849C220.035 32.846 219.424 32.7461 218.809 32.6859L218.218 33.7378Z" fill="#1F1F39"/>
<path d="M215.495 29.6067C215.643 30.7582 214.886 33.1843 215.649 33.0168C216.413 32.8492 215.963 35.4492 216.782 35.3007C218.765 34.9402 220.76 33.2055 220.811 32.2003C220.862 31.1951 220.152 28.5697 220.152 28.5697L215.495 29.6067Z" fill="#EFAEA6"/>
<path d="M217.7 30.4613C217.087 30.2811 217.163 30.6119 216.684 30.4974C216.205 30.3829 216.826 29.6173 215.986 29.6491C215.147 29.6809 214.644 29.6046 214.445 28.6736C214.317 28.0819 214.657 27.3609 215.42 27.3567C215.914 27.3567 215.651 26.5254 216.576 26.2645C217.308 26.0525 217.636 26.5423 218.379 26.6335C218.786 26.6844 219.636 26.0631 220.361 26.4087C221.71 27.0449 220.718 27.9971 221.884 28.7415C223.243 29.6088 221.089 32.3848 220.711 32.5778C220.571 32.6499 220.115 32.406 220.336 31.7465C220.448 31.405 220.433 30.6989 220.228 30.6034C219.863 30.4338 219.167 29.9142 219.182 30.8155C219.197 31.4517 219.933 33.5363 219.782 33.7526C219.401 34.3082 216.657 35.8415 216.436 35.0844C216.162 34.1471 218.845 34.4249 218.502 33.4769C218.239 32.7538 216.296 33.9647 215.969 33.4112C215.594 32.775 218.586 33.0316 218.614 32.3509C218.65 31.5386 218.05 30.5653 217.7 30.4613Z" fill="#1F1F39"/>
<path d="M217.912 105.389C217.168 104.074 215.717 100.55 215.717 100.55L219.303 98.7936L221.434 104.095L219.765 106.831L217.912 105.389Z" fill="white"/>
<path d="M217.369 104.937C216.945 105.035 217.284 105.315 217.427 105.949C217.753 107.401 213.06 109.766 212.407 110.243C212.07 110.487 212.424 112.682 214.243 111.77C215.819 110.979 220.873 108.468 222.588 107.594C222.764 107.506 222.904 107.362 222.989 107.184C223.073 107.007 223.097 106.807 223.055 106.615C222.745 105.211 221.698 103.313 221.195 103.51C220.351 103.637 219.117 104.536 217.369 104.937Z" fill="#1F1F39"/>
<path d="M227.103 57.9261C222.283 58.1382 206.174 75.92 205.542 77.5021C204.019 81.3193 215.842 103.48 215.842 103.48C215.842 103.48 222.054 102.433 221.797 101.648C221.54 100.863 212.534 81.6268 212.807 80.3925C213.081 79.1583 226.897 69.7892 228.382 65.9953C229.866 62.2014 227.103 57.9261 227.103 57.9261Z" fill="#3B3B4C"/>
<path opacity="0.4" d="M227.103 57.9261C222.283 58.1382 206.174 75.92 205.542 77.5021C204.019 81.3193 215.842 103.48 215.842 103.48C215.842 103.48 222.054 102.433 221.797 101.648C221.54 100.863 212.534 81.6268 212.807 80.3925C213.081 79.1583 226.897 69.7892 228.382 65.9953C229.866 62.2014 227.103 57.9261 227.103 57.9261Z" fill="#1F1F39"/>
<path d="M66.3774 149.121C65.9066 147.662 64.2716 144.161 64.2716 144.161L60.501 145.631L63.0034 150.869L66.1844 151.505L66.3774 149.121Z" fill="white"/>
<path d="M66.4135 148.407C66.7719 148.161 66.7528 148.6 67.1282 149.143C67.9891 150.381 72.9812 148.506 73.7786 148.343C74.19 148.258 75.5875 150.029 73.6577 150.763C71.9866 151.399 66.6446 153.443 64.8123 154.124C64.6261 154.194 64.4221 154.199 64.2322 154.141C64.0422 154.082 63.8771 153.962 63.7626 153.8C62.9271 152.606 62.2294 150.519 62.7214 150.281C63.3979 149.738 64.9142 149.433 66.4135 148.407Z" fill="#1F1F39"/>
<path d="M24.6468 123.406C28.1183 119.96 52.4403 120.136 54.0541 120.751C57.9456 122.236 66.3731 146.265 66.3731 146.265C66.3731 146.265 61.3281 150.182 60.9209 149.446C60.5137 148.71 52.3343 128.793 51.2252 128.15C50.1161 127.508 33.6384 131.384 29.7915 129.891C25.9446 128.398 24.6468 123.406 24.6468 123.406Z" fill="#3B3B4C"/>
<path opacity="0.4" d="M24.6468 123.406C28.1183 119.96 52.4403 120.136 54.0541 120.751C57.9456 122.236 66.3731 146.265 66.3731 146.265C66.3731 146.265 61.3281 150.182 60.9209 149.446C60.5137 148.71 52.3343 128.793 51.2252 128.15C50.1161 127.508 33.6384 131.384 29.7915 129.891C25.9446 128.398 24.6468 123.406 24.6468 123.406Z" fill="#1F1F39"/>
<path d="M146.477 87.8255C124.091 87.062 116.974 166.261 120.155 166.382C125.457 166.581 161.142 166.142 164.83 166.142C168.517 166.142 162.698 88.3811 146.477 87.8255Z" fill="#313148"/>
<g opacity="0.76">
<path opacity="0.76" d="M263.031 87.1532C262.995 87.2177 262.976 87.2899 262.973 87.3638C262.971 87.4376 262.987 87.5108 263.019 87.5774C265.564 92.7242 265.841 97.7927 263.844 103.075C263.822 103.132 263.812 103.192 263.814 103.252C263.816 103.312 263.83 103.371 263.855 103.426C263.88 103.481 263.915 103.531 263.959 103.572C264.003 103.613 264.055 103.646 264.111 103.667C264.167 103.688 264.227 103.698 264.288 103.696C264.348 103.694 264.407 103.681 264.462 103.656C264.517 103.631 264.566 103.596 264.608 103.552C264.649 103.508 264.681 103.456 264.703 103.4C266.796 97.8669 266.514 92.5567 263.842 87.1702C263.788 87.0606 263.693 86.9766 263.578 86.9369C263.463 86.8971 263.336 86.9048 263.227 86.9581C263.143 87.0021 263.075 87.0701 263.031 87.1532Z" fill="#603B3E"/>
<path opacity="0.76" d="M268.687 93.1038C268.634 93.1986 268.616 93.3089 268.636 93.4156C269.194 96.3845 269.243 98.9081 268.789 101.368C268.35 103.76 267.43 106.101 265.892 108.737C265.832 108.843 265.815 108.968 265.847 109.086C265.878 109.203 265.955 109.303 266.061 109.364C266.166 109.425 266.292 109.441 266.409 109.41C266.527 109.378 266.627 109.301 266.688 109.195C269.832 103.809 270.66 99.1838 269.542 93.2417C269.525 93.1495 269.479 93.0648 269.412 92.9992C269.345 92.9335 269.26 92.89 269.167 92.8745C269.075 92.859 268.98 92.8722 268.895 92.9125C268.81 92.9528 268.74 93.0181 268.694 93.0996L268.687 93.1038Z" fill="#603B3E"/>
</g>
<path d="M19.4935 134.077C29.5539 128.797 100.857 95.5511 107.911 95.3348C113.153 95.1736 129.754 96.7811 133.221 96.6538C137.986 96.4778 154.584 81.1114 165.612 80.1126C171.465 79.5845 190.738 86.0335 195.876 85.6497C202.132 85.1831 244.467 62.5195 242.287 58.8614C238.493 52.4993 230.068 49.4201 235.318 48.0459C243.08 46.0101 266.068 47.1977 267.801 53.1801C268.942 57.1309 265.873 70.5971 260.073 72.4782C254.481 74.2871 253.908 68.5019 248.781 72.3149C240.51 78.4648 206.456 101.23 198.607 101.752C191.302 102.238 172.608 94.987 166.861 96.4672C161.534 97.8372 144.057 110.888 135.933 112.436C128.723 113.802 116.012 109.359 109.425 110.833C103.502 112.158 28.4872 149.418 23.158 149.448C18.2804 149.473 13.6765 137.131 19.4935 134.077Z" fill="#ED6A0C"/>
<path d="M19.7459 136.166C29.8064 130.888 101.782 96.9062 108.837 96.6878C114.08 96.5266 130.68 98.1341 134.146 98.0068C138.911 97.8329 155.509 82.4644 166.537 81.4656C172.39 80.9397 191.662 87.3865 196.801 87.0027C203.059 86.5382 246 62.9945 243.926 59.2706C240.395 52.9086 231.79 49.9927 237.04 48.6164C244.802 46.5805 265.67 49.2717 267.886 53.443C270.218 57.8137 263.303 84.6402 257.859 87.3865C254.579 89.0406 255.692 70.2939 250.564 74.1069C242.293 80.2568 207.381 102.575 199.532 103.096C192.227 103.582 173.533 96.3315 167.786 97.8096C162.459 99.1796 144.982 112.23 136.858 113.778C129.648 115.144 116.936 110.701 110.35 112.175C104.427 113.5 29.412 150.771 24.0827 150.79C19.2052 150.826 13.9353 139.22 19.7459 136.166Z" fill="#ED6A0C"/>
<path d="M147.347 87.8255C128.405 87.4014 120.141 166.261 123.322 166.382C128.623 166.581 164.308 166.142 167.994 166.142C171.679 166.142 163.566 88.1945 147.347 87.8255Z" fill="#603B3E"/>
<path d="M148.333 104.491C151.086 103.351 152.393 100.195 151.253 97.442C150.112 94.6892 146.957 93.382 144.204 94.5222C141.451 95.6625 140.144 98.8183 141.284 101.571C142.424 104.324 145.58 105.631 148.333 104.491Z" fill="#1F1F39"/>
<path d="M149.248 100.201C149.641 98.5346 148.609 96.8647 146.942 96.4714C145.276 96.078 143.606 97.1102 143.213 98.7767C142.819 100.443 143.851 102.113 145.518 102.506C147.184 102.9 148.854 101.868 149.248 100.201Z" fill="white"/>
<path opacity="0.4" fill-rule="evenodd" clip-rule="evenodd" d="M22.6301 132.22C23.2345 133.255 23.5441 133.704 24.0552 133.993C27.6603 135.961 44.3776 134.262 46.5555 135.1C48.1524 135.714 47.2935 141.084 47.2935 141.084L49.8383 140.1L49.7556 131L39.3452 129.853L22.6301 132.22Z" fill="#1F1F39"/>
<path d="M50.5318 159.746C51.0832 158.317 52.0163 154.565 52.0163 154.565L48.1567 153.339L46.8058 158.987L48.8883 161.481L50.5318 159.746Z" fill="white"/>
<path d="M51.0088 159.212C51.433 159.248 51.1509 159.576 51.1042 160.234C50.994 161.739 56.056 163.415 56.7792 163.792C57.1545 163.983 57.1269 166.239 55.1653 165.597C53.4688 165.039 48.025 163.277 46.1716 162.655C45.9832 162.592 45.8209 162.469 45.7101 162.304C45.5993 162.139 45.5461 161.942 45.5587 161.744C45.6605 160.289 46.4282 158.228 46.9604 158.351C47.8257 158.355 49.1978 159.069 51.0088 159.212Z" fill="#1F1F39"/>
<path d="M52.9047 156.938C50.4086 159.137 47.7239 157.286 47.1471 156.938C46.4451 153.289 50.3789 135.988 48.2349 133.855C46.4175 132.042 30.099 135.736 23.6055 132.949H23.5885C23.2161 132.782 22.8863 132.532 22.6236 132.22C22.3691 131.935 22.1295 131.613 21.8008 131.28C21.2184 130.691 20.6982 130.044 20.2485 129.348C20.0873 129.102 19.9325 128.846 19.7819 128.581C19.7183 128.466 19.6398 128.313 19.5592 128.131C19.0588 126.99 18.484 124.708 20.8062 123.72C21.5693 123.379 22.3756 123.143 23.2025 123.02C24.1545 122.887 25.1247 123.002 26.0188 123.355C26.9307 123.701 27.7365 124.204 28.6675 124.581C29.513 124.977 30.4538 125.124 31.3799 125.005C35.9329 124.594 50.9409 124.229 54.158 129.459C57.375 134.688 52.9047 156.938 52.9047 156.938Z" fill="#3B3B4C"/>
<path opacity="0.4" d="M22.63 132.22C22.3756 131.935 22.1359 131.613 21.8072 131.28C21.2248 130.691 20.7046 130.044 20.2549 129.348C20.0937 129.102 19.9389 128.846 19.7884 128.58C19.7247 128.466 19.6463 128.313 19.5657 128.131C20.4882 126.859 22.0299 124.748 23.1199 123.135C23.1462 123.094 23.176 123.056 23.209 123.02C23.5801 122.632 24.1378 122.848 24.3987 122.982C24.4474 123.007 24.4949 123.035 24.5408 123.065C25.6011 123.784 26.25 124.301 26.4812 125.162C27.2298 127.961 24.5174 130.546 22.63 132.22Z" fill="#1F1F39"/>
<path d="M50.9198 88.0036C51.6684 87.4565 51.4775 90.1455 52.1689 89.1021C53.138 87.6431 56.0645 86.4301 56.9361 85.832C57.4253 85.4953 57.7677 84.9847 57.8934 84.4042C58.0191 83.8238 57.9187 83.2172 57.6126 82.7083C56.6329 81.086 55.2565 83.4866 54.2068 83.8746C53.7084 84.0591 53.929 82.4177 53.1465 82.5365C52.3639 82.6553 53.0383 83.5353 52.6312 84.5724C52.1816 85.7218 51.0364 86.3007 50.8498 86.7821C50.6632 87.2635 50.9198 88.0036 50.9198 88.0036Z" fill="#EFAEA6"/>
<path d="M10.5422 125.715C10.6059 126.64 8.43217 125.045 8.94538 126.188C9.66428 127.785 9.12989 130.907 9.1723 131.965C9.19396 132.559 9.44274 133.122 9.86732 133.538C10.2919 133.954 10.8599 134.191 11.4541 134.2C13.35 134.236 12.0522 131.793 12.2833 130.697C12.3936 130.177 13.6639 131.24 13.9798 130.506C14.2958 129.772 13.1931 129.883 12.5314 128.986C11.7998 127.993 11.9207 126.716 11.6132 126.301C11.3057 125.885 10.5422 125.715 10.5422 125.715Z" fill="#EFAEA6"/>
<path d="M22.91 92.843C23.3638 93.9882 23.6162 97.1798 24.352 98.3165L27.3379 97.4448C27.3379 97.4448 30.222 96.5605 29.4395 96.2255C28.3919 95.778 28.8309 96.0367 28.3092 95.6444C27.9911 95.4048 27.5669 94.864 27.1449 94.2596C26.5724 93.4389 26.0082 92.5016 25.7389 92.0393L25.5693 91.7508L25.5014 91.5176L23.1687 89.6705C23.1687 89.6705 22.418 91.5854 22.91 92.843Z" fill="#EFAEA6"/>
<path opacity="0.14" d="M27.1448 94.2596C26.5723 93.4389 26.0081 92.5016 25.7388 92.0392L24.9733 92.1114C24.9733 92.1114 24.0868 92.4485 24.0084 92.8812C23.8896 93.5322 25.9912 95.5638 27.1448 94.2596Z" fill="#1F1F3A"/>
<path opacity="0.46" d="M28.6846 128.848C28.6973 128.836 28.7093 128.824 28.7207 128.812C28.7079 128.823 28.6959 128.835 28.6846 128.848Z" fill="#1F1F3A"/>
<path opacity="0.35" d="M20.2251 128.846C20.346 128.795 25.951 126.513 26.2034 123.478C26.2034 123.478 21.2198 124.835 19.6293 125.302C19.8032 126.63 20.0385 128.112 20.2251 128.846Z" fill="#1F1F3A"/>
<path d="M23.3702 94.8406C24.6151 94.2511 25.1346 96.3633 26.4728 96.2254C27.179 96.1512 26.969 95.8798 27.2404 95.5023C27.408 95.2711 27.5564 95.0167 27.936 95.2902C35.6553 100.698 31.9271 118.582 32.9684 119.591C33.8166 120.418 28.6889 123.499 25.0774 123.3C20.1214 123.026 19.4767 117.882 19.4364 116.883C19.3961 115.884 19.4236 98.7957 19.4236 98.7957C20.8755 97.6209 22.1985 96.2951 23.3702 94.8406Z" fill="white"/>
<path d="M31.5369 121.336C31.7977 122.609 32.1391 123.51 32.7011 123.858C33.7106 124.481 34.9363 124.411 36.1133 122.662C36.1801 122.562 36.2396 122.458 36.2914 122.35C37.7589 119.381 35.0424 112.446 34.5186 110.727C34.3065 110.033 33.9545 109.111 33.6215 108.148C33.1974 106.952 33.4094 102.891 33.753 102.191C34.9978 99.5677 38.4778 99.6801 42.6259 97.4788C45.5524 95.9243 53.5092 89.363 53.4879 88.4681C53.4667 87.5731 51.3164 85.1577 50.8498 85.5564C50.0016 86.2774 42.2017 92.8218 41.0629 93.2799C39.1755 94.0412 33.7572 94.6371 27.9275 95.2839C27.9445 95.5124 27.9749 95.7397 28.0187 95.9646C28.0865 96.3527 28.2053 96.9147 28.411 97.6781C28.5319 98.1235 28.6846 98.6388 28.8733 99.2283C30.0694 102.944 28.3962 106.051 29.6813 110.576C30.1932 112.485 30.573 114.426 30.818 116.387C31.0873 118.28 31.2739 120.007 31.5369 121.336Z" fill="#016AA9"/>
<path d="M26.161 125.942C24.6766 128.176 21.837 130.669 19.5276 129.76C18.2891 129.276 18.4291 121.15 18.6115 117.381C18.6942 115.717 18.7302 114.213 18.567 113.299C18.567 113.269 18.5563 113.24 18.55 113.21C18.4376 112.656 18.3379 112.201 18.2467 111.8C18.1661 111.443 18.0919 111.13 18.0198 110.826C17.8671 110.171 17.7314 109.554 17.5808 108.706C17.5554 108.557 17.5299 108.405 17.5024 108.239C17.4133 107.686 17.3157 107.028 17.2054 106.208C16.8746 103.711 16.9679 100.193 17.8925 98.8127C19.1774 96.8701 21.1239 95.4602 23.3703 94.845C23.7732 96.3485 25.3213 102.904 25.8705 108.388C26.1314 110.964 25.8366 114.796 25.5885 116.949C25.141 120.825 27.3868 124.089 26.161 125.942Z" fill="#016AA9"/>
<path d="M22.7275 101.26C20.047 107.599 13.6384 113.098 13.4199 115.044C13.2015 116.991 12.6628 127.285 12.6628 127.285C12.6628 127.285 9.08104 128.273 8.65055 127.832C7.39723 126.543 8.1225 117.318 8.75446 114.406C9.6515 110.279 17.9264 98.5942 18.8807 97.5381C19.835 96.482 23.8854 96.0918 23.8091 98.0089C23.7603 99.1725 23.3855 100.299 22.7275 101.26Z" fill="#016AA9"/>
<path opacity="0.24" d="M18.5668 113.305C18.5668 113.276 18.5562 113.246 18.5498 113.216C18.4375 112.663 18.3378 112.207 18.2466 111.806C18.166 111.45 18.0918 111.136 18.0197 110.833C17.867 110.177 17.7313 109.56 17.5807 108.712L19.7607 106.725C19.7607 106.725 20.1086 110.434 18.5668 113.305Z" fill="#1F1F3A"/>
<path opacity="0.24" d="M26.6424 96.4036C26.5045 96.3697 26.1377 98.8721 24.8589 100.085C24.5076 100.43 24.0927 100.703 23.6374 100.889C22.2802 101.427 17.4874 103.06 15.6743 103.434C16.2256 102.409 16.6779 101.335 17.0251 100.225C18.4248 100.183 22.3077 99.926 23.0033 99.6079C23.5017 99.3764 23.9633 99.0727 24.3733 98.7066C25.0473 98.0911 25.6231 97.3759 26.0804 96.586C26.2925 96.2467 26.1949 95.8649 26.5385 95.7377C26.9944 95.5617 26.8205 96.4481 26.6424 96.4036Z" fill="#1F1F3A"/>
<path d="M27.1853 95.7271C27.1533 95.6515 27.1065 95.5831 27.0475 95.5259C26.9886 95.4687 26.9188 95.424 26.8423 95.3943C26.7657 95.3647 26.684 95.3507 26.6019 95.3532C26.5199 95.3557 26.4392 95.3747 26.3646 95.409C26.021 95.5384 26.0422 95.6826 25.8386 96.0219C25.2279 97.0377 24.2482 98.3652 22.7616 99.0439C21.275 99.7225 17.0548 98.9654 14.9426 100.206C12.8304 101.447 12.841 103.637 9.72577 105.245C6.6105 106.852 2.58334 106.71 1.66721 107.196C0.751083 107.681 0.23576 108.084 0.39481 108.443C0.553861 108.801 1.25792 109.251 2.03409 109.291C2.81025 109.331 8.97295 107.694 10.4871 106.958C12.9619 105.756 14.3849 102.77 16.0008 102.066C17.6168 101.362 21.4701 101.099 23.3914 100.337C25.5354 99.4892 26.4346 96.4587 26.6127 96.5033C26.711 96.5397 26.8167 96.5519 26.9208 96.539C27.0248 96.5261 27.1243 96.4884 27.2107 96.4291C27.391 96.3167 27.2765 95.9392 27.1853 95.7271Z" fill="#F3AD06"/>
<path d="M25.1197 87.8806C25.8174 88.6759 27.9487 89.6196 27.3676 90.0437C26.7866 90.4678 28.8521 91.7254 28.2434 92.1962C26.7823 93.3413 24.369 93.6658 23.648 93.0932C22.9269 92.5206 21.5569 90.453 21.5569 90.453L25.1197 87.8806Z" fill="#EFAEA6"/>
<path d="M24.1803 89.8232C24.6935 89.5326 24.7889 89.6323 25.0031 89.2336C25.2172 88.835 24.3117 88.8095 24.8546 88.2496C25.3975 87.6898 26.0464 87.1639 25.5947 86.4195C24.9416 85.3443 24.1527 86.1629 23.6861 86.6888C23.3829 87.0281 22.7212 86.3198 22.0277 86.8797C21.4827 87.3187 21.7881 87.5965 21.3195 88.0079C21.0374 88.2581 20.0789 88.1966 19.8732 88.9049C19.4893 90.2176 20.8296 90.5039 20.6281 91.7509C20.3927 93.2078 23.6819 93.5407 23.7519 93.159C23.8325 92.7137 22.7997 92.1368 22.9206 91.7382C23.103 91.1338 23.4062 91.4391 23.9809 91.507C24.598 91.5791 25.2872 91.1083 24.369 90.769C23.4507 90.4297 23.7158 90.0861 24.1803 89.8232Z" fill="#1B1C39"/>
<path opacity="0.46" d="M230.695 75.3453L230.651 75.3156C230.667 75.3236 230.682 75.3336 230.695 75.3453Z" fill="#1F1F39"/>
<path opacity="0.4" fill-rule="evenodd" clip-rule="evenodd" d="M236.33 65.0453C236.33 70.6736 221.958 85.7558 223.761 87.0663C224.883 87.8788 226.051 88.6272 227.258 89.3079L223.441 91.6576L216.392 86.903L231.474 67.887L236.33 65.0453Z" fill="#1F1F39"/>
<path d="M240.423 103.786C238.962 103.395 235.431 101.96 235.431 101.96L236.693 98.1702L241.977 100.376L242.758 103.482L240.423 103.786Z" fill="white"/>
<path d="M239.715 103.86C239.49 104.227 239.927 104.184 240.474 104.528C241.746 105.315 240.141 110.326 240.018 111.119C239.956 111.53 241.769 112.816 242.395 110.879C242.936 109.202 244.685 103.839 245.266 102C245.326 101.813 245.322 101.612 245.255 101.428C245.187 101.244 245.061 101.087 244.895 100.982C243.676 100.217 241.587 99.6356 241.377 100.134C240.877 100.817 240.652 102.333 239.715 103.86Z" fill="#1F1F39"/>
<path d="M214.148 89.1064C216.459 94.7028 237.286 103.786 237.286 103.786C240.489 103.071 240.584 98.8678 240.648 98.2125C238.143 95.5341 222.745 89.9313 222.287 86.9729C221.897 84.4727 233.124 73.5533 234.67 66.7566C234.67 66.7566 234.67 66.746 234.67 66.7396C234.86 65.8765 234.53 65.2721 234.377 64.3454C234.246 63.539 234.032 62.7482 233.741 61.9851C233.637 61.7158 233.529 61.4422 233.397 61.1686C233.009 60.3204 231.406 57.6822 228.927 59.1667C226.723 60.4836 225.973 61.7879 225.612 63.1133C225.36 64.04 225.294 64.9774 225.054 65.9359C224.877 66.8397 224.448 67.675 223.816 68.345C220.845 71.7508 211.845 83.5078 214.148 89.1064Z" fill="#3B3B4C"/>
<path d="M197.797 51.7528C196.907 51.6235 195.751 51.2672 194.616 50.9046C193.518 50.5589 192.528 50.4592 191.561 50.6777C190.712 50.8728 187.319 50.332 186.986 49.0575C186.846 48.5124 188.519 47.8169 189.497 48.1244C192.019 48.9175 190.933 47.0195 191.51 46.9431C192.178 46.852 192.343 48.4573 194.496 47.9653C195.694 47.6917 197.933 48.1668 198.376 48.4361C198.82 48.7054 197.797 51.7528 197.797 51.7528Z" fill="#EFAEA6"/>
<path opacity="0.4" d="M227.911 65.5839C229.771 67.8912 232.248 67.2974 234.676 66.7524C234.867 65.8893 234.536 65.2849 234.383 64.3581C234.252 63.5518 234.039 62.7609 233.747 61.9978C232.475 61.9851 229.2 62.0105 226.885 61.93C226.036 61.9003 226.004 63.0242 226.004 63.0242C225.958 64.2818 227.353 64.901 227.911 65.5839Z" fill="#1F1F39"/>
<path d="M223.059 34.9508C221.765 34.7175 221.842 36.8594 220.58 37.0863C219.916 37.2029 220.035 36.8891 219.689 36.6028C219.477 36.4246 219.265 36.2232 218.994 36.5773C213.34 43.7643 221.424 59.8008 220.732 61.0372C220.168 62.0466 225.759 62.9627 229.014 61.8176C233.478 60.2461 230.835 56.4607 230.613 55.5001C230.39 54.5394 227.699 37.661 227.699 37.661C226.059 36.9266 224.504 36.018 223.059 34.9508Z" fill="white"/>
<path d="M193.628 51.1167C194.071 51.2546 206.172 54.5798 208.897 52.896C210.806 51.7232 214.61 46.9135 216.014 47.3928C216.457 47.5455 216.729 49.1445 217.14 50.3257C217.636 51.7529 217.976 56.1024 217.965 56.8192C217.935 58.6599 217.13 63.7517 218.648 64.7993C220.332 65.9635 221.322 65.8978 222.083 65.0368C222.9 64.1101 221.39 57.9326 221.382 51.596C221.382 46.9496 219.032 44.4345 219.157 40.5812C219.25 37.6674 218.992 36.5774 218.992 36.5774C212.36 40.5155 208.903 47.3398 206.921 48.468C205.057 49.5283 194.067 46.9644 193.599 47.7661C193.427 48.0672 193.408 51.0467 193.628 51.1167Z" fill="#0068A5"/>
<path d="M252.18 37.1966C253.016 36.7025 253.592 36.4841 254.583 35.6655C255.541 34.8766 255.921 34.514 257.024 34.0389C257.885 33.6678 260.031 32.266 260.364 30.9046C260.661 29.6916 259.125 28.2601 258.527 29.2695C256.135 33.3094 254.941 30.1666 254.441 30.5419C253.592 31.1612 255.401 32.2046 253.079 32.6117C252.019 32.8335 251.059 33.3957 250.348 34.2128C250.011 34.6518 252.18 37.1966 252.18 37.1966Z" fill="#EFAEA6"/>
<path d="M223.059 34.9508C227.614 35.3367 238.752 38.5029 241.22 38.1996C243.689 37.8964 253.032 31.5513 253.635 32.2808C254.237 33.0103 255.488 34.7747 255.073 35.6124C254.657 36.4501 243.998 43.092 241.907 43.3253C239.055 43.6434 232.576 41.6075 232.114 43.1832C231.175 46.3833 231.478 51.6023 235.69 59.8559C236.521 61.4867 237.386 66.2349 235.104 66.044C232.822 65.8532 227.894 65.1958 227.302 63.4165C226.711 61.6373 227.328 57.0821 225.029 52.968C222.122 47.7575 223.059 34.9508 223.059 34.9508Z" fill="#0068A5"/>
<path opacity="0.18" d="M221.125 37.6674C221.135 37.6483 221.195 37.6674 221.292 37.7077C221.74 37.907 223.023 38.6556 224.338 38.9229C224.686 38.9969 225.042 39.0269 225.398 39.0119C225.893 38.9927 226.38 38.8842 226.836 38.6917L226.927 38.6514L226.955 38.6387C227.695 38.2824 229.699 37.3917 231.062 36.4374C230.876 36.2529 228.764 36.0557 228.577 35.8924C228.8 35.7228 230.305 35.5552 230.524 35.3877C230.644 35.2944 230.765 35.2053 230.884 35.1162C230.562 34.9317 230.258 34.76 229.981 34.6052L229.633 34.883C229.457 35.0208 229.279 35.1608 229.099 35.3071C227.93 36.2063 226.742 37.0355 226.342 37.2051C226.024 37.3342 225.694 37.4336 225.358 37.502L225.112 37.5465C224.95 37.5741 224.791 37.5953 224.63 37.608C224.278 37.6403 223.923 37.6474 223.57 37.6292C222.937 37.5967 222.307 37.5094 221.689 37.3684C221.265 37.2772 221.023 36.9209 220.671 37.0948C220.19 37.3154 221.036 37.8328 221.125 37.6674Z" fill="#1F1F39"/>
<path d="M220.737 38.1361C220.847 38.1125 220.95 38.0611 221.035 37.9869C221.12 37.9127 221.184 37.8181 221.222 37.7119C221.222 37.6992 221.254 37.695 221.294 37.6992C221.583 37.7353 222.705 38.1976 224.001 38.3566C224.679 38.453 225.37 38.4207 226.036 38.2612C226.244 38.2085 226.447 38.1375 226.643 38.0491C227.576 37.608 228.721 36.7534 229.854 35.8924L230.517 35.3877C230.638 35.2944 230.759 35.2053 230.878 35.1162C231.796 34.427 232.657 33.8205 233.331 33.5278C235.06 32.7771 238.504 33.8862 241.25 32.8407C242.934 32.2045 248.66 28.5697 249.19 27.9356C249.72 27.3016 249.86 26.413 249.68 26.027C249.499 25.6411 248.804 25.7407 247.756 26.0991C246.709 26.4575 243.939 29.7255 240.41 30.9767C236.881 32.2279 235.109 30.5844 232.587 31.3202C231.196 31.7253 229.841 33.091 228.634 34.3443C228.476 34.5083 228.321 34.6695 228.17 34.8278C227.375 35.6464 226.658 36.3505 226.049 36.5986C225.574 36.7915 225.074 36.9192 224.565 36.9782C224.108 37.0343 223.647 37.0485 223.188 37.0206C222.581 36.9849 221.978 36.8991 221.386 36.764C220.962 36.6707 220.862 36.5519 220.512 36.7195C220.431 36.7539 220.357 36.8046 220.296 36.8685C220.235 36.9324 220.188 37.0081 220.157 37.091C220.127 37.1738 220.114 37.2621 220.118 37.3503C220.123 37.4385 220.146 37.5247 220.185 37.6038C220.298 37.8201 220.52 38.1933 220.737 38.1361Z" fill="#F3AD06"/>
<path d="M253.739 145.018L248.98 145.088C248.246 145.088 247.663 145.953 247.68 146.997L247.722 149.883C247.722 149.889 247.725 149.896 247.73 149.901C247.735 149.906 247.741 149.908 247.748 149.908L248.634 149.895C248.641 149.895 248.646 149.892 248.651 149.887C248.655 149.883 248.658 149.876 248.658 149.87L248.628 147.836C248.628 147.058 249.052 146.42 249.599 146.411L253.158 146.358C253.705 146.358 254.159 146.975 254.171 147.754L254.201 149.787C254.201 149.794 254.204 149.8 254.209 149.805C254.214 149.809 254.22 149.812 254.226 149.813L255.113 149.798C255.12 149.798 255.126 149.795 255.131 149.79C255.136 149.786 255.138 149.779 255.138 149.772L255.094 146.886C255.079 145.843 254.472 145.007 253.739 145.018Z" fill="#221C2D"/>
<path d="M248.98 145.077C248.246 145.077 247.663 145.943 247.68 146.986L247.722 149.872C247.722 149.879 247.725 149.885 247.73 149.89C247.735 149.895 247.741 149.898 247.748 149.898L248.634 149.885C248.641 149.884 248.646 149.881 248.651 149.877C248.655 149.872 248.658 149.866 248.658 149.859L248.628 147.824C248.615 147.047 249.052 146.409 249.599 146.401L249.964 145.109C249.965 145.105 249.965 145.102 249.964 145.098C249.963 145.094 249.962 145.091 249.96 145.088C249.958 145.085 249.955 145.082 249.951 145.08C249.948 145.078 249.944 145.077 249.94 145.077H248.98Z" fill="#221C2D"/>
<path d="M236.648 151.227L236.773 164.624C236.775 164.817 236.815 165.007 236.89 165.185C236.966 165.362 237.076 165.523 237.214 165.658C237.352 165.793 237.515 165.9 237.694 165.971C237.873 166.043 238.065 166.079 238.258 166.076H238.275L262.198 166.159C264.898 166.133 264.862 164.227 264.855 163.434L265.116 150.769C265.116 149.972 264.128 147.889 261.969 147.938L240.684 148.123H239.884C238.122 148.146 236.631 149.427 236.648 151.227Z" fill="#603B3E"/>
<path d="M236.648 151.227L236.773 164.624C236.775 164.816 236.815 165.007 236.89 165.185C236.966 165.362 237.076 165.523 237.214 165.658C237.352 165.793 237.515 165.9 237.694 165.971C237.873 166.043 238.065 166.079 238.258 166.076C238.263 166.076 238.268 166.074 238.272 166.071C238.276 166.068 238.279 166.064 238.281 166.059C238.546 165.262 238.705 164.009 238.559 162.043C238.198 157.269 239.515 151.844 240.68 148.156C240.681 148.153 240.682 148.149 240.681 148.145C240.681 148.141 240.679 148.137 240.677 148.134C240.674 148.131 240.671 148.128 240.668 148.127C240.664 148.125 240.66 148.124 240.656 148.125H239.891C238.122 148.146 236.631 149.427 236.648 151.227Z" fill="#785256"/>
<path opacity="0.1" d="M233.582 165.754C233.582 166.538 241.84 167.45 251.357 167.45C260.875 167.45 268.585 166.814 268.585 166.029C268.585 165.245 260.873 164.609 251.357 164.609C241.842 164.609 233.582 164.969 233.582 165.754Z" fill="#333340"/>
<g opacity="0.82">
<path opacity="0.82" fill-rule="evenodd" clip-rule="evenodd" d="M149.972 5.68553C149.633 9.32036 152.05 11.5301 155.416 10.3107C158.61 9.15283 159.292 11.6616 161.935 11.9394C164.749 12.2363 165.521 8.59509 167.489 10.1114C171.289 13.0358 175.007 10.8006 173.73 6.8519C172.697 3.67089 170.744 2.90957 169.088 2.85443C166.087 2.75264 166.783 0.19935 163.292 0.0106104C158.839 -0.233267 160.081 3.81722 156.097 2.87776C153.626 2.29457 150.15 3.76632 149.972 5.68553Z" fill="white"/>
</g>
<path d="M204.107 129.369C201.106 129.369 194.943 134.688 203.752 135.541C212.562 136.393 225.754 136.001 231.092 136.02C239.806 136.05 241.969 135.691 241.908 132.131C241.867 130.071 240.754 128.737 236.16 128.197C231.383 127.635 233.828 122.318 227.99 122.471C223.021 122.609 222.514 129.565 217.967 127.862C213.421 126.159 214.373 130.801 211.048 131.653C207.385 132.599 207.105 129.369 204.107 129.369Z" fill="white"/>
<path d="M84.8865 52.8323C92.2728 53.3243 99.3304 52.6817 106.579 51.0403C107.69 50.7901 108.869 50.4529 109.622 49.5198C110.763 48.1074 110.419 45.7259 109.198 44.4069C107.976 43.0878 106.112 42.6934 104.401 42.8779C103.307 42.9945 102.183 43.319 101.125 42.9818C99.8034 42.5576 98.9296 41.2343 98.0431 40.0786C97.1567 38.9228 95.9585 37.7798 94.5928 37.9579C93.5706 38.0936 92.7627 38.9398 91.8529 39.4699C90.9431 40.0001 89.6199 40.0574 89.096 39.0797C87.9785 36.9909 89.5477 31.2629 83.7944 31.2629C75.4898 31.2629 76.847 37.029 75.8461 38.2612C74.3319 40.1146 71.6344 39.7075 69.4374 39.0797C67.2404 38.452 64.6278 37.8561 62.9355 39.5039C61.4658 40.9417 61.3153 43.5777 59.7545 44.8925C58.0919 46.2921 55.7252 45.5457 53.7169 44.9179C51.7086 44.2902 49.1045 44.0591 47.936 45.9677C46.9562 47.5688 47.6857 49.893 49.0811 51.0573C50.4765 52.2215 52.313 52.5163 54.0647 52.6329C65.4336 53.4028 75.7612 52.2258 84.8865 52.8323Z" fill="white"/>
<path d="M221.227 39.4869L223.967 37.0842C223.273 35.8012 221.91 32.4675 221.066 31.4453C220.141 30.3235 220.067 30.4528 220.067 30.4528L218.809 32.6859L218.218 33.7462C218.533 34.1657 218.759 34.6458 218.881 35.1565C219.12 36.0778 219.192 37.0345 219.093 37.9812C219.015 38.8931 221.227 39.4869 221.227 39.4869Z" fill="#EFAEA6"/>
<path opacity="0.14" d="M218.218 33.7378C218.534 34.2161 218.771 34.7424 218.919 35.2965C221.076 35.1077 221.346 33.2267 220.637 32.9849C220.035 32.846 219.424 32.7461 218.809 32.6859L218.218 33.7378Z" fill="#1F1F39"/>
<path d="M215.495 29.6067C215.643 30.7582 214.886 33.1843 215.649 33.0168C216.413 32.8492 215.963 35.4492 216.782 35.3007C218.765 34.9402 220.76 33.2055 220.811 32.2003C220.862 31.1951 220.152 28.5697 220.152 28.5697L215.495 29.6067Z" fill="#EFAEA6"/>
<path d="M217.7 30.4613C217.087 30.2811 217.163 30.6119 216.684 30.4974C216.205 30.3829 216.826 29.6173 215.986 29.6491C215.147 29.6809 214.644 29.6046 214.445 28.6736C214.317 28.0819 214.657 27.3609 215.42 27.3567C215.914 27.3567 215.651 26.5254 216.576 26.2645C217.308 26.0525 217.636 26.5423 218.379 26.6335C218.786 26.6844 219.636 26.0631 220.361 26.4087C221.71 27.0449 220.718 27.9971 221.884 28.7415C223.243 29.6088 221.089 32.3848 220.711 32.5778C220.571 32.6499 220.115 32.406 220.336 31.7465C220.448 31.405 220.433 30.6989 220.228 30.6034C219.863 30.4338 219.167 29.9142 219.182 30.8155C219.197 31.4517 219.933 33.5363 219.782 33.7526C219.401 34.3082 216.657 35.8415 216.436 35.0844C216.162 34.1471 218.845 34.4249 218.502 33.4769C218.239 32.7538 216.296 33.9647 215.969 33.4112C215.594 32.775 218.586 33.0316 218.614 32.3509C218.65 31.5386 218.05 30.5653 217.7 30.4613Z" fill="#1F1F39"/>
<path d="M217.912 105.389C217.168 104.074 215.717 100.55 215.717 100.55L219.303 98.7936L221.434 104.095L219.765 106.831L217.912 105.389Z" fill="white"/>
<path d="M217.369 104.937C216.945 105.035 217.284 105.315 217.427 105.949C217.753 107.401 213.06 109.766 212.407 110.243C212.07 110.487 212.424 112.682 214.243 111.77C215.819 110.979 220.873 108.468 222.588 107.594C222.764 107.506 222.904 107.362 222.989 107.184C223.073 107.007 223.097 106.807 223.055 106.615C222.745 105.211 221.698 103.313 221.195 103.51C220.351 103.637 219.117 104.536 217.369 104.937Z" fill="#1F1F39"/>
<path d="M227.103 57.9261C222.283 58.1382 206.174 75.92 205.542 77.5021C204.019 81.3193 215.842 103.48 215.842 103.48C215.842 103.48 222.054 102.433 221.797 101.648C221.54 100.863 212.534 81.6268 212.807 80.3925C213.081 79.1583 226.897 69.7892 228.382 65.9953C229.866 62.2014 227.103 57.9261 227.103 57.9261Z" fill="#3B3B4C"/>
<path opacity="0.4" d="M227.103 57.9261C222.283 58.1382 206.174 75.92 205.542 77.5021C204.019 81.3193 215.842 103.48 215.842 103.48C215.842 103.48 222.054 102.433 221.797 101.648C221.54 100.863 212.534 81.6268 212.807 80.3925C213.081 79.1583 226.897 69.7892 228.382 65.9953C229.866 62.2014 227.103 57.9261 227.103 57.9261Z" fill="#1F1F39"/>
<path d="M66.3774 149.121C65.9066 147.662 64.2716 144.161 64.2716 144.161L60.501 145.631L63.0034 150.869L66.1844 151.505L66.3774 149.121Z" fill="white"/>
<path d="M66.4135 148.407C66.7719 148.161 66.7528 148.6 67.1282 149.143C67.9891 150.381 72.9812 148.506 73.7786 148.343C74.19 148.258 75.5875 150.029 73.6577 150.763C71.9866 151.399 66.6446 153.443 64.8123 154.124C64.6261 154.194 64.4221 154.199 64.2322 154.141C64.0422 154.082 63.8771 153.962 63.7626 153.8C62.9271 152.606 62.2294 150.519 62.7214 150.281C63.3979 149.738 64.9142 149.433 66.4135 148.407Z" fill="#1F1F39"/>
<path d="M24.6468 123.406C28.1183 119.96 52.4403 120.136 54.0541 120.751C57.9456 122.236 66.3731 146.265 66.3731 146.265C66.3731 146.265 61.3281 150.182 60.9209 149.446C60.5137 148.71 52.3343 128.793 51.2252 128.15C50.1161 127.508 33.6384 131.384 29.7915 129.891C25.9446 128.398 24.6468 123.406 24.6468 123.406Z" fill="#3B3B4C"/>
<path opacity="0.4" d="M24.6468 123.406C28.1183 119.96 52.4403 120.136 54.0541 120.751C57.9456 122.236 66.3731 146.265 66.3731 146.265C66.3731 146.265 61.3281 150.182 60.9209 149.446C60.5137 148.71 52.3343 128.793 51.2252 128.15C50.1161 127.508 33.6384 131.384 29.7915 129.891C25.9446 128.398 24.6468 123.406 24.6468 123.406Z" fill="#1F1F39"/>
<path d="M146.477 87.8255C124.091 87.062 116.974 166.261 120.155 166.382C125.457 166.581 161.142 166.142 164.83 166.142C168.517 166.142 162.698 88.3811 146.477 87.8255Z" fill="#313148"/>
<g opacity="0.76">
<path opacity="0.76" d="M263.031 87.1532C262.995 87.2177 262.976 87.2899 262.973 87.3638C262.971 87.4376 262.987 87.5108 263.019 87.5774C265.564 92.7242 265.841 97.7927 263.844 103.075C263.822 103.132 263.812 103.192 263.814 103.252C263.816 103.312 263.83 103.371 263.855 103.426C263.88 103.481 263.915 103.531 263.959 103.572C264.003 103.613 264.055 103.646 264.111 103.667C264.167 103.688 264.227 103.698 264.288 103.696C264.348 103.694 264.407 103.681 264.462 103.656C264.517 103.631 264.566 103.596 264.608 103.552C264.649 103.508 264.681 103.456 264.703 103.4C266.796 97.8669 266.514 92.5567 263.842 87.1702C263.788 87.0606 263.693 86.9766 263.578 86.9369C263.463 86.8971 263.336 86.9048 263.227 86.9581C263.143 87.0021 263.075 87.0701 263.031 87.1532Z" fill="#603B3E"/>
<path opacity="0.76" d="M268.687 93.1038C268.634 93.1986 268.616 93.3089 268.636 93.4156C269.194 96.3845 269.243 98.9081 268.789 101.368C268.35 103.76 267.43 106.101 265.892 108.737C265.832 108.843 265.815 108.968 265.847 109.086C265.878 109.203 265.955 109.303 266.061 109.364C266.166 109.425 266.292 109.441 266.409 109.41C266.527 109.378 266.627 109.301 266.688 109.195C269.832 103.809 270.66 99.1838 269.542 93.2417C269.525 93.1495 269.479 93.0648 269.412 92.9992C269.345 92.9335 269.26 92.89 269.167 92.8745C269.075 92.859 268.98 92.8722 268.895 92.9125C268.81 92.9528 268.74 93.0181 268.694 93.0996L268.687 93.1038Z" fill="#603B3E"/>
</g>
<path d="M19.4935 134.077C29.5539 128.797 100.857 95.5511 107.911 95.3348C113.153 95.1736 129.754 96.7811 133.221 96.6538C137.986 96.4778 154.584 81.1114 165.612 80.1126C171.465 79.5845 190.738 86.0335 195.876 85.6497C202.132 85.1831 244.467 62.5195 242.287 58.8614C238.493 52.4993 230.068 49.4201 235.318 48.0459C243.08 46.0101 266.068 47.1977 267.801 53.1801C268.942 57.1309 265.873 70.5971 260.073 72.4782C254.481 74.2871 253.908 68.5019 248.781 72.3149C240.51 78.4648 206.456 101.23 198.607 101.752C191.302 102.238 172.608 94.987 166.861 96.4672C161.534 97.8372 144.057 110.888 135.933 112.436C128.723 113.802 116.012 109.359 109.425 110.833C103.502 112.158 28.4872 149.418 23.158 149.448C18.2804 149.473 13.6765 137.131 19.4935 134.077Z" fill="#ED6A0C"/>
<path d="M19.7459 136.166C29.8064 130.888 101.782 96.9062 108.837 96.6878C114.08 96.5266 130.68 98.1341 134.146 98.0068C138.911 97.8329 155.509 82.4644 166.537 81.4656C172.39 80.9397 191.662 87.3865 196.801 87.0027C203.059 86.5382 246 62.9945 243.926 59.2706C240.395 52.9086 231.79 49.9927 237.04 48.6164C244.802 46.5805 265.67 49.2717 267.886 53.443C270.218 57.8137 263.303 84.6402 257.859 87.3865C254.579 89.0406 255.692 70.2939 250.564 74.1069C242.293 80.2568 207.381 102.575 199.532 103.096C192.227 103.582 173.533 96.3315 167.786 97.8096C162.459 99.1796 144.982 112.23 136.858 113.778C129.648 115.144 116.936 110.701 110.35 112.175C104.427 113.5 29.412 150.771 24.0827 150.79C19.2052 150.826 13.9353 139.22 19.7459 136.166Z" fill="#ED6A0C"/>
<path d="M147.347 87.8255C128.405 87.4014 120.141 166.261 123.322 166.382C128.623 166.581 164.308 166.142 167.994 166.142C171.679 166.142 163.566 88.1945 147.347 87.8255Z" fill="#603B3E"/>
<path d="M148.333 104.491C151.086 103.351 152.393 100.195 151.253 97.442C150.112 94.6892 146.957 93.382 144.204 94.5222C141.451 95.6625 140.144 98.8183 141.284 101.571C142.424 104.324 145.58 105.631 148.333 104.491Z" fill="#1F1F39"/>
<path d="M149.248 100.201C149.641 98.5346 148.609 96.8647 146.942 96.4714C145.276 96.078 143.606 97.1102 143.213 98.7767C142.819 100.443 143.851 102.113 145.518 102.506C147.184 102.9 148.854 101.868 149.248 100.201Z" fill="white"/>
<path opacity="0.4" fill-rule="evenodd" clip-rule="evenodd" d="M22.6301 132.22C23.2345 133.255 23.5441 133.704 24.0552 133.993C27.6603 135.961 44.3776 134.262 46.5555 135.1C48.1524 135.714 47.2935 141.084 47.2935 141.084L49.8383 140.1L49.7556 131L39.3452 129.853L22.6301 132.22Z" fill="#1F1F39"/>
<path d="M50.5318 159.746C51.0832 158.317 52.0163 154.565 52.0163 154.565L48.1567 153.339L46.8058 158.987L48.8883 161.481L50.5318 159.746Z" fill="white"/>
<path d="M51.0088 159.212C51.433 159.248 51.1509 159.576 51.1042 160.234C50.994 161.739 56.056 163.415 56.7792 163.792C57.1545 163.983 57.1269 166.239 55.1653 165.597C53.4688 165.039 48.025 163.277 46.1716 162.655C45.9832 162.592 45.8209 162.469 45.7101 162.304C45.5993 162.139 45.5461 161.942 45.5587 161.744C45.6605 160.289 46.4282 158.228 46.9604 158.351C47.8257 158.355 49.1978 159.069 51.0088 159.212Z" fill="#1F1F39"/>
<path d="M52.9047 156.938C50.4086 159.137 47.7239 157.286 47.1471 156.938C46.4451 153.289 50.3789 135.988 48.2349 133.855C46.4175 132.042 30.099 135.736 23.6055 132.949H23.5885C23.2161 132.782 22.8863 132.532 22.6236 132.22C22.3691 131.935 22.1295 131.613 21.8008 131.28C21.2184 130.691 20.6982 130.044 20.2485 129.348C20.0873 129.102 19.9325 128.846 19.7819 128.581C19.7183 128.466 19.6398 128.313 19.5592 128.131C19.0588 126.99 18.484 124.708 20.8062 123.72C21.5693 123.379 22.3756 123.143 23.2025 123.02C24.1545 122.887 25.1247 123.002 26.0188 123.355C26.9307 123.701 27.7365 124.204 28.6675 124.581C29.513 124.977 30.4538 125.124 31.3799 125.005C35.9329 124.594 50.9409 124.229 54.158 129.459C57.375 134.688 52.9047 156.938 52.9047 156.938Z" fill="#3B3B4C"/>
<path opacity="0.4" d="M22.63 132.22C22.3756 131.935 22.1359 131.613 21.8072 131.28C21.2248 130.691 20.7046 130.044 20.2549 129.348C20.0937 129.102 19.9389 128.846 19.7884 128.58C19.7247 128.466 19.6463 128.313 19.5657 128.131C20.4882 126.859 22.0299 124.748 23.1199 123.135C23.1462 123.094 23.176 123.056 23.209 123.02C23.5801 122.632 24.1378 122.848 24.3987 122.982C24.4474 123.007 24.4949 123.035 24.5408 123.065C25.6011 123.784 26.25 124.301 26.4812 125.162C27.2298 127.961 24.5174 130.546 22.63 132.22Z" fill="#1F1F39"/>
<path d="M50.9198 88.0036C51.6684 87.4565 51.4775 90.1455 52.1689 89.1021C53.138 87.6431 56.0645 86.4301 56.9361 85.832C57.4253 85.4953 57.7677 84.9847 57.8934 84.4042C58.0191 83.8238 57.9187 83.2172 57.6126 82.7083C56.6329 81.086 55.2565 83.4866 54.2068 83.8746C53.7084 84.0591 53.929 82.4177 53.1465 82.5365C52.3639 82.6553 53.0383 83.5353 52.6312 84.5724C52.1816 85.7218 51.0364 86.3007 50.8498 86.7821C50.6632 87.2635 50.9198 88.0036 50.9198 88.0036Z" fill="#EFAEA6"/>
<path d="M10.5422 125.715C10.6059 126.64 8.43217 125.045 8.94538 126.188C9.66428 127.785 9.12989 130.907 9.1723 131.965C9.19396 132.559 9.44274 133.122 9.86732 133.538C10.2919 133.954 10.8599 134.191 11.4541 134.2C13.35 134.236 12.0522 131.793 12.2833 130.697C12.3936 130.177 13.6639 131.24 13.9798 130.506C14.2958 129.772 13.1931 129.883 12.5314 128.986C11.7998 127.993 11.9207 126.716 11.6132 126.301C11.3057 125.885 10.5422 125.715 10.5422 125.715Z" fill="#EFAEA6"/>
<path d="M22.91 92.843C23.3638 93.9882 23.6162 97.1798 24.352 98.3165L27.3379 97.4448C27.3379 97.4448 30.222 96.5605 29.4395 96.2255C28.3919 95.778 28.8309 96.0367 28.3092 95.6444C27.9911 95.4048 27.5669 94.864 27.1449 94.2596C26.5724 93.4389 26.0082 92.5016 25.7389 92.0393L25.5693 91.7508L25.5014 91.5176L23.1687 89.6705C23.1687 89.6705 22.418 91.5854 22.91 92.843Z" fill="#EFAEA6"/>
<path opacity="0.14" d="M27.1448 94.2596C26.5723 93.4389 26.0081 92.5016 25.7388 92.0392L24.9733 92.1114C24.9733 92.1114 24.0868 92.4485 24.0084 92.8812C23.8896 93.5322 25.9912 95.5638 27.1448 94.2596Z" fill="#1F1F3A"/>
<path opacity="0.46" d="M28.6846 128.848C28.6973 128.836 28.7093 128.824 28.7207 128.812C28.7079 128.823 28.6959 128.835 28.6846 128.848Z" fill="#1F1F3A"/>
<path opacity="0.35" d="M20.2251 128.846C20.346 128.795 25.951 126.513 26.2034 123.478C26.2034 123.478 21.2198 124.835 19.6293 125.302C19.8032 126.63 20.0385 128.112 20.2251 128.846Z" fill="#1F1F3A"/>
<path d="M23.3702 94.8406C24.6151 94.2511 25.1346 96.3633 26.4728 96.2254C27.179 96.1512 26.969 95.8798 27.2404 95.5023C27.408 95.2711 27.5564 95.0167 27.936 95.2902C35.6553 100.698 31.9271 118.582 32.9684 119.591C33.8166 120.418 28.6889 123.499 25.0774 123.3C20.1214 123.026 19.4767 117.882 19.4364 116.883C19.3961 115.884 19.4236 98.7957 19.4236 98.7957C20.8755 97.6209 22.1985 96.2951 23.3702 94.8406Z" fill="white"/>
<path d="M31.5369 121.336C31.7977 122.609 32.1391 123.51 32.7011 123.858C33.7106 124.481 34.9363 124.411 36.1133 122.662C36.1801 122.562 36.2396 122.458 36.2914 122.35C37.7589 119.381 35.0424 112.446 34.5186 110.727C34.3065 110.033 33.9545 109.111 33.6215 108.148C33.1974 106.952 33.4094 102.891 33.753 102.191C34.9978 99.5677 38.4778 99.6801 42.6259 97.4788C45.5524 95.9243 53.5092 89.363 53.4879 88.4681C53.4667 87.5731 51.3164 85.1577 50.8498 85.5564C50.0016 86.2774 42.2017 92.8218 41.0629 93.2799C39.1755 94.0412 33.7572 94.6371 27.9275 95.2839C27.9445 95.5124 27.9749 95.7397 28.0187 95.9646C28.0865 96.3527 28.2053 96.9147 28.411 97.6781C28.5319 98.1235 28.6846 98.6388 28.8733 99.2283C30.0694 102.944 28.3962 106.051 29.6813 110.576C30.1932 112.485 30.573 114.426 30.818 116.387C31.0873 118.28 31.2739 120.007 31.5369 121.336Z" fill="#016AA9"/>
<path d="M26.161 125.942C24.6766 128.176 21.837 130.669 19.5276 129.76C18.2891 129.276 18.4291 121.15 18.6115 117.381C18.6942 115.717 18.7302 114.213 18.567 113.299C18.567 113.269 18.5563 113.24 18.55 113.21C18.4376 112.656 18.3379 112.201 18.2467 111.8C18.1661 111.443 18.0919 111.13 18.0198 110.826C17.8671 110.171 17.7314 109.554 17.5808 108.706C17.5554 108.557 17.5299 108.405 17.5024 108.239C17.4133 107.686 17.3157 107.028 17.2054 106.208C16.8746 103.711 16.9679 100.193 17.8925 98.8127C19.1774 96.8701 21.1239 95.4602 23.3703 94.845C23.7732 96.3485 25.3213 102.904 25.8705 108.388C26.1314 110.964 25.8366 114.796 25.5885 116.949C25.141 120.825 27.3868 124.089 26.161 125.942Z" fill="#016AA9"/>
<path d="M22.7275 101.26C20.047 107.599 13.6384 113.098 13.4199 115.044C13.2015 116.991 12.6628 127.285 12.6628 127.285C12.6628 127.285 9.08104 128.273 8.65055 127.832C7.39723 126.543 8.1225 117.318 8.75446 114.406C9.6515 110.279 17.9264 98.5942 18.8807 97.5381C19.835 96.482 23.8854 96.0918 23.8091 98.0089C23.7603 99.1725 23.3855 100.299 22.7275 101.26Z" fill="#016AA9"/>
<path opacity="0.24" d="M18.5668 113.305C18.5668 113.276 18.5562 113.246 18.5498 113.216C18.4375 112.663 18.3378 112.207 18.2466 111.806C18.166 111.45 18.0918 111.136 18.0197 110.833C17.867 110.177 17.7313 109.56 17.5807 108.712L19.7607 106.725C19.7607 106.725 20.1086 110.434 18.5668 113.305Z" fill="#1F1F3A"/>
<path opacity="0.24" d="M26.6424 96.4036C26.5045 96.3697 26.1377 98.8721 24.8589 100.085C24.5076 100.43 24.0927 100.703 23.6374 100.889C22.2802 101.427 17.4874 103.06 15.6743 103.434C16.2256 102.409 16.6779 101.335 17.0251 100.225C18.4248 100.183 22.3077 99.926 23.0033 99.6079C23.5017 99.3764 23.9633 99.0727 24.3733 98.7066C25.0473 98.0911 25.6231 97.3759 26.0804 96.586C26.2925 96.2467 26.1949 95.8649 26.5385 95.7377C26.9944 95.5617 26.8205 96.4481 26.6424 96.4036Z" fill="#1F1F3A"/>
<path d="M27.1853 95.7271C27.1533 95.6515 27.1065 95.5831 27.0475 95.5259C26.9886 95.4687 26.9188 95.424 26.8423 95.3943C26.7657 95.3647 26.684 95.3507 26.6019 95.3532C26.5199 95.3557 26.4392 95.3747 26.3646 95.409C26.021 95.5384 26.0422 95.6826 25.8386 96.0219C25.2279 97.0377 24.2482 98.3652 22.7616 99.0439C21.275 99.7225 17.0548 98.9654 14.9426 100.206C12.8304 101.447 12.841 103.637 9.72577 105.245C6.6105 106.852 2.58334 106.71 1.66721 107.196C0.751083 107.681 0.23576 108.084 0.39481 108.443C0.553861 108.801 1.25792 109.251 2.03409 109.291C2.81025 109.331 8.97295 107.694 10.4871 106.958C12.9619 105.756 14.3849 102.77 16.0008 102.066C17.6168 101.362 21.4701 101.099 23.3914 100.337C25.5354 99.4892 26.4346 96.4587 26.6127 96.5033C26.711 96.5397 26.8167 96.5519 26.9208 96.539C27.0248 96.5261 27.1243 96.4884 27.2107 96.4291C27.391 96.3167 27.2765 95.9392 27.1853 95.7271Z" fill="#F3AD06"/>
<path d="M25.1197 87.8806C25.8174 88.6759 27.9487 89.6196 27.3676 90.0437C26.7866 90.4678 28.8521 91.7254 28.2434 92.1962C26.7823 93.3413 24.369 93.6658 23.648 93.0932C22.9269 92.5206 21.5569 90.453 21.5569 90.453L25.1197 87.8806Z" fill="#EFAEA6"/>
<path d="M24.1803 89.8232C24.6935 89.5326 24.7889 89.6323 25.0031 89.2336C25.2172 88.835 24.3117 88.8095 24.8546 88.2496C25.3975 87.6898 26.0464 87.1639 25.5947 86.4195C24.9416 85.3443 24.1527 86.1629 23.6861 86.6888C23.3829 87.0281 22.7212 86.3198 22.0277 86.8797C21.4827 87.3187 21.7881 87.5965 21.3195 88.0079C21.0374 88.2581 20.0789 88.1966 19.8732 88.9049C19.4893 90.2176 20.8296 90.5039 20.6281 91.7509C20.3927 93.2078 23.6819 93.5407 23.7519 93.159C23.8325 92.7137 22.7997 92.1368 22.9206 91.7382C23.103 91.1338 23.4062 91.4391 23.9809 91.507C24.598 91.5791 25.2872 91.1083 24.369 90.769C23.4507 90.4297 23.7158 90.0861 24.1803 89.8232Z" fill="#1B1C39"/>
<path opacity="0.46" d="M230.695 75.3453L230.651 75.3156C230.667 75.3236 230.682 75.3336 230.695 75.3453Z" fill="#1F1F39"/>
<path opacity="0.4" fill-rule="evenodd" clip-rule="evenodd" d="M236.33 65.0453C236.33 70.6736 221.958 85.7558 223.761 87.0663C224.883 87.8788 226.051 88.6272 227.258 89.3079L223.441 91.6576L216.392 86.903L231.474 67.887L236.33 65.0453Z" fill="#1F1F39"/>
<path d="M240.423 103.786C238.962 103.395 235.431 101.96 235.431 101.96L236.693 98.1702L241.977 100.376L242.758 103.482L240.423 103.786Z" fill="white"/>
<path d="M239.715 103.86C239.49 104.227 239.927 104.184 240.474 104.528C241.746 105.315 240.141 110.326 240.018 111.119C239.956 111.53 241.769 112.816 242.395 110.879C242.936 109.202 244.685 103.839 245.266 102C245.326 101.813 245.322 101.612 245.255 101.428C245.187 101.244 245.061 101.087 244.895 100.982C243.676 100.217 241.587 99.6356 241.377 100.134C240.877 100.817 240.652 102.333 239.715 103.86Z" fill="#1F1F39"/>
<path d="M214.148 89.1064C216.459 94.7028 237.286 103.786 237.286 103.786C240.489 103.071 240.584 98.8678 240.648 98.2125C238.143 95.5341 222.745 89.9313 222.287 86.9729C221.897 84.4727 233.124 73.5533 234.67 66.7566C234.67 66.7566 234.67 66.746 234.67 66.7396C234.86 65.8765 234.53 65.2721 234.377 64.3454C234.246 63.539 234.032 62.7482 233.741 61.9851C233.637 61.7158 233.529 61.4422 233.397 61.1686C233.009 60.3204 231.406 57.6822 228.927 59.1667C226.723 60.4836 225.973 61.7879 225.612 63.1133C225.36 64.04 225.294 64.9774 225.054 65.9359C224.877 66.8397 224.448 67.675 223.816 68.345C220.845 71.7508 211.845 83.5078 214.148 89.1064Z" fill="#3B3B4C"/>
<path d="M197.797 51.7528C196.907 51.6235 195.751 51.2672 194.616 50.9046C193.518 50.5589 192.528 50.4592 191.561 50.6777C190.712 50.8728 187.319 50.332 186.986 49.0575C186.846 48.5124 188.519 47.8169 189.497 48.1244C192.019 48.9175 190.933 47.0195 191.51 46.9431C192.178 46.852 192.343 48.4573 194.496 47.9653C195.694 47.6917 197.933 48.1668 198.376 48.4361C198.82 48.7054 197.797 51.7528 197.797 51.7528Z" fill="#EFAEA6"/>
<path opacity="0.4" d="M227.911 65.5839C229.771 67.8912 232.248 67.2974 234.676 66.7524C234.867 65.8893 234.536 65.2849 234.383 64.3581C234.252 63.5518 234.039 62.7609 233.747 61.9978C232.475 61.9851 229.2 62.0105 226.885 61.93C226.036 61.9003 226.004 63.0242 226.004 63.0242C225.958 64.2818 227.353 64.901 227.911 65.5839Z" fill="#1F1F39"/>
<path d="M223.059 34.9508C221.765 34.7175 221.842 36.8594 220.58 37.0863C219.916 37.2029 220.035 36.8891 219.689 36.6028C219.477 36.4246 219.265 36.2232 218.994 36.5773C213.34 43.7643 221.424 59.8008 220.732 61.0372C220.168 62.0466 225.759 62.9627 229.014 61.8176C233.478 60.2461 230.835 56.4607 230.613 55.5001C230.39 54.5394 227.699 37.661 227.699 37.661C226.059 36.9266 224.504 36.018 223.059 34.9508Z" fill="white"/>
<path d="M193.628 51.1167C194.071 51.2546 206.172 54.5798 208.897 52.896C210.806 51.7232 214.61 46.9135 216.014 47.3928C216.457 47.5455 216.729 49.1445 217.14 50.3257C217.636 51.7529 217.976 56.1024 217.965 56.8192C217.935 58.6599 217.13 63.7517 218.648 64.7993C220.332 65.9635 221.322 65.8978 222.083 65.0368C222.9 64.1101 221.39 57.9326 221.382 51.596C221.382 46.9496 219.032 44.4345 219.157 40.5812C219.25 37.6674 218.992 36.5774 218.992 36.5774C212.36 40.5155 208.903 47.3398 206.921 48.468C205.057 49.5283 194.067 46.9644 193.599 47.7661C193.427 48.0672 193.408 51.0467 193.628 51.1167Z" fill="#0068A5"/>
<path d="M252.18 37.1966C253.016 36.7025 253.592 36.4841 254.583 35.6655C255.541 34.8766 255.921 34.514 257.024 34.0389C257.885 33.6678 260.031 32.266 260.364 30.9046C260.661 29.6916 259.125 28.2601 258.527 29.2695C256.135 33.3094 254.941 30.1666 254.441 30.5419C253.592 31.1612 255.401 32.2046 253.079 32.6117C252.019 32.8335 251.059 33.3957 250.348 34.2128C250.011 34.6518 252.18 37.1966 252.18 37.1966Z" fill="#EFAEA6"/>
<path d="M223.059 34.9508C227.614 35.3367 238.752 38.5029 241.22 38.1996C243.689 37.8964 253.032 31.5513 253.635 32.2808C254.237 33.0103 255.488 34.7747 255.073 35.6124C254.657 36.4501 243.998 43.092 241.907 43.3253C239.055 43.6434 232.576 41.6075 232.114 43.1832C231.175 46.3833 231.478 51.6023 235.69 59.8559C236.521 61.4867 237.386 66.2349 235.104 66.044C232.822 65.8532 227.894 65.1958 227.302 63.4165C226.711 61.6373 227.328 57.0821 225.029 52.968C222.122 47.7575 223.059 34.9508 223.059 34.9508Z" fill="#0068A5"/>
<path opacity="0.18" d="M221.125 37.6674C221.135 37.6483 221.195 37.6674 221.292 37.7077C221.74 37.907 223.023 38.6556 224.338 38.9229C224.686 38.9969 225.042 39.0269 225.398 39.0119C225.893 38.9927 226.38 38.8842 226.836 38.6917L226.927 38.6514L226.955 38.6387C227.695 38.2824 229.699 37.3917 231.062 36.4374C230.876 36.2529 228.764 36.0557 228.577 35.8924C228.8 35.7228 230.305 35.5552 230.524 35.3877C230.644 35.2944 230.765 35.2053 230.884 35.1162C230.562 34.9317 230.258 34.76 229.981 34.6052L229.633 34.883C229.457 35.0208 229.279 35.1608 229.099 35.3071C227.93 36.2063 226.742 37.0355 226.342 37.2051C226.024 37.3342 225.694 37.4336 225.358 37.502L225.112 37.5465C224.95 37.5741 224.791 37.5953 224.63 37.608C224.278 37.6403 223.923 37.6474 223.57 37.6292C222.937 37.5967 222.307 37.5094 221.689 37.3684C221.265 37.2772 221.023 36.9209 220.671 37.0948C220.19 37.3154 221.036 37.8328 221.125 37.6674Z" fill="#1F1F39"/>
<path d="M220.737 38.1361C220.847 38.1125 220.95 38.0611 221.035 37.9869C221.12 37.9127 221.184 37.8181 221.222 37.7119C221.222 37.6992 221.254 37.695 221.294 37.6992C221.583 37.7353 222.705 38.1976 224.001 38.3566C224.679 38.453 225.37 38.4207 226.036 38.2612C226.244 38.2085 226.447 38.1375 226.643 38.0491C227.576 37.608 228.721 36.7534 229.854 35.8924L230.517 35.3877C230.638 35.2944 230.759 35.2053 230.878 35.1162C231.796 34.427 232.657 33.8205 233.331 33.5278C235.06 32.7771 238.504 33.8862 241.25 32.8407C242.934 32.2045 248.66 28.5697 249.19 27.9356C249.72 27.3016 249.86 26.413 249.68 26.027C249.499 25.6411 248.804 25.7407 247.756 26.0991C246.709 26.4575 243.939 29.7255 240.41 30.9767C236.881 32.2279 235.109 30.5844 232.587 31.3202C231.196 31.7253 229.841 33.091 228.634 34.3443C228.476 34.5083 228.321 34.6695 228.17 34.8278C227.375 35.6464 226.658 36.3505 226.049 36.5986C225.574 36.7915 225.074 36.9192 224.565 36.9782C224.108 37.0343 223.647 37.0485 223.188 37.0206C222.581 36.9849 221.978 36.8991 221.386 36.764C220.962 36.6707 220.862 36.5519 220.512 36.7195C220.431 36.7539 220.357 36.8046 220.296 36.8685C220.235 36.9324 220.188 37.0081 220.157 37.091C220.127 37.1738 220.114 37.2621 220.118 37.3503C220.123 37.4385 220.146 37.5247 220.185 37.6038C220.298 37.8201 220.52 38.1933 220.737 38.1361Z" fill="#F3AD06"/>
<path d="M253.739 145.018L248.98 145.088C248.246 145.088 247.663 145.953 247.68 146.997L247.722 149.883C247.722 149.889 247.725 149.896 247.73 149.901C247.735 149.906 247.741 149.908 247.748 149.908L248.634 149.895C248.641 149.895 248.646 149.892 248.651 149.887C248.655 149.883 248.658 149.876 248.658 149.87L248.628 147.836C248.628 147.058 249.052 146.42 249.599 146.411L253.158 146.358C253.705 146.358 254.159 146.975 254.171 147.754L254.201 149.787C254.201 149.794 254.204 149.8 254.209 149.805C254.214 149.809 254.22 149.812 254.226 149.813L255.113 149.798C255.12 149.798 255.126 149.795 255.131 149.79C255.136 149.786 255.138 149.779 255.138 149.772L255.094 146.886C255.079 145.843 254.472 145.007 253.739 145.018Z" fill="#221C2D"/>
<path d="M248.98 145.077C248.246 145.077 247.663 145.943 247.68 146.986L247.722 149.872C247.722 149.879 247.725 149.885 247.73 149.89C247.735 149.895 247.741 149.898 247.748 149.898L248.634 149.885C248.641 149.884 248.646 149.881 248.651 149.877C248.655 149.872 248.658 149.866 248.658 149.859L248.628 147.824C248.615 147.047 249.052 146.409 249.599 146.401L249.964 145.109C249.965 145.105 249.965 145.102 249.964 145.098C249.963 145.094 249.962 145.091 249.96 145.088C249.958 145.085 249.955 145.082 249.951 145.08C249.948 145.078 249.944 145.077 249.94 145.077H248.98Z" fill="#221C2D"/>
<path d="M236.648 151.227L236.773 164.624C236.775 164.817 236.815 165.007 236.89 165.185C236.966 165.362 237.076 165.523 237.214 165.658C237.352 165.793 237.515 165.9 237.694 165.971C237.873 166.043 238.065 166.079 238.258 166.076H238.275L262.198 166.159C264.898 166.133 264.862 164.227 264.855 163.434L265.116 150.769C265.116 149.972 264.128 147.889 261.969 147.938L240.684 148.123H239.884C238.122 148.146 236.631 149.427 236.648 151.227Z" fill="#603B3E"/>
<path d="M236.648 151.227L236.773 164.624C236.775 164.816 236.815 165.007 236.89 165.185C236.966 165.362 237.076 165.523 237.214 165.658C237.352 165.793 237.515 165.9 237.694 165.971C237.873 166.043 238.065 166.079 238.258 166.076C238.263 166.076 238.268 166.074 238.272 166.071C238.276 166.068 238.279 166.064 238.281 166.059C238.546 165.262 238.705 164.009 238.559 162.043C238.198 157.269 239.515 151.844 240.68 148.156C240.681 148.153 240.682 148.149 240.681 148.145C240.681 148.141 240.679 148.137 240.677 148.134C240.674 148.131 240.671 148.128 240.668 148.127C240.664 148.125 240.66 148.124 240.656 148.125H239.891C238.122 148.146 236.631 149.427 236.648 151.227Z" fill="#785256"/>
<path opacity="0.1" d="M233.582 165.754C233.582 166.538 241.84 167.45 251.357 167.45C260.875 167.45 268.585 166.814 268.585 166.029C268.585 165.245 260.873 164.609 251.357 164.609C241.842 164.609 233.582 164.969 233.582 165.754Z" fill="#333340"/>
<g opacity="0.82">
<path opacity="0.82" fill-rule="evenodd" clip-rule="evenodd" d="M149.972 5.68553C149.633 9.32036 152.05 11.5301 155.416 10.3107C158.61 9.15283 159.292 11.6616 161.935 11.9394C164.749 12.2363 165.521 8.59509 167.489 10.1114C171.289 13.0358 175.007 10.8006 173.73 6.8519C172.697 3.67089 170.744 2.90957 169.088 2.85443C166.087 2.75264 166.783 0.19935 163.292 0.0106104C158.839 -0.233267 160.081 3.81722 156.097 2.87776C153.626 2.29457 150.15 3.76632 149.972 5.68553Z" fill="white"/>
</g>
<path d="M204.107 129.369C201.106 129.369 194.943 134.688 203.752 135.541C212.562 136.393 225.754 136.001 231.092 136.02C239.806 136.05 241.969 135.691 241.908 132.131C241.867 130.071 240.754 128.737 236.16 128.197C231.383 127.635 233.828 122.318 227.99 122.471C223.021 122.609 222.514 129.565 217.967 127.862C213.421 126.159 214.373 130.801 211.048 131.653C207.385 132.599 207.105 129.369 204.107 129.369Z" fill="white"/>
<path d="M84.8865 52.8323C92.2728 53.3243 99.3304 52.6817 106.579 51.0403C107.69 50.7901 108.869 50.4529 109.622 49.5198C110.763 48.1074 110.419 45.7259 109.198 44.4069C107.976 43.0878 106.112 42.6934 104.401 42.8779C103.307 42.9945 102.183 43.319 101.125 42.9818C99.8034 42.5576 98.9296 41.2343 98.0431 40.0786C97.1567 38.9228 95.9585 37.7798 94.5928 37.9579C93.5706 38.0936 92.7627 38.9398 91.8529 39.4699C90.9431 40.0001 89.6199 40.0574 89.096 39.0797C87.9785 36.9909 89.5477 31.2629 83.7944 31.2629C75.4898 31.2629 76.847 37.029 75.8461 38.2612C74.3319 40.1146 71.6344 39.7075 69.4374 39.0797C67.2404 38.452 64.6278 37.8561 62.9355 39.5039C61.4658 40.9417 61.3153 43.5777 59.7545 44.8925C58.0919 46.2921 55.7252 45.5457 53.7169 44.9179C51.7086 44.2902 49.1045 44.0591 47.936 45.9677C46.9562 47.5688 47.6857 49.893 49.0811 51.0573C50.4765 52.2215 52.313 52.5163 54.0647 52.6329C65.4336 53.4028 75.7612 52.2258 84.8865 52.8323Z" fill="white"/>
</svg>
