<svg width="361" height="106" viewBox="0 0 361 106" fill="none" xmlns="http://www.w3.org/2000/svg">
<path fill-rule="evenodd" clip-rule="evenodd" d="M30.6293 46.4511C29.936 46.1233 27.7049 48.0898 27.4528 48.7831C32.3437 56.6867 31.6378 71.952 28.083 80.7758C28.5971 81.3728 29.2588 81.8244 30.002 82.0854C30.7453 82.3464 31.5441 82.4077 32.3185 82.2633C35.1295 78.6707 37.4489 70.5528 36.9825 62.9769C36.6548 57.733 34.1211 48.1276 30.6798 46.4511H30.6293Z" fill="#43568E"/>
<path fill-rule="evenodd" clip-rule="evenodd" d="M17.9104 50.5227C16.1205 54.6573 12.6918 57.1532 10.927 61.3256C11.9859 62.5862 12.2884 64.6787 13.8893 64.7165C15.8684 64.7165 16.8894 61.0609 18.5533 60.9348C19.234 65.5484 18.8937 71.1831 20.2425 75.1286C21.919 74.9773 24.0241 75.3681 25.1208 75.1286C25.688 67.2628 22.94 57.9851 22.5997 50.3462C21.4148 49.4638 19.297 50.3462 17.9356 50.5605L17.9104 50.5227Z" fill="#43568E"/>
<path fill-rule="evenodd" clip-rule="evenodd" d="M30.4151 48.1529L28.7133 48.9975C31.6 53.4976 33.0748 60.897 32.495 68.2713C32.1672 72.7714 30.3016 76.7926 30.5915 80.1456C32.2681 79.0237 33.0118 76.6161 33.7681 74.4227C36.6548 66.0779 34.8648 54.6069 30.7932 48.3546C30.5915 48.3546 30.5537 48.1907 30.3772 48.1529H30.4151Z" fill="white"/>
<path fill-rule="evenodd" clip-rule="evenodd" d="M16.0071 56.6239C14.7465 58.4012 11.1036 61.6661 14.1037 62.7627C15.3642 60.8089 16.7634 58.9811 19.1459 58.1113C21.0997 61.8047 20.5072 68.0444 21.2636 72.9354H23.3813C23.0536 66.4057 21.8056 58.9811 21.4779 51.7455C18.3895 51.4304 17.6206 54.3927 15.9693 56.6239H16.0071Z" fill="white"/>
<path fill-rule="evenodd" clip-rule="evenodd" d="M64.4626 60.1533C63.7441 60.7962 61.6011 61.6029 61.702 63.3299C61.765 64.3761 63.6558 65.914 64.2231 67.1115C66.24 71.2839 66.8072 78.0909 66.7442 83.6373C66.7442 88.8056 65.1181 92.9276 63.7693 96.9865C66.0143 97.8876 68.5204 97.8876 70.7653 96.9865C75.8075 85.3265 74.3453 65.2837 64.4626 60.1155V60.1533Z" fill="#43568E"/>
<path fill-rule="evenodd" clip-rule="evenodd" d="M57.4665 87.2803C61.4624 82.9944 63.0129 71.5738 57.895 67.3636C50.6847 64.3005 42.4281 69.557 44.1172 77.3219C45.6551 77.8892 47.4829 77.0446 48.7813 76.6791C49.6637 74.7378 50.7099 72.8974 53.4453 72.8974C54.7058 73.7924 54.7058 76.0236 54.5042 77.3471C53.8109 81.8473 49.3107 85.9441 47.7224 89.4232C47.9115 91.4653 47.4325 93.7847 48.151 95.3478C53.1932 94.5914 58.8152 94.4402 62.975 92.8267C63.2281 91.9467 63.3027 91.0251 63.1945 90.1159C63.0862 89.2067 62.7973 88.3283 62.3448 87.5324C60.8195 86.9021 59.4077 87.3559 57.4665 87.3307V87.2803Z" fill="#43568E"/>
<path fill-rule="evenodd" clip-rule="evenodd" d="M64.8912 62.0568C64.5004 62.7375 63.7819 63.0652 63.6306 63.9728C68.7989 70.5781 69.6308 86.4232 66.1517 95.4865H68.6728C74.2823 86.2341 72.5679 67.6158 64.8912 62.0063V62.0568Z" fill="white"/>
<path fill-rule="evenodd" clip-rule="evenodd" d="M54.5043 88.3392C56.6094 85.15 59.6221 79.5154 58.7397 73.9312C58.5061 72.2512 57.7676 70.6818 56.622 69.431C52.5756 66.3174 45.3905 70.4268 45.6048 75.5699C46.4746 75.5699 46.8653 75.2043 47.9368 75.3556C48.9831 72.7336 50.6974 70.7672 54.5043 70.9058C59.5465 75.4564 55.5127 81.1289 53.2437 84.8979C51.3655 88.0115 49.3738 89.7637 50.0671 92.9402C53.8488 92.4612 57.1766 91.5788 60.87 91.0368C60.667 90.4241 60.594 89.7759 60.6557 89.1334C58.8532 89.2342 55.0967 90.0536 54.5169 88.2888L54.5043 88.3392Z" fill="white"/>
<path fill-rule="evenodd" clip-rule="evenodd" d="M92.7619 43.4636C100.035 49.7664 101.863 67.0107 97.8041 78.4187C98.8251 79.4901 100.552 81.0532 102.254 80.3221C103.514 79.7674 104.132 76.1118 104.586 74.3975C107.611 62.8887 104.586 47.4092 98.6486 41.9762C98.303 41.3787 97.7722 40.9101 97.1365 40.6412C96.5009 40.3723 95.7949 40.3177 95.1254 40.4858C94.456 40.6539 93.8595 41.0354 93.4263 41.5727C92.993 42.11 92.7465 42.7738 92.7241 43.4636H92.7619Z" fill="#43568E"/>
<path fill-rule="evenodd" clip-rule="evenodd" d="M92.7618 59.1449C94.5266 55.6658 94.7031 49.3504 91.2744 47.4848C88.1609 45.7957 83.7741 47.8125 82.1606 50.0059C82.9926 51.6446 83.4212 53.7875 84.6817 54.8842C85.6902 54.5439 85.854 53.3589 87.2028 53.3968C90.2029 56.6112 85.1229 57.7078 84.6817 59.6995C84.3792 61.0357 85.3372 62.624 85.9423 63.935C88.3877 64.3635 90.8206 63.7459 91.2366 66.0527C91.9299 69.8343 87.0768 71.0949 84.9338 68.5738C83.6103 69.6452 81.4547 71.347 81.7573 73.4521C82.3245 77.4354 91.0979 77.4354 94.0476 75.3555C99.0898 71.826 97.9175 60.6449 92.7871 59.044L92.7618 59.1449Z" fill="#43568E"/>
<path fill-rule="evenodd" clip-rule="evenodd" d="M96.1529 41.5602C95.4596 42.2031 94.5898 42.6695 94.2368 43.678C99.6068 48.2033 102.254 57.2037 101.661 67.6284C101.447 71.3092 100.262 74.7001 100.401 77.5867C102.468 77.864 102.493 74.9522 102.922 73.5656C106.313 62.9013 103.086 46.2369 96.1403 41.5728L96.1529 41.5602Z" fill="white"/>
<path fill-rule="evenodd" clip-rule="evenodd" d="M92.3332 60.6072C91.3878 60.6828 90.5811 61.061 90.2155 60.1912C90.5054 58.3508 92.1189 56.2205 92.1189 53.8885C92.1189 48.9345 87.5936 47.4723 83.8623 50.2959C84.001 51.2791 84.6817 51.7329 84.9212 52.6279C88.2743 50.4976 90.6945 54.1406 89.3709 57.4936C88.5642 59.5357 84.9086 60.0904 87.0389 62.3719C97.2872 61.1114 92.2702 76.4523 84.9212 70.6285C84.6817 71.5235 84.0262 72.0025 83.6606 72.7463C85.4758 74.5488 89.7743 75.1917 92.3458 74.0068C96.8208 71.9773 96.3418 62.6619 92.3458 60.6576L92.3332 60.6072Z" fill="white"/>
<path fill-rule="evenodd" clip-rule="evenodd" d="M5.54447 0.919332C6.11171 0.919332 6.56551 1.41095 6.17474 1.77651C5.6201 1.77651 5.48144 1.47397 5.54447 0.919332ZM7.44791 8.34396C10.801 7.66327 12.5783 3.67993 12.364 0.0999756H0.0484725C-0.430536 4.47408 2.68302 9.23895 7.51092 8.34396H7.44791Z" fill="#43568E"/>
<path fill-rule="evenodd" clip-rule="evenodd" d="M8.72098 11.723C5.59482 16.7652 2.07789 20.7738 0.451782 26.1311C1.34677 27.5303 3.9561 27.9967 5.96037 27.6185C10.5866 20.5973 15.6792 14.6727 20.1668 7.0716C20.8727 5.81106 23.3938 2.38236 23.5198 0.100769H16.1456C15.9061 0.604989 15.6666 1.05879 15.4901 1.36132C13.1581 4.91607 10.7883 8.38257 8.70838 11.7356L8.72098 11.723Z" fill="#43568E"/>
<path fill-rule="evenodd" clip-rule="evenodd" d="M19.0953 14.4836C11.6581 15.7442 11.0782 28.8917 19.0953 29.9506C29.1797 31.2867 29.3184 12.7189 19.0953 14.4836Z" fill="#43568E"/>
<path fill-rule="evenodd" clip-rule="evenodd" d="M7.01938 6.22704C9.54048 5.59676 10.4985 2.58405 9.99427 0.100769H7.64965C8.30514 0.794071 8.50684 1.90335 7.44798 3.25214C7.15041 3.42323 6.81608 3.52034 6.47316 3.53529C6.13024 3.55024 5.78876 3.48259 5.47743 3.33805C5.1661 3.1935 4.89404 2.97629 4.68416 2.70468C4.47429 2.43307 4.33273 2.11502 4.27139 1.7773C4.15054 1.20634 4.24007 0.610938 4.5235 0.100769L2.35535 0.100769C1.27128 3.26475 2.55704 7.32371 7.01938 6.22704Z" fill="#FD8300"/>
<path fill-rule="evenodd" clip-rule="evenodd" d="M4.9016 25.5008C10.7001 17.4585 16.9651 9.90784 20.9988 0.100769H17.9735C13.1834 8.83637 7.10756 16.2862 2.56958 25.3117C3.35348 25.2369 4.14448 25.3096 4.9016 25.526V25.5008Z" fill="#FD8300"/>
<path fill-rule="evenodd" clip-rule="evenodd" d="M21.4274 23.5974C19.3727 24.3537 17.4315 22.8789 17.6457 21.2654C17.9987 18.114 23.9485 19.7527 21.4274 23.5974ZM21.0114 17.0299C19.7509 16.7022 18.4903 17.219 16.5617 17.4459C13.4985 21.0259 15.3011 28.7908 20.7971 27.4042C24.5788 26.4966 25.6376 18.2274 21.0114 17.0299Z" fill="#FD8300"/>
<path fill-rule="evenodd" clip-rule="evenodd" d="M155.512 7.92875C154.377 9.97084 152.096 11.1936 151.34 13.5004C154.415 16.0215 160.163 15.5173 164.096 14.6601C165.89 14.213 167.61 13.5082 169.202 12.5676C170.84 11.6474 172.05 10.0465 173.601 9.78176C175.681 9.47923 178.252 10.8406 180.332 11.6474C182.715 12.555 185.021 13.4121 186.824 13.9668C191.085 15.2273 196.467 17.6602 201.673 16.74C204.194 16.2988 206.993 13.3869 208.165 11.4079C209.842 8.58424 210.913 4.57569 212.211 0.0629272H154.882C155.834 0.677457 156.744 1.35549 157.604 2.09241C156.747 4.15971 156.495 6.15138 155.512 7.89093V7.92875Z" fill="#43568E"/>
<path fill-rule="evenodd" clip-rule="evenodd" d="M155.046 12.5676C160.731 12.7819 165.407 12.3155 168.912 9.78178C170.109 8.93721 170.412 7.34892 171.433 7.00858C173.261 6.40351 177.231 8.10525 178.845 8.62208C185.891 10.8911 192.333 13.8281 200.879 13.9668C205.581 10.8659 207.825 5.87408 209.59 0.100769H159.684C159.37 3.14812 158.574 6.12634 157.327 8.92461C156.583 10.4121 154.806 11.5844 155.008 12.6306L155.046 12.5676Z" fill="#FD8300"/>
<path fill-rule="evenodd" clip-rule="evenodd" d="M169.454 82.9944C161.701 89.1081 154.705 95.5999 146.474 101.461C147.281 102.722 147.886 104.386 148.692 105.609C152.31 102.13 156.104 98.9782 159.697 95.6629C163.29 92.3477 166.605 88.503 170.891 85.5785C170.361 84.8222 170.399 82.8179 169.454 82.944V82.9944Z" fill="white"/>
<path fill-rule="evenodd" clip-rule="evenodd" d="M64.992 43.741C60.1137 33.77 55.8656 22.236 50.8612 12.5802C48.0754 12.1264 44.5585 13.0214 41.924 12.9962C40.9155 12.9962 39.8062 12.4415 38.9743 12.8071C38.1355 13.6036 37.3833 14.4867 36.7305 15.4416C34.5497 18.2401 32.3312 21.3284 31.6127 24.2655C31.953 24.9462 33.0875 23.6982 33.1505 25.0596C37.0582 34.9802 41.7601 46.4007 46.8905 54.7077C59.143 51.1782 71.6099 45.0267 83.4464 39.2408C95.5603 33.3414 107.964 28.0093 120.217 22.4881C121.162 22.0847 121.326 23.6226 122.36 23.0302C122.07 20.6099 125.007 20.5091 127.944 19.2485C129.595 18.5552 131.246 17.7358 132.734 16.9795C136.037 15.3282 139.49 14.3198 140.385 11.8365C139.932 10.6642 139.377 10.6642 138.57 9.25235C136.926 6.28094 135.436 3.22632 134.108 0.100769L110.611 0.100769C113.41 6.31527 116.195 12.5424 118.906 18.7821C117.481 19.2233 115.767 20.4334 114.544 20.383C111.305 13.9668 108.431 6.85731 105.367 0.100769H80.648C85.2112 10.2608 89.913 20.5343 93.5434 30.2279C92.1316 30.6691 90.4047 31.8666 89.1945 31.8288C84.6944 22.299 79.9925 10.5507 75.2529 0.100769H51.0125C56.5841 13.7399 62.9751 29.5724 68.9753 41.8123C67.6042 42.3616 66.2732 43.006 64.992 43.741Z" fill="#43568E"/>
<path fill-rule="evenodd" clip-rule="evenodd" d="M126.62 15.5173C124.545 10.3658 122.423 5.227 120.254 0.100769H113.208C115.838 6.02535 118.481 11.9373 121.137 17.8367C122.977 16.8156 125.208 16.8409 126.62 15.5173Z" fill="white"/>
<path fill-rule="evenodd" clip-rule="evenodd" d="M104.964 24.921C101.182 16.7778 97.5015 8.433 93.8081 0.100769H83.7237C87.9717 9.61791 92.0685 19.3872 95.9132 28.9925C99.2537 27.732 101.712 26.1815 104.977 24.921H104.964Z" fill="white"/>
<path fill-rule="evenodd" clip-rule="evenodd" d="M80.5093 36.2155C75.5553 23.61 69.6182 11.7735 64.3239 0.100769H53.4453C59.6472 12.8575 64.9541 27.8328 71.093 40.6652C74.5847 39.329 77.2697 37.6651 80.4841 36.2155H80.5093Z" fill="white"/>
<path fill-rule="evenodd" clip-rule="evenodd" d="M73.1099 1.72688C72.9198 1.13193 72.6158 0.579634 72.2149 0.100769L67.6265 0.100769V0.201613C69.5047 0.529356 71.1938 1.37392 73.072 1.72688H73.1099Z" fill="#DFDFDF"/>
<path fill-rule="evenodd" clip-rule="evenodd" d="M68.2693 1.6134C68.5215 2.23107 68.7862 2.87395 69.0383 3.4412C70.7933 4.14691 72.6189 4.66248 74.4838 4.97907C74.1939 4.29837 73.904 3.63028 73.6267 2.94958C71.7233 2.79832 70.1728 1.76467 68.2693 1.6134Z" fill="#DFDFDF"/>
<path fill-rule="evenodd" clip-rule="evenodd" d="M34.8396 23.4209C35.0287 25.1731 37.1842 28.0598 38.2557 30.3666C41.5457 37.5265 45.5291 46.01 47.9367 52.1488C50.0431 51.2482 52.0931 50.2211 54.0756 49.0731C49.4116 37.9172 43.8778 26.5723 39.4532 16.198C38.6087 17.8493 34.6253 21.5175 34.8396 23.4209Z" fill="white"/>
<path fill-rule="evenodd" clip-rule="evenodd" d="M46.9787 17.5719C45.2517 16.7904 43.6508 15.8324 41.9365 15.1769C41.6718 15.845 42.6424 17.0299 42.8567 17.8997C44.3901 18.5589 45.9753 19.0902 47.5963 19.488C49.0586 19.967 50.962 21.1897 51.8822 20.5468C51.0503 18.2778 48.6048 18.2904 47.0291 17.5719H46.9787Z" fill="#DFDFDF"/>
<path fill-rule="evenodd" clip-rule="evenodd" d="M69.7316 5.14301C71.0804 8.16832 74.1183 7.05904 76.0344 8.69775L75.089 6.40355C73.2233 6.12623 71.5972 5.31948 69.7316 5.14301Z" fill="#DFDFDF"/>
<path fill-rule="evenodd" clip-rule="evenodd" d="M48.0627 20.7107C46.2475 20.0678 44.6592 19.7275 43.3231 19.1224L44.3441 21.5553C46.424 22.2738 49.3863 22.9167 51.441 23.5974C52.0839 23.7991 52.9537 24.7823 53.294 24.0008C52.4494 21.694 49.8653 21.341 48.0627 20.7107Z" fill="#DFDFDF"/>
<path fill-rule="evenodd" clip-rule="evenodd" d="M71.2192 8.0423C71.7612 9.30285 72.3033 10.5634 72.8579 11.8996C74.6227 12.1013 76.1353 12.9332 77.9001 13.1601C77.3454 11.8996 76.8034 10.639 76.2614 9.30285C74.5329 9.10414 72.8378 8.68036 71.2192 8.0423Z" fill="#DFDFDF"/>
<path fill-rule="evenodd" clip-rule="evenodd" d="M103.212 2.62187C103.025 2.06181 102.722 1.54763 102.322 1.11312C101.922 0.678615 101.435 0.333607 100.892 0.100769L96.6191 0.100769L97.1611 1.36132C99.3797 1.27308 101.132 2.35715 103.212 2.62187Z" fill="#DFDFDF"/>
<path fill-rule="evenodd" clip-rule="evenodd" d="M44.9492 22.9798C45.2265 24.0891 45.8568 24.3412 46.2098 25.337C47.7577 25.6332 49.2859 26.0247 50.7855 26.5093C52.2352 26.9379 54.1134 27.9464 54.9832 27.3791C52.3738 24.1143 48.2897 24.5177 44.9744 22.9798H44.9492Z" fill="#DFDFDF"/>
<path fill-rule="evenodd" clip-rule="evenodd" d="M97.5897 2.3949C98.8503 6.34042 102.266 4.97902 104.674 6.11352C103.338 2.33187 99.9469 3.65545 97.5897 2.3949Z" fill="#DFDFDF"/>
<path fill-rule="evenodd" clip-rule="evenodd" d="M73.4503 13.3239C74.5218 17.0425 77.3328 16.4879 79.6396 17.1812C78.5933 13.3995 75.7067 14.1307 73.4503 13.3239Z" fill="#DFDFDF"/>
<path fill-rule="evenodd" clip-rule="evenodd" d="M46.5249 26.1438C46.9661 27.1648 47.3947 28.1859 47.7855 29.1943C50.9368 29.3078 53.5336 30.7826 56.6093 31.2364L55.7395 29.2069C52.6007 28.375 49.5754 27.2531 46.5375 26.1438H46.5249Z" fill="#DFDFDF"/>
<path fill-rule="evenodd" clip-rule="evenodd" d="M99.2537 5.76062L99.947 7.38673C101.921 7.99016 103.947 8.4121 105.998 8.64728C104.46 5.91189 101.321 7.14723 99.2537 5.73541V5.76062Z" fill="#DFDFDF"/>
<path fill-rule="evenodd" clip-rule="evenodd" d="M75.467 17.509L76.4125 19.7402C78.1142 19.9671 79.6899 20.5217 81.3916 20.7486C80.3201 17.4208 77.61 18.2275 75.467 17.509Z" fill="#DFDFDF"/>
<path fill-rule="evenodd" clip-rule="evenodd" d="M48.1637 30.0136C48.6805 31.0807 49.2746 32.1087 49.9411 33.0894C52.3361 32.5977 55.2858 34.3499 57.9708 34.4886L57.2775 32.8751C54.2143 31.9801 51.1638 31.0725 48.1637 30.0262V30.0136Z" fill="#DFDFDF"/>
<path fill-rule="evenodd" clip-rule="evenodd" d="M132.419 2.04201C132.154 1.39913 131.877 0.781465 131.599 0.100769H123.217L123.595 0.983153C126.469 1.76389 129.442 2.12061 132.419 2.04201Z" fill="#DFDFDF"/>
<path fill-rule="evenodd" clip-rule="evenodd" d="M100.602 8.81116C100.842 9.3532 101.069 9.89524 101.296 10.4373C103.64 10.4373 105.569 11.5339 107.838 11.6978C106.25 8.69771 102.96 9.88263 100.602 8.76074V8.81116Z" fill="#DFDFDF"/>
<path fill-rule="evenodd" clip-rule="evenodd" d="M76.9293 20.9629C77.2949 21.8453 77.6731 22.7277 78.0386 23.5974C79.6567 23.9581 81.2938 24.2275 82.9421 24.4042L81.9967 22.173C80.3434 21.65 78.6595 21.2291 76.9545 20.9125L76.9293 20.9629Z" fill="#DFDFDF"/>
<path fill-rule="evenodd" clip-rule="evenodd" d="M101.661 11.4457L102.607 13.6769C104.838 14.2694 107.069 14.8492 109.325 15.3913L108.292 12.9584C105.972 12.7063 104.069 11.4457 101.661 11.4457Z" fill="#DFDFDF"/>
<path fill-rule="evenodd" clip-rule="evenodd" d="M49.9157 33.5811C50.2813 34.4634 50.6594 35.3458 51.0376 36.2282C53.7604 36.9593 56.6849 37.224 59.4329 37.9426L58.5631 35.9131C55.6764 35.1441 52.7015 34.6525 49.9157 33.5811Z" fill="#DFDFDF"/>
<path fill-rule="evenodd" clip-rule="evenodd" d="M129.293 3.1261C127.799 3.05974 126.321 2.8013 124.893 2.35716C124.628 2.45801 124.502 2.2059 124.2 2.35716C126.645 4.61355 130.288 3.94546 133.452 4.43707C132.847 2.58406 130.629 3.17652 129.293 3.07568V3.1261Z" fill="#DFDFDF"/>
<path fill-rule="evenodd" clip-rule="evenodd" d="M125.057 4.43701C125.511 5.52108 125.965 6.60516 126.431 7.68923C129.355 8.38909 132.339 8.81114 135.343 8.94978C134.889 7.8657 134.436 6.78163 133.969 5.69756C130.963 5.58558 127.976 5.16315 125.057 4.43701Z" fill="#DFDFDF"/>
<path fill-rule="evenodd" clip-rule="evenodd" d="M78.6437 25.0219L79.337 26.648C81.0009 26.9631 82.6144 27.4295 84.3792 27.6564C84.1145 27.0513 83.8623 26.3958 83.5976 25.8286C81.9878 25.4476 80.3536 25.178 78.7067 25.0219H78.6437Z" fill="#DFDFDF"/>
<path fill-rule="evenodd" clip-rule="evenodd" d="M103.124 14.9122L103.729 16.3367C105.846 17.0426 108.141 17.3451 110.359 17.8493C108.607 15.2526 105.493 15.9837 103.124 14.9122Z" fill="#DFDFDF"/>
<path fill-rule="evenodd" clip-rule="evenodd" d="M51.6302 37.6526C51.9201 38.3207 52.2101 39.0014 52.4874 39.6821C55.3866 40.1611 58.2481 40.7157 61.0969 41.3208C59.1431 37.1232 54.7942 38.9762 51.6302 37.6526Z" fill="#DFDFDF"/>
<path fill-rule="evenodd" clip-rule="evenodd" d="M79.8538 27.8329C80.3076 28.917 80.7614 30.001 81.2278 31.0851C82.8536 31.6177 84.5602 31.8609 86.27 31.8036L85.1481 29.1691C83.4338 28.564 81.5556 28.3497 79.8034 27.8329H79.8538Z" fill="#DFDFDF"/>
<path fill-rule="evenodd" clip-rule="evenodd" d="M104.611 17.8745L105.481 19.904C107.547 20.4699 109.654 20.8703 111.784 21.1015C110.397 17.6098 107.019 18.9838 104.662 17.8745H104.611Z" fill="#DFDFDF"/>
<path fill-rule="evenodd" clip-rule="evenodd" d="M126.746 9.00037C127.137 9.94578 127.54 10.8912 127.944 11.8492C130.604 12.366 133.074 13.3114 136.553 11.8492C136.263 11.1685 135.973 10.5004 135.696 9.81972C132.494 10.3492 129.217 8.91213 126.746 9.05079V9.00037Z" fill="#DFDFDF"/>
<path fill-rule="evenodd" clip-rule="evenodd" d="M53.2942 41.0181C53.7354 42.0392 54.1639 43.0476 54.5547 44.0687C57.2397 44.2073 59.3952 45.6822 62.3953 45.0645C62.5844 44.4594 61.9037 43.514 61.6516 42.7325C58.8658 42.1274 56.1052 41.4719 53.2563 41.0181H53.2942Z" fill="#DFDFDF"/>
<path fill-rule="evenodd" clip-rule="evenodd" d="M107.309 23.6857C108.342 23.0933 110.132 22.8034 110.687 22.0218C109.092 21.8941 107.515 21.594 105.985 21.1268C106.265 22.0304 106.691 22.882 107.246 23.6479L107.309 23.6857Z" fill="#DFDFDF"/>
<path fill-rule="evenodd" clip-rule="evenodd" d="M81.8202 32.5473C82.1732 33.3541 82.5135 34.1734 82.8539 34.9802C84.255 34.4968 85.5668 33.7855 86.7364 32.875C85.0869 33.0152 83.4258 32.909 81.8076 32.5599L81.8202 32.5473Z" fill="#DFDFDF"/>
<path fill-rule="evenodd" clip-rule="evenodd" d="M128.335 13.3492C128.498 13.7652 128.675 14.1685 128.851 14.6097C129.343 14.2568 130.566 14.1811 130.591 13.6391C129.772 13.7147 129.192 13.2105 128.335 13.387V13.3492Z" fill="#DFDFDF"/>
<path fill-rule="evenodd" clip-rule="evenodd" d="M55.021 45.0897L56.2185 47.926C57.6177 47.3209 59.2564 46.8041 59.9119 45.8839C58.0967 46.0856 56.6345 45.3923 55.021 45.0897Z" fill="#DFDFDF"/>
<path fill-rule="evenodd" clip-rule="evenodd" d="M44.5583 15.2273C46.6635 15.8324 48.5921 16.8912 50.6216 17.7484L49.3611 14.6979C47.7728 15.1517 45.5794 14.7987 44.5836 15.2777L44.5583 15.2273Z" fill="#DFDFDF"/>
<path fill-rule="evenodd" clip-rule="evenodd" d="M141.658 47.8252H136.793C136.793 47.1445 137.272 46.8924 137.209 46.1234C138.053 45.8335 140.738 46.1234 142.087 45.7074C142.768 46.4007 141.621 47.0688 141.658 47.8252ZM155.008 39.7703C155.474 37.4761 156.823 36.0642 157.125 33.6314C154.793 32.8751 152.159 31.4632 149.285 31.9296C147.898 33.9969 147.28 36.8458 145.894 38.9257C144.217 38.9257 142.2 39.7324 140.852 39.3417C141.785 36.5432 143.511 34.5138 144.028 31.2994C142.301 30.0388 138.986 30.1018 136.616 30.0388C134.372 32.7364 132.835 36.1399 130.893 39.1526H125.599C124.641 40.6148 123.494 43.3754 124.339 45.2915C125.347 45.8335 127.591 45.1402 128.574 45.72C128.725 47.8252 126.053 45.8965 124.969 46.7789C123.818 48.6688 123.301 50.8772 123.494 53.0816C124.099 54.0271 126.179 53.4976 126.885 54.3422C126.544 55.4641 125.158 56.2708 125.826 57.7331C127.465 58.1995 129.973 57.8087 131.965 57.9348C133.351 57.2036 133.478 55.212 134.486 54.1531C136.213 54.3296 137.902 53.3338 139.352 53.9388C139.15 55.1994 137.877 56.107 138.293 57.3297C139.755 58.4012 143.272 57.7961 146.133 57.96C146.751 56.2435 147.458 54.5605 148.251 52.9178C150.432 52.3379 153.571 52.7287 155.877 52.2875C156.306 51.7679 156.606 51.1552 156.755 50.4985C156.904 49.8418 156.897 49.1593 156.735 48.5059C155.31 48.0395 152.083 48.6193 150.167 48.0899C150.621 47.4218 150.495 46.1612 151.226 45.7579C153.369 45.6444 155.978 45.9974 157.793 45.5436C158.008 43.7284 159.331 42.3166 159.054 40.6652C157.793 40.3123 156.193 40.2745 155.02 39.8207L155.008 39.7703Z" fill="#43568E"/>
<path fill-rule="evenodd" clip-rule="evenodd" d="M142.932 49.5143C140.486 49.8168 136.553 50.0311 134.877 48.884C134.965 46.7789 136.049 45.6696 136.793 44.22C139.238 44.7872 142.806 42.9594 144.835 44.4343C144.6 46.2398 143.948 47.9659 142.932 49.4765V49.5143ZM154.592 35.1062C153.126 34.7697 151.702 34.2752 150.344 33.6314C148.856 35.7743 149.083 40.4635 146.322 41.1947C145.612 41.1795 144.904 41.1079 144.205 40.9804C142.377 40.9804 139.541 41.5602 138.268 40.1358C138.797 36.9844 140.663 35.1818 141.658 32.5725C139.994 32.2482 138.309 32.0334 136.616 31.9296C134.851 34.8289 133.78 38.4215 131.738 41.0434C130.314 40.5896 128.561 41.2955 126.872 41.2577C126.544 41.8501 126.671 42.8838 126.444 43.5897C127.994 43.7284 130.225 43.1737 130.893 44.22C131.221 46.8293 130.099 49.779 126.444 49.0983C126.519 50.1572 125.952 50.5731 126.028 51.6194C127.465 51.7328 128.94 51.8085 129.204 53.1068C128.94 54.2665 128.183 54.9094 127.944 56.0691H131.12C131.977 55.0985 132.066 53.3463 133.238 52.6783C135.331 52.8421 139.995 51.0648 141.923 52.4766C141.923 54.0775 140.839 54.6321 140.864 56.2582H144.646C145.617 54.7708 146.713 53.2203 146.549 51.216C148.352 49.9555 152.613 51.0648 155.02 50.3588C153.76 48.6823 148.718 50.8757 148.239 48.4554C148.741 47.1303 149.383 45.8626 150.155 44.6738C151.705 43.9679 154.213 44.2074 156.293 44.0309C156.495 43.388 156.722 42.7703 156.924 42.1275C155.663 41.5098 153.066 42.1275 152.272 41.0686C152.033 38.8752 153.924 37.1105 154.604 35.1314L154.592 35.1062Z" fill="white"/>
<path fill-rule="evenodd" clip-rule="evenodd" d="M273.976 38.4587C267.195 30.7819 257.287 26.9625 250.593 27.0003C243.143 27.0003 230.714 31.1979 223.617 39.2654C220.075 43.2866 218.374 46.1984 217.441 49.854C216.18 54.7197 217.831 64.7411 219.773 68.9009C223.617 77.1197 233.979 82.5527 240.244 84.1788C252.421 87.3554 273.523 78.2668 278.804 63.9343C280.419 59.3294 280.853 54.3927 280.065 49.5767C278.907 45.4664 276.844 41.6675 274.027 38.4587H273.976Z" fill="#43568E"/>
<path fill-rule="evenodd" clip-rule="evenodd" d="M247.152 33.5677C247.36 33.7822 247.485 34.0636 247.505 34.3618C250.317 38.5745 252.844 42.9711 255.068 47.5219C255.711 48.7825 256.051 51.0389 257.69 50.7868C254.917 44.8874 251.791 38.9502 248.589 33.0256C248.122 33.303 247.669 33.0256 247.19 33.5677H247.152Z" fill="#DFDFDF"/>
<path fill-rule="evenodd" clip-rule="evenodd" d="M250.517 33.1138C254.223 38.6729 255.925 44.131 259.682 49.6901C260.022 49.4506 260.375 48.9211 260.69 49.148C259.001 43.8789 254.778 38.4964 252.887 33.2147C252.106 33.1138 251.324 32.7357 250.517 33.1138Z" fill="#DFDFDF"/>
<path fill-rule="evenodd" clip-rule="evenodd" d="M253.82 52.791C254.161 52.5515 254.514 52.0221 254.829 52.249C252.796 47.1465 250.227 42.2745 247.165 37.7148C245.904 42.5932 252.207 47.7992 253.82 52.8414V52.791Z" fill="#DFDFDF"/>
<path fill-rule="evenodd" clip-rule="evenodd" d="M222.067 61.5014C222.634 75.4683 241.126 85.3258 251.866 79.9432C248.967 72.8464 247.959 65.8251 244.883 58.7282C237.32 58.9425 229.681 60.5938 222.067 61.5014Z" fill="white"/>
<path fill-rule="evenodd" clip-rule="evenodd" d="M255.408 34.3113C258.144 38.4711 259.783 44.8495 263.123 47.6731C261.34 43.0512 259.151 38.5966 256.581 34.3617C256.177 34.7021 255.824 33.8197 255.408 34.3617V34.3113Z" fill="#DFDFDF"/>
<path fill-rule="evenodd" clip-rule="evenodd" d="M259.656 35.6854C261.56 39.3157 263.161 42.9335 265.115 46.5765C265.543 45.8706 265.909 46.3748 266.375 45.8328C264.245 42.6436 263.463 36.4543 259.694 35.6854H259.656Z" fill="#DFDFDF"/>
<path fill-rule="evenodd" clip-rule="evenodd" d="M246.937 52.2994C247.177 53.56 246.723 54.8205 246.937 56.0811C247.543 55.5769 248.135 55.6651 248.753 55.1735C248.236 54.3541 247.832 52.5137 246.9 52.3246L246.937 52.2994Z" fill="#DFDFDF"/>
<path fill-rule="evenodd" clip-rule="evenodd" d="M264.875 38.8619C265.866 40.941 266.969 42.965 268.178 44.9252C268.887 44.4538 269.628 44.0326 270.396 43.6646C268.871 41.7408 266.998 40.1203 264.875 38.8871V38.8619Z" fill="#DFDFDF"/>
<path fill-rule="evenodd" clip-rule="evenodd" d="M247.883 57.871C254.097 61.8039 258.951 69.3924 265.152 73.8043C274.909 65.6738 277.102 55.5012 271.871 46.0723C263.892 49.7026 255.837 54.8205 247.921 57.871H247.883Z" fill="#DFDFDF"/>
<path fill-rule="evenodd" clip-rule="evenodd" d="M242.803 38.3073C247.303 40.8915 238.857 42.089 242.803 38.3073V38.3073ZM242.311 54.3163L241.555 53.497C241.555 52.6398 242.614 52.3373 243.181 52.3751C243.32 52.5137 243.433 52.6524 243.559 52.7911C243.559 53.3583 243.156 54.3541 242.299 54.3163H242.311ZM240.748 49.2741C239.412 48.1396 240.597 46.753 241.845 46.753L242.79 47.7867C242.66 48.2244 242.39 48.6072 242.021 48.876C241.652 49.1448 241.205 49.2847 240.748 49.2741ZM241.051 42.1772C241.283 42.4073 241.439 42.7035 241.496 43.0253C241.554 43.3471 241.511 43.6789 241.373 43.9754C241.235 44.2718 241.009 44.5185 240.726 44.6817C240.443 44.845 240.116 44.9168 239.79 44.8874C237.836 43.4378 239.588 41.4209 241.051 42.1772ZM238.076 56.2576C237.711 56.2408 237.369 56.0801 237.123 55.8106C236.877 55.5411 236.748 55.1849 236.765 54.8205C236.782 54.4561 236.942 54.1133 237.212 53.8674C237.481 53.6216 237.837 53.4928 238.202 53.5096C239.399 54.4802 239.362 55.4004 238.076 56.2576ZM237.597 49.1355C238.088 49.6145 238.542 50.0935 238.53 50.5599L237.698 51.3162C236.324 51.1019 236.16 49.2867 237.597 49.1355ZM238.479 37.7905C239.841 38.9754 239.588 40.0721 238.139 41.131C235.34 41.5722 235.807 37.0468 238.479 37.7905ZM234.698 46.5135C232.492 46.2614 233.437 43.1352 235.202 44.1689C236.122 45.0009 235.706 45.7698 234.698 46.5135ZM234.698 51.4423C228.496 55.0348 233.903 45.0639 234.698 51.4423V51.4423ZM233.185 55.8542C232.857 55.7654 232.562 55.5816 232.338 55.326C232.113 55.0703 231.97 54.7542 231.924 54.4172C232.819 53.3709 233.689 53.1566 234.445 54.3289C234.206 55.0979 234.092 55.5895 233.185 55.8542ZM229.202 47.7867C226.302 46.7404 229.202 43.1605 231.08 45.2656C231.433 46.0975 230.26 47.5976 229.202 47.7867ZM229.403 52.1356C229.729 52.2287 230.021 52.4138 230.245 52.6686C230.468 52.9235 230.614 53.2373 230.664 53.5726C229.403 55.2869 227.424 53.2196 229.403 52.1356ZM226.176 58.5139C225.833 58.3388 225.562 58.049 225.409 57.6949C225.257 57.3408 225.234 56.9446 225.343 56.5749C225.452 56.2053 225.687 55.8855 226.008 55.671C226.328 55.4565 226.713 55.3607 227.096 55.4004C227.44 55.5755 227.711 55.8653 227.863 56.2194C228.015 56.5735 228.039 56.9698 227.93 57.3394C227.82 57.7091 227.585 58.0288 227.265 58.2434C226.945 58.4579 226.56 58.5536 226.176 58.5139ZM225.886 51.2028C226.177 51.2682 226.444 51.4134 226.657 51.6223C226.869 51.8311 227.019 52.0951 227.09 52.3847C227.161 52.6742 227.149 52.9778 227.057 53.2611C226.965 53.5445 226.795 53.7964 226.567 53.9886C226.096 53.9722 225.626 54.0189 225.168 54.1272C223.516 53.0306 224.537 51.6061 225.886 51.2028ZM226.63 47.8749C227.109 48.2279 226.983 48.543 227.172 48.8833C226.693 49.4506 226.239 49.2237 225.811 48.6312L226.63 47.8749ZM233.059 40.4503L233.815 41.2822C233.336 41.8243 232.87 42.0134 232.429 41.4209C232.512 41.031 232.737 40.6856 233.059 40.4503ZM242.349 35.7232L241.517 36.4795C241.038 36.1266 241.164 35.7989 240.975 35.4711C241.454 34.9039 241.908 35.1308 242.349 35.7232ZM244.404 33.8324C239.538 35.0929 234.685 36.5426 229.693 40.9041C229.693 41.6352 230.462 42.3789 229.794 43.0722C229.126 43.7655 228.231 42.5806 227.424 42.984C225.622 44.4084 225.319 45.9085 223.882 47.3707C224.991 48.4674 225.685 49.5514 224.538 50.5473C223.63 51.8078 222.848 50.1439 221.953 51.0263C221.714 52.4633 221.537 53.9129 221.374 55.35C222.004 55.9928 222.71 54.934 223.315 56.2197C223.832 57.9089 220.63 57.4803 221.815 58.7408C225.206 59.6106 229.378 58.3123 233.311 57.6568C237.244 57.0013 241.441 56.6231 245.211 56.1945C243.95 48.7069 244.631 41.3075 244.404 33.8576V33.8324Z" fill="#FD8300"/>
<path fill-rule="evenodd" clip-rule="evenodd" d="M247.051 48.7573C249.194 50.2069 249.068 54.7323 251.576 53.686C250.349 50.6529 248.834 47.7446 247.051 45.0009C247.253 46.2614 246.912 47.522 247.051 48.7825V48.7573Z" fill="#DFDFDF"/>
<path fill-rule="evenodd" clip-rule="evenodd" d="M342.124 0.100769C341.982 4.41019 342.932 8.68552 344.884 12.5298C347.279 17.1938 354.464 23.1562 359.292 24.8075C360.026 24.9891 360.78 25.0781 361.536 25.0722V0.100769H342.124Z" fill="#43568E"/>
<path fill-rule="evenodd" clip-rule="evenodd" d="M348.729 0.100769C348.247 1.30144 348.019 2.5892 348.061 3.88241C347.357 2.75579 347.126 1.39679 347.418 0.100769L345.779 0.100769C345.779 0.428512 345.779 0.756254 345.779 1.084C345.863 3.86792 346.522 6.6044 347.715 9.12102C348.908 11.6376 350.61 13.8798 352.712 15.7064C355.448 18.114 357.943 20.4586 361.536 21.5301V0.100769H348.729Z" fill="#FD8300"/>
<path fill-rule="evenodd" clip-rule="evenodd" d="M355.611 45.846C351.603 47.5982 349.826 51.5815 345.943 53.4093C338.039 51.1655 333.539 45.5309 326.631 42.3039C325.825 28.4379 325.774 13.4499 324.829 0.050293H322.762C322.497 18.719 323.077 38.2953 323.959 56.2834C324.337 64.0231 323.657 71.8638 326.014 78.469C325.913 79.4018 324.602 79.1119 324.993 80.5363C332.19 82.465 341.128 81.57 349.649 81.9734C353.632 82.1624 357.565 82.4272 361.536 82.528V48.7201C359.5 47.8944 357.52 46.9343 355.611 45.846Z" fill="#43568E"/>
<path fill-rule="evenodd" clip-rule="evenodd" d="M355.397 47.4975C353.368 49.7165 351.173 51.7772 348.83 53.6616C348.048 54.3549 347.153 55.5776 346.561 55.7162C345.489 55.9557 342.779 54.8843 341.834 54.4557C336.615 52.2876 331.648 46.6907 326.833 44.5982C327.098 51.2413 327.262 58.0104 327.867 64.3258C329.354 61.8047 330.388 58.7542 332.796 57.1281C337.737 58.6281 342.792 60.0147 347.998 61.2374C350.431 58.3256 352.548 55.0986 355.813 53.0187C357.679 53.9893 359.595 54.9095 361.536 55.8171V50.7749C359.373 49.9122 357.313 48.8086 355.397 47.4849V47.4975Z" fill="#DFDFDF"/>
<path fill-rule="evenodd" clip-rule="evenodd" d="M357.25 77.0824C356.507 77.4858 354.666 78.822 355.397 79.3514C357.452 79.3514 359.494 79.427 361.536 79.4396V78.9354C359.746 78.9354 358.612 77.4227 357.25 77.0824Z" fill="#FD8300"/>
<path fill-rule="evenodd" clip-rule="evenodd" d="M355.233 55.9179C353.443 57.1785 354.086 59.7752 354.2 62.498C354.414 67.3259 354.2 72.9605 353.998 77.0825C354.893 76.8934 355.132 76.0363 355.851 75.6455C354.754 69.9604 355.977 61.9559 355.233 55.9179Z" fill="white"/>
<path fill-rule="evenodd" clip-rule="evenodd" d="M357.049 56.1196C356.825 56.1309 356.605 56.0591 356.431 55.9179C356.885 61.9685 356.507 68.8511 356.633 75.2421C357.742 74.6118 357.25 72.8219 357.25 71.7378C357.25 66.3553 357.956 60.5441 357.049 56.1196Z" fill="white"/>
<path fill-rule="evenodd" clip-rule="evenodd" d="M359.103 57.1532C359.103 56.9893 358.927 56.9137 358.687 56.9515V57.5692C358.561 60.9601 358.851 65.0443 358.687 68.662C358.574 71.1831 357.591 74.6875 359.507 76.0614C359.658 71.5613 359.305 66.2922 359.507 61.8803C359.582 60.2794 360.376 58.2121 359.103 57.1532Z" fill="white"/>
<path fill-rule="evenodd" clip-rule="evenodd" d="M360.54 57.7709V58.3885C360.981 63.9602 360.616 72.2546 360.742 76.6791C360.881 76.906 361.221 76.9312 361.536 76.969V58.086C361.245 57.8833 360.894 57.7855 360.54 57.8087V57.7709Z" fill="white"/>
<path fill-rule="evenodd" clip-rule="evenodd" d="M352.939 58.5903C352.681 59.012 352.327 59.3663 351.905 59.6239C352.649 65.3216 352.031 72.3681 352.939 77.9145C352.763 71.4353 353.191 64.4644 352.939 58.5903Z" fill="white"/>
<path fill-rule="evenodd" clip-rule="evenodd" d="M333.199 59.2079C332.405 59.0314 332.48 59.7121 331.938 59.8256C333.136 63.3551 332.19 70.7923 332.959 75.4437C334.22 73.7168 333.476 70.8806 333.375 68.4603C333.237 65.2963 333.653 61.9433 333.161 59.2079H333.199Z" fill="white"/>
<path fill-rule="evenodd" clip-rule="evenodd" d="M335.266 59.8256H334.649V60.4432C335.304 63.4938 334.775 68.3721 335.052 71.7882C335.115 72.5445 334.913 74.0193 335.871 74.3093C336.88 73.4521 336.01 71.5108 335.871 69.7965C335.644 66.5821 335.997 62.6114 335.266 59.9264V59.8256Z" fill="white"/>
<path fill-rule="evenodd" clip-rule="evenodd" d="M338.342 60.6072C337.686 60.6072 337.472 60.2416 336.703 60.4055C337.069 62.9266 336.943 66.7082 337.107 69.2293C337.245 71.3092 337.333 73.5404 338.367 74.7757C338.367 70.8554 338.367 65.1956 338.367 60.5946L338.342 60.6072Z" fill="white"/>
<path fill-rule="evenodd" clip-rule="evenodd" d="M331.56 61.0609C331.56 60.9348 331.56 60.8088 331.359 60.8466C329.468 63.166 331.232 72.0277 330.943 76.2631C332.052 75.7337 331.56 74.0572 331.56 72.9731C331.56 68.9898 331.56 64.7165 331.56 61.0609Z" fill="white"/>
<path fill-rule="evenodd" clip-rule="evenodd" d="M350.267 61.8676C350.055 65.7754 350.19 69.6942 350.67 73.5781C350.758 74.7252 350.557 76.3639 351.502 77.0699C350.884 72.0277 351.502 65.8762 350.67 61.0483C350.67 61.4517 350.115 61.3004 350.267 61.8676Z" fill="white"/>
<path fill-rule="evenodd" clip-rule="evenodd" d="M340.397 61.2626H339.577V61.8677C339.792 65.019 339.401 69.431 339.577 72.9605C339.64 74.1328 339.413 76.0867 340.838 76.2505C340.056 71.6243 341.317 65.2964 340.422 61.25L340.397 61.2626Z" fill="white"/>
<path fill-rule="evenodd" clip-rule="evenodd" d="M342.048 61.8677C342.388 67.0359 341.871 73.0866 342.451 77.4859C342.54 72.368 342.25 66.8721 342.653 62.0694C342.401 62.0694 342.376 61.8046 342.048 61.8677Z" fill="white"/>
<path fill-rule="evenodd" clip-rule="evenodd" d="M344.708 62.4979H344.103V63.1282C343.838 66.1031 343.888 69.4309 343.888 72.784C343.888 75.0026 343.031 78.217 344.922 78.5321C345.388 73.4899 344.393 68.1074 344.708 62.5105V62.4979Z" fill="white"/>
<path fill-rule="evenodd" clip-rule="evenodd" d="M346.561 62.9012H345.943C345.833 67.6368 346.039 72.3744 346.561 77.0824C347.758 76.3513 346.775 74.5613 346.775 72.7713C346.775 69.5696 347.531 65.5232 346.561 62.9012Z" fill="white"/>
<path fill-rule="evenodd" clip-rule="evenodd" d="M347.998 63.3173V63.935C348.124 68.0948 348.086 73.1118 348.414 76.0615H349.674C348.88 72.2798 349.51 67.0485 348.641 63.3173H347.998Z" fill="white"/>
<path fill-rule="evenodd" clip-rule="evenodd" d="M329.505 64.1367C329.505 64.0106 329.505 63.8972 329.304 63.935C327.426 66.6452 329.001 73.1118 328.686 77.4985C330.426 77.1708 329.568 75.1413 329.505 73.7925C329.379 70.8428 329.606 66.9855 329.505 64.1367Z" fill="white"/>
<path fill-rule="evenodd" clip-rule="evenodd" d="M330.741 78.9355C333.955 78.7969 337.371 79.5532 340.397 78.9355C338.972 77.8382 337.374 76.9862 335.669 76.4144C334.195 77.4103 331.888 77.675 330.741 78.9355Z" fill="white"/>
<path fill-rule="evenodd" clip-rule="evenodd" d="M346.561 78.9355C348.225 78.7968 350.053 79.5658 351.502 78.9355C349.737 77.8766 347.922 76.9438 346.561 78.9355Z" fill="white"/>
<path fill-rule="evenodd" clip-rule="evenodd" d="M271.873 14.5971C271.873 19.3241 275.251 28.0345 278.428 31.1481C285.84 38.4341 298.874 38.5727 305.303 31.7405C312.425 24.1772 313.421 10.7776 309.412 3.51686C308.682 2.24383 307.759 1.09149 306.677 0.100769L278.025 0.100769C276.063 1.96839 274.505 4.21832 273.447 6.71162C272.389 9.20492 271.853 11.8887 271.873 14.5971Z" fill="#43568E"/>
<path fill-rule="evenodd" clip-rule="evenodd" d="M280.344 4.27319C280.609 4.27319 280.735 4.41185 280.747 4.58832C278.861 8.05491 278.045 12.003 278.403 15.9333C274.344 13.929 277.747 6.11359 280.344 4.33621V4.27319ZM303.904 17.3073C304.622 19.6141 302.303 22.1099 300.929 23.1058C301.118 21.1015 302.87 18.9712 303.904 17.3073ZM274.974 16.4879C276.159 22.3242 282.222 30.2279 290.214 29.9254C292.168 29.8497 296.517 28.1732 299.24 26.4336C303.551 23.6478 308.593 15.2274 307.509 7.66406C307.163 6.05785 306.467 4.54756 305.471 3.24043C304.476 1.93329 303.205 0.861372 301.748 0.100769L281.945 0.100769C280.685 0.769945 279.55 1.65283 278.592 2.7101C277.024 4.60585 275.888 6.82053 275.263 9.19997C274.639 11.5794 274.54 14.0664 274.974 16.4879Z" fill="#DFDFDF"/>
<path fill-rule="evenodd" clip-rule="evenodd" d="M287.302 33.4172C298.496 36.5055 306.778 30.8961 308.732 19.5511C304.761 29.1691 297.21 33.1651 287.302 33.4172Z" fill="white"/>
<path fill-rule="evenodd" clip-rule="evenodd" d="M239.704 17.6603C246.461 18.4797 255.083 15.3913 258.537 11.3576C260.869 8.59695 262.318 4.42454 263.062 0.138672H223.09C223.479 3.59124 224.537 6.93504 226.204 9.98356C228.952 14.2946 234.675 17.0931 239.704 17.6981V17.6603Z" fill="#43568E"/>
<path fill-rule="evenodd" clip-rule="evenodd" d="M251.427 6.40359C253.469 4.89093 254.73 2.25638 256.734 0.668091C256.999 0.668091 257.112 0.806751 257.125 0.995833C255.259 5.53381 252.536 8.74821 247.822 8.82384C248.314 7.41203 250.141 7.349 251.427 6.40359ZM232.809 7.66414C238.771 11.3323 246.398 11.6475 251.541 8.92468C254.996 6.8877 257.661 3.7426 259.104 0H226.557C227.93 3.07189 230.107 5.71561 232.859 7.65153L232.809 7.66414Z" fill="#DFDFDF"/>
<path fill-rule="evenodd" clip-rule="evenodd" d="M239.994 13.324C235.355 12.3911 231.876 9.76921 228.473 7.2229C229.61 9.35317 231.182 11.2212 233.086 12.7063C241.57 18.0006 251.994 13.9668 255.776 9.08851C251.793 10.9667 246.083 14.5845 240.007 13.3492L239.994 13.324Z" fill="white"/>
<path fill-rule="evenodd" clip-rule="evenodd" d="M283.231 7.33632C285.179 9.55485 287.816 11.0552 290.718 11.597C291.802 8.85544 292.678 6.03651 293.34 3.1639C292.76 2.16807 291.21 3.25214 291.071 2.87398C290.769 1.96638 290.491 1.03358 290.214 0.100769H284.643C285.122 1.85293 285.626 3.51686 286.143 4.9917C285.008 5.50852 283.71 5.74803 283.256 7.33632H283.231Z" fill="#43568E"/>
<path fill-rule="evenodd" clip-rule="evenodd" d="M286.407 7.82799C287.756 8.06749 288.286 8.82382 289.382 9.21459C290 8.09271 290.34 6.51702 290.958 5.43295C289.08 4.1724 288.437 2.26897 287.945 0.126038H286.685C287.201 2.06728 287.706 4.02113 288.223 5.96238C287.958 7.03384 286.08 6.84476 286.382 7.8532L286.407 7.82799Z" fill="#FD8300"/>
</svg>
