<svg width="306" height="211" viewBox="0 0 306 211" fill="none" xmlns="http://www.w3.org/2000/svg">
<path d="M153.758 80.439C177.729 75.275 216.986 128.377 238.267 126.723" stroke="#3B3B4C" stroke-width="5.94603" stroke-miterlimit="10"/>
<path d="M34.0235 105.946C33.973 105.69 33.8626 105.449 33.7014 105.243C33.5402 105.038 33.3327 104.873 33.0958 104.762L31.9066 104.271L31.8664 104.254L31.7247 104.196L26.8012 102.167C26.5636 102.07 26.304 102.039 26.0502 102.079C25.2484 102.191 24.4464 102.897 24.0161 103.934L23.4095 105.412L22.4257 107.788L23.6632 108.299L24.6496 105.914L24.7913 105.575C25.1041 104.805 25.7026 104.279 26.2907 104.188C26.485 104.153 26.6854 104.174 26.868 104.249L31.2115 106.04L31.5751 106.187C32.2994 106.489 32.5454 107.564 32.1097 108.593L31.9867 108.884L30.9922 111.303V111.319L32.23 111.829L33.2349 109.389L33.823 107.962C33.8578 107.879 33.8871 107.799 33.9165 107.719C33.9592 107.593 33.9886 107.467 34.018 107.342C34.1261 106.883 34.128 106.406 34.0235 105.946Z" fill="#221C2D"/>
<path d="M34.256 97.5563C33.9139 99.0852 34.4485 98.8339 34.2748 100.905C34.101 102.977 34.7344 106.182 33.6546 106.115C32.5747 106.048 32.2406 104.639 31.8504 104.244C31.4601 103.848 32.1364 105.345 31.225 106.043C30.3135 106.74 27.6807 106.361 26.8361 105.241C25.9915 104.121 25.7509 102.386 26.3897 100.491C27.0286 98.596 28.8784 96.3855 29.3675 95.6318C29.8567 94.878 34.256 97.5563 34.256 97.5563Z" fill="#EEADA5"/>
<path d="M34.0313 105.946C33.9805 105.689 33.87 105.447 33.7084 105.239C33.5468 105.032 33.3389 104.866 33.1012 104.754L31.9065 104.279H31.8716L31.7862 104.246L31.7379 104.693V104.73L31.6766 105.377L31.5883 106.198C32.3154 106.5 32.5586 107.58 32.1229 108.603L32.0026 108.897L31.0057 111.303L32.2406 111.811L33.243 109.389L33.8308 107.962C33.8656 107.879 33.8951 107.799 33.9245 107.719C33.9673 107.593 33.9967 107.467 34.0261 107.342C34.1357 106.883 34.1374 106.406 34.0313 105.946Z" fill="#221C2D"/>
<path d="M46.2787 119.42L39.0619 137.217C38.8561 137.72 38.4595 138.121 37.9588 138.334C37.4581 138.546 36.8939 138.552 36.389 138.35L36.3329 138.328L4.44796 125.857C0.868962 124.403 1.91931 121.887 2.34698 120.832L8.66038 103.84C9.08804 102.771 11.4884 100.526 14.3351 101.729L42.5448 113.163L43.6139 113.594C45.9367 114.545 47.2463 117.034 46.2787 119.42Z" fill="#ED6A0B"/>
<path d="M46.2787 119.42L39.0619 137.217C38.856 137.72 38.4595 138.122 37.9588 138.334C37.4581 138.546 36.8939 138.552 36.389 138.35L36.3329 138.329C36.3917 137.126 36.8326 135.367 38.0755 132.812C41.0745 126.629 42.1732 118.688 42.5662 113.169L43.6353 113.599C45.9367 114.545 47.2463 117.034 46.2787 119.42Z" fill="#ED8E5F"/>
<path d="M143.016 74.2406C146.114 75.3258 149.006 74.6549 152.262 75.577C155.517 76.4992 158.925 81.3104 157.995 83.4808C157.065 85.6512 154.432 87.1988 152.572 86.421C150.711 85.6432 150.401 82.3929 147.76 82.2379C145.12 82.0829 141.097 82.0829 141.097 81.3077C141.097 80.5326 143.016 74.2406 143.016 74.2406Z" fill="#EFAEA6"/>
<path d="M141.298 191.148C141.148 188.125 139.822 180.603 139.822 180.603L131.878 181.48L133.971 192.757L139.731 195.595L141.298 191.148Z" fill="white"/>
<path d="M141.733 189.803C142.535 189.517 142.268 190.338 142.722 191.575C143.73 194.379 154.216 193.361 155.819 193.446C156.648 193.494 158.407 197.589 154.346 197.99C150.834 198.343 139.589 199.516 135.746 199.877C135.355 199.915 134.962 199.822 134.63 199.613C134.297 199.404 134.043 199.091 133.907 198.722C132.923 196.012 132.661 191.674 133.723 191.471C135.294 190.803 138.347 190.995 141.733 189.803Z" fill="#1F1F39"/>
<path d="M18.3951 173.303C21.4208 173.194 28.9585 171.967 28.9585 171.967L28.1858 164.004L16.8822 165.95L13.9689 171.67L18.3951 173.303Z" fill="white"/>
<path d="M19.7343 173.752C20.0016 174.568 19.1834 174.287 17.9512 174.717C15.1313 175.688 16.0135 186.189 15.8985 187.793C15.8397 188.624 11.7208 190.33 11.3546 186.261C11.0472 182.747 10.0183 171.488 9.71095 167.639C9.67704 167.248 9.77445 166.856 9.98789 166.526C10.2013 166.196 10.5184 165.946 10.8895 165.817C13.6105 164.868 17.9515 164.662 18.1413 165.726C18.8148 167.3 18.5849 170.363 19.7343 173.752Z" fill="#1F1F39"/>
<path opacity="0.15" d="M0.0325928 206.212C0.0325928 207.976 71.6928 210.021 154.258 210.021C236.824 210.021 303.764 208.593 303.764 206.832C303.764 205.071 236.827 203.641 154.258 203.641C71.6901 203.641 0.0325928 204.451 0.0325928 206.212Z" fill="#333340"/>
<path d="M24.2594 175.383C25.978 175.164 67.9344 172.199 73.3844 162.882C79.7165 150.685 82.8998 132.622 86.9893 120.738C87.2005 120.88 94.2731 125.705 101.837 131.446C108.83 136.754 116.244 142.848 119.043 146.754C125.875 156.296 128.058 186.556 129.633 188.087C131.207 189.619 141.816 186.585 141.979 184.781C142.185 182.509 135.126 143.765 132.062 137.88C127.743 129.58 103.623 106.16 96.7803 93.8436L91.8433 94.4317C91.8433 94.4317 67.2529 94.4557 66.9108 96.284C66.721 97.2756 66.5473 98.3154 66.3762 99.3952C65.3819 105.973 64.8445 114.037 64.4543 121.954C63.8048 135.118 62.4362 146.901 61.18 151.722C60.028 156.122 22.776 161.201 21.517 161.978C20.2581 162.756 22.5407 175.602 24.2594 175.383Z" fill="#3B3B4C"/>
<path opacity="0.28" d="M64.5535 120.319C68.1672 117.771 76.1403 109.523 79.9278 101.108L66.4112 98.9969C65.4356 105.219 64.9223 112.837 64.5535 120.319Z" fill="#1F1F39"/>
<path d="M83.8517 48.2949L77.7413 44.3764C78.6047 41.2812 78.9549 33.5378 80.2673 30.9318C81.708 28.0691 81.9297 28.3123 81.9297 28.3123L85.7253 32.4981L87.5107 34.4653C87.5107 34.4653 86.8826 35.612 86.773 37.8225C86.7072 39.9193 87.0196 42.0108 87.6952 43.9969C88.31 45.9133 83.8517 48.2949 83.8517 48.2949Z" fill="#EFAEA6"/>
<path opacity="0.14" d="M87.5077 34.4653C87.0596 35.6479 86.8069 36.8955 86.7593 38.1592C82.0337 38.8061 80.5369 34.8956 81.9481 34.0323C82.8222 33.4977 85.7301 32.498 85.7301 32.498L87.5077 34.4653Z" fill="#1F1F39"/>
<path d="M91.5175 24.4232C91.432 26.8448 93.4821 31.7469 91.8623 31.5464C90.2425 31.346 91.6886 36.6677 89.9566 36.518C85.7601 36.1572 81.2668 32.939 80.9648 30.8568C80.6628 28.7746 81.6226 23.1749 81.6226 23.1749L91.5175 24.4232Z" fill="#EFAEA6"/>
<path d="M86.9281 26.2194C88.2272 26.5294 88.2299 26.8475 89.2082 26.5107C90.1865 26.1739 88.7376 24.7092 90.4937 24.6397C92.2498 24.5702 94.153 24.6798 94.5647 22.7313C95.1634 19.9114 92.584 20.0584 90.9829 20.1974C89.9538 20.2909 89.9645 18.0778 87.9438 17.9307C86.3614 17.8158 86.4362 18.7593 85.0169 18.7193C84.1616 18.6952 82.6728 17.1022 81.2295 17.9628C78.5566 19.5666 80.3234 22.1325 78.0434 23.9073C75.3865 25.9815 80.3021 31.6587 81.0131 31.1241C81.8417 30.504 81.0316 27.9327 81.8549 27.4489C83.0951 26.7219 83.1219 27.7162 83.9692 28.7212C84.8753 29.8037 86.749 30.0844 85.7601 28.0877C84.7711 26.0911 85.7521 25.9361 86.9281 26.2194Z" fill="#1F1F39"/>
<path d="M77.744 39.223C80.3982 38.4211 81.6732 41.6954 83.8463 41.7355C85.1667 41.7596 85.0757 40.5728 85.6531 39.9046C86.0113 39.4903 86.7356 39.7549 87.7914 39.795C90.5445 39.9019 95.2943 94.7577 95.2943 94.7577C95.2943 94.7577 88.9596 98.8766 83.408 98.9728C77.8564 99.069 68.3409 95.482 68.4745 93.5362C68.6082 91.5903 72.6896 42.246 72.6896 42.246C72.6896 42.246 75.0899 40.0169 77.744 39.223Z" fill="white"/>
<path d="M87.693 39.8593C105.706 45.4964 114.195 60.6543 120.495 63.4983C124.132 65.1395 142.725 72.5861 145.288 73.5698C147.71 74.4892 144.941 81.7408 144.462 82.8153C143.34 85.3278 120.855 75.0639 115.689 72.1745C109.656 68.796 102.466 60.657 97.7135 61.483C94.7492 61.9988 94.9391 73.8985 95.5619 77.4882C96.1846 81.0779 103.046 97.6178 100.774 99.4059C98.1011 101.491 94.2924 102.325 90.7668 97.9866C88.6285 95.3458 86.8161 81.5671 86.6878 72.3696C86.5595 63.1722 90.2989 60.2855 89.1602 50.0777L87.693 39.8593Z" fill="#0068A5"/>
<path d="M78.0515 66.1203C80.6041 74.3368 80.6789 81.6578 80.7244 85.8837C80.7778 90.0534 84.167 97.8796 81.6732 101.549C76.0147 109.878 63.0538 112.711 61.9846 111.279C60.6001 109.426 62.7464 100.822 64.0347 96.8238C65.0798 93.5842 63.0324 83.8683 63.4307 77.7714C63.5334 76.6428 63.5262 75.5068 63.4093 74.3795C63.305 73.7086 63.1823 73.0244 63.0459 72.3401C62.4339 69.2609 61.5838 66.2192 61.4795 64.8827C61.4633 64.7424 61.4633 64.6007 61.4795 64.4604C61.4779 64.4471 61.4779 64.4337 61.4795 64.4203C60.2901 65.15 46.4872 73.5082 44.3435 76.6515C41.7669 80.4363 35.4295 97.5669 35.074 99.1305C32.5669 98.922 28.0149 96.1556 27.1997 95.5542C27.6648 90.9835 32.6311 78.3889 36.0952 71.8643C40.4894 63.5971 51.8412 54.8006 59.6166 47.8083C64.7753 43.1655 77.2762 39.3192 77.2762 39.3192C77.7172 42.3316 74.8547 55.8297 78.0515 66.1203Z" fill="#0068A5"/>
<path opacity="0.28" d="M61.485 64.4498L61.4986 65.0111C61.6456 66.4091 62.4606 69.3546 63.054 72.3375C63.1876 73.0218 63.3214 73.7061 63.4176 74.377C63.5345 75.5042 63.5417 76.6402 63.439 77.7689C63.3615 78.9556 63.5646 80.2921 63.439 81.7007C63.5887 81.4735 63.439 81.2115 63.5941 80.9202C64.4093 79.3432 66.6839 64.6156 66.267 61.5765C66.275 61.5765 62.9845 63.0011 61.485 64.4498Z" fill="#1F1F39"/>
<path opacity="0.18" d="M83.3388 44.0422C83.0876 43.8498 79.7946 48.3189 76.122 49.805C75.1067 50.2344 74.0168 50.4596 72.9145 50.4679C69.6696 50.4465 62.9417 49.2063 58.9137 48.4338C60.3063 47.3165 61.8835 45.6326 63.5701 44.4245C66.4568 45.5417 71.0541 47.2631 72.7647 47.1856C73.9916 47.1201 75.2016 46.8705 76.3543 46.4452C78.2808 45.706 80.0834 44.6776 81.7001 43.3954C82.4164 42.8608 82.5716 41.9574 83.3868 41.9788C84.48 42.0028 83.6622 44.2881 83.3388 44.0422Z" fill="#1F1F39"/>
<path d="M85.2977 42.4251C85.3036 42.2333 85.27 42.0424 85.1993 41.8641C85.1286 41.6858 85.0221 41.5239 84.8863 41.3884C84.7506 41.2528 84.5884 41.1466 84.41 41.0762C84.2315 41.0058 84.0405 40.9727 83.8487 40.979C83.0014 40.9603 82.9106 41.2998 82.1649 41.8691C79.925 43.5797 76.6159 45.6459 72.8338 45.8196C69.0516 45.9934 60.7791 40.522 55.1661 41.38C49.553 42.238 47.5268 47.1187 39.4226 47.8938C31.3184 48.6689 22.8883 44.7371 20.4934 45.0044C18.0985 45.2717 16.6336 45.6913 16.6362 46.6349C16.6389 47.5784 17.7055 49.2008 19.3386 49.9706C20.9718 50.7404 35.5498 52.6435 39.4495 52.3762C45.819 51.9218 51.6059 46.5627 55.6954 46.4585C59.785 46.3542 68.2043 49.2196 72.9888 49.2543C78.3346 49.2917 83.0442 43.3739 83.381 43.6252C83.5545 43.7946 83.7679 43.9177 84.0014 43.9831C84.235 44.0485 84.4812 44.0541 84.7174 43.9994C85.1959 43.9005 85.2977 42.9596 85.2977 42.4251Z" fill="#F3AD06"/>
<path opacity="0.61" d="M86.995 120.647C87.2062 120.781 94.1824 125.793 101.763 131.24C99.603 126.287 88.7937 115.689 88.7937 115.689L86.995 120.647Z" fill="#1F1F39"/>
<path d="M224.117 52.8708C216.537 53.3568 208.927 52.7264 201.531 50.9998C200.373 50.7325 199.147 50.3877 198.364 49.4147C197.174 47.9446 197.532 45.4669 198.812 44.093C200.093 42.7191 202.02 42.3075 203.808 42.4893C204.947 42.6096 206.118 42.949 207.219 42.5989C208.593 42.1632 209.504 40.7786 210.426 39.5758C211.348 38.373 212.596 37.1702 214.018 37.3707C215.088 37.5123 215.924 38.3917 216.871 38.945C217.817 39.4983 219.196 39.5544 219.739 38.5387C220.904 36.363 219.271 30.3998 225.261 30.3998C233.908 30.3998 232.496 36.4031 233.547 37.6754C235.124 39.6079 237.933 39.1829 240.229 38.528C242.525 37.8732 245.238 37.2558 246.999 38.9824C248.528 40.4793 248.686 43.2243 250.314 44.5955C252.043 46.0522 254.502 45.2744 256.598 44.6196C258.693 43.9647 261.409 43.7268 262.617 45.7128C263.635 47.3807 262.884 49.7996 261.425 51.0211C259.966 52.2427 258.06 52.5393 256.237 52.6623C244.369 53.4642 233.616 52.2373 224.117 52.8708Z" fill="white"/>
<path d="M290.928 160.901C290.926 172.358 286.578 183.387 278.762 191.763C270.946 200.139 260.243 205.238 248.814 206.032C237.385 206.826 226.08 203.255 217.181 196.039C208.282 188.824 202.451 178.502 200.865 167.156C200.581 165.085 200.438 162.997 200.438 160.906C200.426 151.267 203.496 141.875 209.2 134.104C214.903 126.332 222.941 120.587 232.141 117.707C233.325 117.336 234.533 117.012 235.757 116.74C242.377 115.258 249.245 115.283 255.854 116.812C262.462 118.341 268.643 121.335 273.94 125.573C279.236 129.812 283.512 135.186 286.453 141.299C289.393 147.412 290.923 154.107 290.928 160.89V160.901Z" fill="#F3AD06"/>
<path opacity="0.78" d="M235.757 116.75C235.15 120.77 234.242 124.739 233.039 128.623C228.02 130.507 223.52 133.554 219.906 137.513C216.292 141.473 213.668 146.232 212.25 151.402C209.042 152.262 205.388 152.628 201.242 152.372C202.787 144.344 206.474 136.883 211.914 130.781C217.354 124.678 224.343 120.161 232.141 117.707C233.325 117.346 234.533 117.023 235.757 116.75Z" fill="#F4C83D"/>
<path opacity="0.19" d="M244.904 194.173C263.595 194.173 278.748 179.021 278.748 160.329C278.748 141.638 263.595 126.485 244.904 126.485C226.212 126.485 211.06 141.638 211.06 160.329C211.06 179.021 226.212 194.173 244.904 194.173Z" fill="#D39432"/>
<path d="M269.858 137.551C263.458 131.752 255.072 128.637 246.439 128.85C237.805 129.063 229.583 132.588 223.476 138.695C217.369 144.802 213.845 153.024 213.632 161.658C213.42 170.292 216.535 178.677 222.334 185.077C218.948 182.019 216.219 178.304 214.313 174.158C212.407 170.013 211.364 165.522 211.248 160.961C211.132 156.399 211.945 151.862 213.637 147.624C215.329 143.387 217.866 139.538 221.092 136.311C224.318 133.085 228.167 130.548 232.405 128.856C236.642 127.163 241.18 126.35 245.741 126.466C250.303 126.582 254.793 127.624 258.939 129.53C263.085 131.435 266.8 134.164 269.858 137.551Z" fill="#CB830F"/>
<path d="M281.17 162.879C281.171 169.678 279.112 176.318 275.264 181.923C271.416 187.529 265.961 191.837 259.616 194.281C253.271 196.724 246.335 197.188 239.721 195.612C233.108 194.035 227.127 190.492 222.567 185.449C228.968 191.242 237.351 194.352 245.982 194.137C254.612 193.922 262.83 190.397 268.935 184.293C275.039 178.188 278.564 169.97 278.779 161.34C278.994 152.709 275.884 144.326 270.091 137.925C273.583 141.075 276.375 144.925 278.283 149.224C280.192 153.523 281.175 158.175 281.17 162.879Z" fill="#F4C83D"/>
<path d="M247.817 126.188C253.099 125.354 253.853 122.954 254.834 115.513C255.518 122.572 256.392 125.25 261.762 126.055C257.076 128.067 255.43 128.797 254.596 136.957C253.441 128.693 252.425 127.963 247.817 126.188Z" fill="white"/>
<path d="M152.107 81.7834C149.626 83.9538 145.288 94.3861 149.525 95.3163C153.761 96.2465 153.398 84.0046 153.708 83.2295C154.018 82.4544 152.107 81.7834 152.107 81.7834Z" fill="#3B3B4C"/>
<g opacity="0.82">
<path opacity="0.82" fill-rule="evenodd" clip-rule="evenodd" d="M5.8994 7.76574C5.43699 12.7266 8.73816 15.747 13.3329 14.0818C17.6923 12.4994 18.6278 15.9234 22.2335 16.303C26.0772 16.7092 27.1302 11.7377 29.8192 13.8065C35.0099 17.8158 40.0857 14.7473 38.3429 9.35879C36.9316 4.99663 34.2642 3.97291 32.0029 3.89807C27.9054 3.75908 28.8544 0.273626 24.0886 0.014356C18.0051 -0.317083 19.7022 5.21313 14.2629 3.92747C10.8897 3.13362 6.14264 5.14363 5.8994 7.76574Z" fill="white"/>
</g>
<path d="M273.197 120.043C273.217 120.113 273.254 120.177 273.305 120.23C273.356 120.282 273.419 120.321 273.488 120.343C278.783 122.005 282.499 125.21 284.843 130.133C284.867 130.188 284.901 130.236 284.944 130.277C284.988 130.317 285.038 130.349 285.094 130.369C285.149 130.39 285.208 130.399 285.267 130.396C285.326 130.394 285.384 130.379 285.438 130.354C285.491 130.329 285.539 130.293 285.578 130.249C285.618 130.205 285.648 130.153 285.667 130.098C285.687 130.042 285.695 129.982 285.691 129.923C285.687 129.864 285.671 129.807 285.645 129.754C283.188 124.593 279.299 121.238 273.755 119.495C273.7 119.478 273.641 119.472 273.583 119.477C273.525 119.482 273.469 119.499 273.417 119.526C273.365 119.553 273.32 119.59 273.282 119.635C273.245 119.679 273.217 119.731 273.199 119.787C273.172 119.87 273.171 119.96 273.197 120.043Z" fill="#603B3E"/>
<path d="M281.13 120.083C281.158 120.185 281.223 120.272 281.311 120.329C283.752 121.933 285.548 123.579 286.959 125.541C288.33 127.447 289.346 129.655 290.167 132.491C290.2 132.604 290.276 132.699 290.379 132.756C290.483 132.813 290.604 132.826 290.717 132.793C290.83 132.76 290.926 132.683 290.982 132.58C291.039 132.477 291.052 132.355 291.019 132.242C289.367 126.448 286.697 122.778 281.806 119.581C281.757 119.549 281.703 119.527 281.646 119.516C281.589 119.505 281.53 119.506 281.473 119.518C281.416 119.53 281.362 119.553 281.314 119.586C281.266 119.618 281.225 119.66 281.194 119.709C281.156 119.763 281.13 119.824 281.119 119.889C281.108 119.954 281.111 120.02 281.13 120.083Z" fill="#603B3E"/>
<path d="M204.343 188.787C204.351 188.715 204.341 188.642 204.314 188.575C204.286 188.507 204.242 188.448 204.185 188.402C199.908 184.85 197.7 180.477 197.401 175.038C197.395 174.92 197.342 174.81 197.254 174.731C197.166 174.653 197.051 174.612 196.933 174.618C196.816 174.625 196.705 174.678 196.627 174.765C196.548 174.853 196.507 174.968 196.514 175.086C196.829 180.793 199.152 185.374 203.618 189.092C203.663 189.129 203.715 189.157 203.771 189.175C203.827 189.192 203.885 189.198 203.943 189.192C204.001 189.187 204.058 189.17 204.109 189.143C204.161 189.115 204.207 189.078 204.244 189.033C204.302 188.964 204.337 188.878 204.343 188.787Z" fill="#603B3E"/>
<path d="M197.019 185.74C197.03 185.636 197.004 185.53 196.944 185.444C195.292 183.038 194.271 180.828 193.699 178.478C193.165 176.19 193.052 173.763 193.381 170.834C193.39 170.719 193.354 170.605 193.28 170.516C193.206 170.427 193.101 170.371 192.986 170.359C192.871 170.347 192.756 170.38 192.665 170.451C192.574 170.522 192.515 170.626 192.499 170.74C191.826 176.727 192.903 181.138 196.215 185.951C196.248 185.999 196.29 186.04 196.338 186.072C196.387 186.103 196.442 186.125 196.499 186.135C196.556 186.146 196.614 186.145 196.671 186.132C196.728 186.12 196.782 186.097 196.829 186.064C196.883 186.028 196.929 185.98 196.961 185.924C196.994 185.868 197.014 185.805 197.019 185.74Z" fill="#603B3E"/>
<path d="M283.164 177.275C291.474 176.059 292.661 172.566 294.203 161.732C295.272 172.01 296.654 175.899 305.103 177.077C297.734 180.018 295.144 181.087 293.829 192.952C292.001 180.921 290.381 179.857 283.164 177.275Z" fill="white"/>
<path d="M274.763 158.161C274.584 161.35 270.567 165.432 268.615 165.432C266.664 165.432 261.706 165.966 261.885 167.201C262.064 168.436 273.223 177.655 270.387 179.956C267.552 182.258 259.228 172.515 257.632 172.87C257.598 172.875 257.565 172.887 257.537 172.907C257.509 172.927 257.487 172.954 257.472 172.985C256.996 174.02 265.322 181.057 260.621 181.728C259.124 181.942 252.495 176.591 251.266 176.059C250.036 175.527 238.331 176.594 236.207 175.524C235.137 174.99 233.948 175.543 232.531 176.313C231.115 177.083 229.492 178.064 227.549 178.417C223.652 179.128 219.18 178.751 219.693 177.385C220.762 174.549 222.994 174.233 224.505 173.22C226.108 172.151 228.223 170.034 228.578 168.439C228.918 166.91 230.013 163.416 228.38 163.138C228.307 163.124 228.233 163.117 228.158 163.117C226.21 163.117 217.772 160.113 218.48 153.38C219.079 147.689 226.359 146.77 229.564 148.109C230.076 148.291 230.523 148.621 230.847 149.058C234.001 153.946 225.143 154.582 225.678 156.707C226.587 160.329 231.235 155.86 232.651 154.975C238.321 151.431 248.242 152.318 250.025 151.607C251.808 150.896 253.391 143.813 255.342 144.874C257.293 145.936 257.48 149.838 259.06 149.127C260.639 148.416 260.851 145.118 262.604 144.874C263.841 144.698 264.905 149.493 265.793 149.659C268.626 150.194 267.859 153.786 271.406 154.318C274.453 154.775 274.466 154.959 274.744 156.991C274.786 157.38 274.792 157.771 274.763 158.161Z" fill="#CB830F"/>
<path d="M274.611 156.731C274.431 159.92 270.414 164.002 268.463 164.002C266.512 164.002 261.554 164.536 261.733 165.771C261.912 167.006 273.071 176.225 270.235 178.526C267.399 180.828 259.076 171.085 257.48 171.44C257.446 171.445 257.413 171.457 257.385 171.477C257.357 171.497 257.334 171.524 257.319 171.555C256.844 172.59 265.17 179.627 260.468 180.298C258.971 180.512 252.343 175.161 251.113 174.629C249.884 174.097 238.179 175.164 236.054 174.095C234.985 173.56 233.795 174.113 232.379 174.896C230.962 175.68 229.34 176.647 227.397 177C223.5 177.711 219.028 177.334 219.541 175.968C220.61 173.132 222.842 172.817 224.352 171.804C225.956 170.735 228.07 168.615 228.426 167.022C228.765 165.493 229.861 161.997 228.228 161.722C228.155 161.707 228.08 161.7 228.006 161.7C226.057 161.7 217.619 158.696 218.327 151.963C218.926 146.272 226.207 145.353 229.412 146.692C229.924 146.874 230.371 147.205 230.695 147.641C233.849 152.53 224.991 153.166 225.526 155.291C226.434 158.912 231.083 154.443 232.499 153.559C238.168 150.014 248.09 150.902 249.873 150.191C251.656 149.48 253.238 142.397 255.189 143.458C257.14 144.519 257.314 148.421 258.907 147.71C260.5 146.999 260.698 143.701 262.451 143.458C263.689 143.281 264.753 148.077 265.64 148.242C268.474 148.777 267.707 152.369 271.253 152.901C274.301 153.358 274.314 153.543 274.592 155.574C274.633 155.958 274.639 156.346 274.611 156.731Z" fill="#F4C83D"/>
<path opacity="0.65" d="M248.061 171.764C248.705 172.13 250.635 173.049 250.451 174.527C247.652 174.298 237.957 175.062 236.041 174.108C234.972 173.573 233.782 174.127 232.366 174.91C234.076 173.132 236.068 171.28 237.516 170.606C240.438 169.23 247.417 171.395 248.061 171.764Z" fill="white"/>
<path opacity="0.65" d="M274.61 156.731C274.431 159.92 270.414 164.002 268.463 164.002C266.931 164.002 263.531 164.328 262.24 165.071C262.112 165.142 261.995 165.233 261.893 165.338C261.871 165.362 261.852 165.387 261.834 165.413L261.815 165.437C261.676 165.613 261.147 166.976 260.885 167.34C259.3 169.545 258.145 171.197 257.482 171.438C258.421 170.232 258.316 168.23 257.215 165.29C256.087 162.264 256.729 159.901 258.11 158.402C259.311 157.097 260.658 156.336 265.298 156.322C267.546 156.322 267.062 158.461 274.581 155.579C274.625 155.962 274.635 156.347 274.61 156.731Z" fill="white"/>
<path d="M262.238 165.084C262.109 165.156 261.992 165.246 261.89 165.351C262.048 165.154 262.141 165.087 262.238 165.084Z" fill="white"/>
<path opacity="0.65" d="M228.225 161.722C228.152 161.707 228.078 161.7 228.003 161.7C226.055 161.7 217.616 158.696 218.325 151.963C218.924 146.272 226.204 145.353 229.409 146.692C222.262 148.723 219.423 155.873 225.729 159.631C227.148 160.473 227.907 161.166 228.225 161.722Z" fill="white"/>
<path d="M271.791 153.489C271.345 155.729 273.582 157.29 274.496 157.21C275.298 157.14 275.496 154.919 274.929 153.628C274.389 152.401 271.965 152.628 271.791 153.489Z" fill="#CB830F"/>
<path d="M250.699 149.899C251.012 154.443 255.831 163.141 262.134 165.293C262.668 165.477 261.826 167.03 261.359 167.067C258.106 167.335 248.136 157.044 248.796 150.279C248.911 149.221 250.635 148.926 250.699 149.899Z" fill="#CB830F"/>
</svg>
